<?xml version="1.0" encoding="UTF-8" standalone="no"?>
<!DOCTYPE svg PUBLIC "-//W3C//DTD SVG 1.1//EN"
 "http://www.w3.org/Graphics/SVG/1.1/DTD/svg11.dtd">
<!-- Generated by graphviz version 2.38.0 (20140413.2041)
 -->
<!-- Title: GPU Pages: 1 -->
<svg width="440pt" height="469pt"
 viewBox="0.00 0.00 440.00 469.00" xmlns="http://www.w3.org/2000/svg" xmlns:xlink="http://www.w3.org/1999/xlink">
<g id="graph0" class="graph" transform="scale(1 1) rotate(0) translate(0 469)">
<title>GPU</title>
<polygon fill="white" stroke="none" points="0,-0 0,-469 440,-469 440,-0 0,-0"/>
<g id="clust2" class="cluster"><title>cluster_core1</title>
<polygon fill="lightgrey" stroke="lightgrey" points="8,-8 8,-425 252,-425 252,-8 8,-8"/>
<text text-anchor="middle" x="130" y="-408.2" font-family="Times New Roman,serif" font-size="16.00">Core #1</text>
</g>
<g id="clust3" class="cluster"><title>cluster_core1_ROM</title>
<polygon fill="none" stroke="darkgreen" points="16,-16 16,-188 194,-188 194,-16 16,-16"/>
<text text-anchor="middle" x="105" y="-171.2" font-family="Times New Roman,serif" font-size="16.00">ROM</text>
</g>
<g id="clust5" class="cluster"><title>cluster_DFU</title>
<polygon fill="none" stroke="darkgreen" points="16,-196 16,-391 244,-391 244,-196 16,-196"/>
<text text-anchor="middle" x="130" y="-374.2" font-family="Times New Roman,serif" font-size="16.00">DFU</text>
</g>
<g id="clust7" class="cluster"><title>cluster_core3</title>
<polygon fill="lightgrey" stroke="lightgrey" points="362,-307.5 362,-385.5 432,-385.5 432,-307.5 362,-307.5"/>
<text text-anchor="middle" x="397" y="-368.7" font-family="Times New Roman,serif" font-size="16.00">Core..</text>
</g>
<g id="clust6" class="cluster"><title>cluster_core2</title>
<polygon fill="lightgrey" stroke="lightgrey" points="268,-307.5 268,-385.5 338,-385.5 338,-307.5 268,-307.5"/>
<text text-anchor="middle" x="303" y="-368.7" font-family="Times New Roman,serif" font-size="16.00">Core #2</text>
</g>
<!-- queue -->
<g id="node1" class="node"><title>queue</title>
<polygon fill="none" stroke="black" points="279,-469 229,-469 225,-465 225,-433 275,-433 279,-437 279,-469"/>
<polyline fill="none" stroke="black" points="275,-465 225,-465 "/>
<polyline fill="none" stroke="black" points="275,-465 275,-433 "/>
<polyline fill="none" stroke="black" points="275,-465 279,-469 "/>
<text text-anchor="middle" x="252" y="-447.3" font-family="Times New Roman,serif" font-size="14.00">Queue</text>
</g>
<!-- reg -->
<g id="node5" class="node"><title>reg</title>
<polygon fill="none" stroke="black" points="24,-310.5 24,-356.5 126,-356.5 126,-310.5 24,-310.5"/>
<text text-anchor="middle" x="75" y="-341.3" font-family="Times New Roman,serif" font-size="14.00">Registers (32b)</text>
<polyline fill="none" stroke="black" points="24,-333.5 126,-333.5 "/>
<text text-anchor="middle" x="39" y="-318.3" font-family="Times New Roman,serif" font-size="14.00">0</text>
<polyline fill="none" stroke="black" points="54,-310.5 54,-333.5 "/>
<text text-anchor="middle" x="71.5" y="-318.3" font-family="Times New Roman,serif" font-size="14.00">...</text>
<polyline fill="none" stroke="black" points="89,-310.5 89,-333.5 "/>
<text text-anchor="middle" x="107.5" y="-318.3" font-family="Times New Roman,serif" font-size="14.00">15</text>
</g>
<!-- queue&#45;&gt;reg -->
<g id="edge9" class="edge"><title>queue&#45;&gt;reg</title>
<path fill="none" stroke="darkblue" d="M224.822,-448.545C202.184,-446.229 169.899,-440.271 146,-425 122.943,-410.267 104.229,-385.38 91.8131,-365.429"/>
<polygon fill="darkblue" stroke="darkblue" points="94.7023,-363.442 86.5589,-356.664 88.6984,-367.041 94.7023,-363.442"/>
</g>
<!-- DFU2 -->
<g id="node7" class="node"><title>DFU2</title>
<polygon fill="none" stroke="black" points="330,-351.5 276,-351.5 276,-315.5 330,-315.5 330,-351.5"/>
<text text-anchor="middle" x="303" y="-329.8" font-family="Times New Roman,serif" font-size="14.00">DFU</text>
</g>
<!-- queue&#45;&gt;DFU2 -->
<g id="edge10" class="edge"><title>queue&#45;&gt;DFU2</title>
<path fill="none" stroke="darkblue" d="M270.537,-432.958C283.447,-414.106 297.601,-383.479 304.034,-361.386"/>
<polygon fill="darkblue" stroke="darkblue" points="307.447,-362.162 306.473,-351.612 300.655,-360.467 307.447,-362.162"/>
</g>
<!-- DFU3 -->
<g id="node8" class="node"><title>DFU3</title>
<polygon fill="none" stroke="black" points="424,-351.5 370,-351.5 370,-315.5 424,-315.5 424,-351.5"/>
<text text-anchor="middle" x="397" y="-329.8" font-family="Times New Roman,serif" font-size="14.00">DFU</text>
</g>
<!-- queue&#45;&gt;DFU3 -->
<g id="edge11" class="edge"><title>queue&#45;&gt;DFU3</title>
<path fill="none" stroke="darkblue" d="M279.408,-449.736C306.467,-448.661 343.734,-444.015 368,-425 388.479,-408.953 401.515,-381.88 405.268,-361.517"/>
<polygon fill="darkblue" stroke="darkblue" points="408.747,-361.899 406.374,-351.574 401.789,-361.125 408.747,-361.899"/>
</g>
<!-- data -->
<g id="node2" class="node"><title>data</title>
<polygon fill="none" stroke="black" points="41.5,-24.5 41.5,-70.5 168.5,-70.5 168.5,-24.5 41.5,-24.5"/>
<text text-anchor="middle" x="105" y="-55.3" font-family="Times New Roman,serif" font-size="14.00">Data Memory (32b)</text>
<polyline fill="none" stroke="black" points="41.5,-47.5 168.5,-47.5 "/>
<text text-anchor="middle" x="59.5" y="-32.3" font-family="Times New Roman,serif" font-size="14.00">0</text>
<polyline fill="none" stroke="black" points="77.5,-24.5 77.5,-47.5 "/>
<text text-anchor="middle" x="98" y="-32.3" font-family="Times New Roman,serif" font-size="14.00">...</text>
<polyline fill="none" stroke="black" points="118.5,-24.5 118.5,-47.5 "/>
<text text-anchor="middle" x="143.5" y="-32.3" font-family="Times New Roman,serif" font-size="14.00">511</text>
</g>
<!-- ALU -->
<g id="node6" class="node"><title>ALU</title>
<polygon fill="black" stroke="black" points="231.913,-326.044 231.913,-340.956 213.804,-351.5 188.196,-351.5 170.087,-340.956 170.087,-326.044 188.196,-315.5 213.804,-315.5 231.913,-326.044"/>
<polygon fill="none" stroke="black" points="235.907,-323.743 235.907,-343.257 214.882,-355.5 187.118,-355.5 166.093,-343.257 166.093,-323.743 187.118,-311.5 214.882,-311.5 235.907,-323.743"/>
<text text-anchor="middle" x="201" y="-329.8" font-family="Times New Roman,serif" font-size="14.00" fill="white">ALU</text>
</g>
<!-- data&#45;&gt;ALU -->
<g id="edge8" class="edge"><title>data&#45;&gt;ALU</title>
<path fill="none" stroke="darkblue" d="M165.251,-70.585C180.96,-79.405 195.994,-91.2972 205,-107 240.316,-168.576 223.607,-256.027 210.847,-301.826"/>
<polygon fill="darkblue" stroke="darkblue" points="207.473,-300.894 208.044,-311.473 214.195,-302.847 207.473,-300.894"/>
</g>
<!-- instr -->
<g id="node3" class="node"><title>instr</title>
<polygon fill="none" stroke="black" points="24.5,-107.5 24.5,-153.5 185.5,-153.5 185.5,-107.5 24.5,-107.5"/>
<text text-anchor="middle" x="105" y="-138.3" font-family="Times New Roman,serif" font-size="14.00">Instruction Memory (16b)</text>
<polyline fill="none" stroke="black" points="24.5,-130.5 185.5,-130.5 "/>
<text text-anchor="middle" x="48" y="-115.3" font-family="Times New Roman,serif" font-size="14.00">0</text>
<polyline fill="none" stroke="black" points="71.5,-107.5 71.5,-130.5 "/>
<text text-anchor="middle" x="97.5" y="-115.3" font-family="Times New Roman,serif" font-size="14.00">...</text>
<polyline fill="none" stroke="black" points="123.5,-107.5 123.5,-130.5 "/>
<text text-anchor="middle" x="154.5" y="-115.3" font-family="Times New Roman,serif" font-size="14.00">511</text>
</g>
<!-- instr&#45;&gt;data -->
<!-- instr&#45;&gt;ALU -->
<g id="edge7" class="edge"><title>instr&#45;&gt;ALU</title>
<path fill="none" stroke="darkblue" d="M125.76,-153.703C135.972,-165.548 147.814,-180.79 156,-196 174.326,-230.05 186.955,-272.896 194.069,-301.411"/>
<polygon fill="darkblue" stroke="darkblue" points="190.689,-302.327 196.44,-311.225 197.493,-300.683 190.689,-302.327"/>
</g>
<!-- stack -->
<g id="node4" class="node"><title>stack</title>
<polygon fill="none" stroke="black" points="24,-204.5 24,-273.5 136,-273.5 136,-204.5 24,-204.5"/>
<text text-anchor="middle" x="65" y="-235.3" font-family="Times New Roman,serif" font-size="14.00">Stack (32b)</text>
<polyline fill="none" stroke="black" points="106,-204.5 106,-273.5 "/>
<text text-anchor="middle" x="121" y="-258.3" font-family="Times New Roman,serif" font-size="14.00">15</text>
<polyline fill="none" stroke="black" points="106,-250.5 136,-250.5 "/>
<text text-anchor="middle" x="121" y="-235.3" font-family="Times New Roman,serif" font-size="14.00">...</text>
<polyline fill="none" stroke="black" points="106,-227.5 136,-227.5 "/>
<text text-anchor="middle" x="121" y="-212.3" font-family="Times New Roman,serif" font-size="14.00">0</text>
</g>
<!-- stack&#45;&gt;instr -->
<!-- stack&#45;&gt;ALU -->
<g id="edge6" class="edge"><title>stack&#45;&gt;ALU</title>
<path fill="none" stroke="darkblue" d="M132.24,-279.935C145.631,-290.173 159.573,-300.831 171.374,-309.852"/>
<polygon fill="darkblue" stroke="darkblue" points="134.067,-276.927 123.997,-273.634 129.815,-282.488 134.067,-276.927"/>
<polygon fill="darkblue" stroke="darkblue" points="169.297,-312.67 179.368,-315.963 173.549,-307.109 169.297,-312.67"/>
</g>
<!-- reg&#45;&gt;stack -->
<!-- reg&#45;&gt;stack -->
<!-- reg&#45;&gt;ALU -->
<g id="edge5" class="edge"><title>reg&#45;&gt;ALU</title>
<path fill="none" stroke="darkblue" d="M134.882,-333.5C142.321,-333.5 149.76,-333.5 157.199,-333.5"/>
<polygon fill="darkblue" stroke="darkblue" points="134.688,-330.525 126.188,-333.5 134.687,-336.475 134.688,-330.525"/>
<polygon fill="darkblue" stroke="darkblue" points="157.432,-336.475 165.932,-333.5 157.432,-330.525 157.432,-336.475"/>
</g>
<!-- ALU&#45;&gt;queue -->
<g id="edge12" class="edge"><title>ALU&#45;&gt;queue</title>
<path fill="none" stroke="darkblue" d="M210.287,-355.533C218.759,-374.719 231.309,-403.141 240.429,-423.796"/>
<polygon fill="darkblue" stroke="darkblue" points="237.234,-425.223 244.475,-432.958 243.637,-422.396 237.234,-425.223"/>
</g>
<!-- FrameBuf -->
<g id="node9" class="node"><title>FrameBuf</title>
<polygon fill="none" stroke="black" points="292.5,-240.5 304.5,-240.5 304.5,-246.5 292.5,-246.5 292.5,-240.5"/>
<polygon fill="none" stroke="black" points="292.5,-231.5 304.5,-231.5 304.5,-237.5 292.5,-237.5 292.5,-231.5"/>
<polygon fill="none" stroke="black" points="307.5,-231.5 319.5,-231.5 319.5,-237.5 307.5,-237.5 307.5,-231.5"/>
<polygon fill="none" stroke="black" points="307.5,-240.5 319.5,-240.5 319.5,-246.5 307.5,-246.5 307.5,-240.5"/>
<polyline fill="none" stroke="black" points="319.5,-239 351.5,-239 "/>
<polyline fill="none" stroke="black" points="292.5,-239 260.5,-239 "/>
<text text-anchor="middle" x="306" y="-219.3" font-family="Times New Roman,serif" font-size="14.00">Frame Buffer</text>
</g>
<!-- ALU&#45;&gt;FrameBuf -->
<g id="edge15" class="edge"><title>ALU&#45;&gt;FrameBuf</title>
<path fill="none" stroke="darkblue" d="M221.245,-314.665C234.56,-302.935 252.395,-287.223 268.269,-273.239"/>
<polygon fill="darkblue" stroke="darkblue" points="270.686,-275.774 275.876,-266.538 266.059,-270.522 270.686,-275.774"/>
</g>
<!-- DFU2&#45;&gt;queue -->
<g id="edge13" class="edge"><title>DFU2&#45;&gt;queue</title>
<path fill="none" stroke="darkblue" d="M284.415,-351.612C271.502,-370.493 257.356,-401.124 250.943,-423.196"/>
<polygon fill="darkblue" stroke="darkblue" points="247.532,-422.408 248.513,-432.958 254.325,-424.099 247.532,-422.408"/>
</g>
<!-- DFU2&#45;&gt;FrameBuf -->
<g id="edge16" class="edge"><title>DFU2&#45;&gt;FrameBuf</title>
<path fill="none" stroke="darkblue" d="M303.564,-315.101C303.912,-304.365 304.373,-290.174 304.799,-277.022"/>
<polygon fill="darkblue" stroke="darkblue" points="308.305,-276.89 305.131,-266.782 301.309,-276.663 308.305,-276.89"/>
</g>
<!-- DFU3&#45;&gt;queue -->
<g id="edge14" class="edge"><title>DFU3&#45;&gt;queue</title>
<path fill="none" stroke="darkblue" d="M378.296,-351.574C365.833,-372.107 352.049,-406.156 328,-425 316.657,-433.888 302.474,-439.637 289.216,-443.349"/>
<polygon fill="darkblue" stroke="darkblue" points="288.182,-440 279.321,-445.809 289.87,-446.793 288.182,-440"/>
</g>
<!-- DFU3&#45;&gt;FrameBuf -->
<g id="edge17" class="edge"><title>DFU3&#45;&gt;FrameBuf</title>
<path fill="none" stroke="darkblue" d="M379.884,-315.101C368.484,-303.514 353.128,-287.905 339.368,-273.918"/>
<polygon fill="darkblue" stroke="darkblue" points="341.856,-271.456 332.348,-266.782 336.866,-276.365 341.856,-271.456"/>
</g>
</g>
</svg>
