<?xml version="1.0" encoding="UTF-8" standalone="no"?>
<!DOCTYPE svg PUBLIC "-//W3C//DTD SVG 1.1//EN"
 "http://www.w3.org/Graphics/SVG/1.1/DTD/svg11.dtd">
<!-- Generated by graphviz version 2.38.0 (20140413.2041)
 -->
<!-- Title: GPU Pages: 1 -->
<svg width="466pt" height="477pt"
 viewBox="0.00 0.00 466.00 477.00" xmlns="http://www.w3.org/2000/svg" xmlns:xlink="http://www.w3.org/1999/xlink">
<g id="graph0" class="graph" transform="scale(1 1) rotate(0) translate(4 473)">
<title>GPU</title>
<polygon fill="white" stroke="none" points="-4,4 -4,-473 462,-473 462,4 -4,4"/>
<g id="clust2" class="cluster"><title>cluster_core1</title>
<polygon fill="lightgrey" stroke="lightgrey" points="8,-8 8,-425 230,-425 230,-8 8,-8"/>
<text text-anchor="middle" x="119" y="-408.2" font-family="Times New Roman,serif" font-size="16.00">Core #1</text>
</g>
<g id="clust3" class="cluster"><title>cluster_core1_ROM</title>
<polygon fill="none" stroke="darkgreen" points="16,-16 16,-188 194,-188 194,-16 16,-16"/>
<text text-anchor="middle" x="105" y="-171.2" font-family="Times New Roman,serif" font-size="16.00">ROM</text>
</g>
<g id="clust5" class="cluster"><title>cluster_DFU</title>
<polygon fill="none" stroke="darkgreen" points="16,-196 16,-391 222,-391 222,-196 16,-196"/>
<text text-anchor="middle" x="119" y="-374.2" font-family="Times New Roman,serif" font-size="16.00">DFU</text>
</g>
<g id="clust6" class="cluster"><title>cluster_core2</title>
<polygon fill="lightgrey" stroke="lightgrey" points="302,-307.5 302,-385.5 372,-385.5 372,-307.5 302,-307.5"/>
<text text-anchor="middle" x="337" y="-368.7" font-family="Times New Roman,serif" font-size="16.00">Core #2</text>
</g>
<g id="clust7" class="cluster"><title>cluster_core3</title>
<polygon fill="lightgrey" stroke="lightgrey" points="380,-307.5 380,-385.5 450,-385.5 450,-307.5 380,-307.5"/>
<text text-anchor="middle" x="415" y="-368.7" font-family="Times New Roman,serif" font-size="16.00">Core..</text>
</g>
<!-- queue -->
<g id="node1" class="node"><title>queue</title>
<polygon fill="none" stroke="black" points="292,-469 242,-469 238,-465 238,-433 288,-433 292,-437 292,-469"/>
<polyline fill="none" stroke="black" points="288,-465 238,-465 "/>
<polyline fill="none" stroke="black" points="288,-465 288,-433 "/>
<polyline fill="none" stroke="black" points="288,-465 292,-469 "/>
<text text-anchor="middle" x="265" y="-447.3" font-family="Times New Roman,serif" font-size="14.00">Queue</text>
</g>
<!-- reg -->
<g id="node5" class="node"><title>reg</title>
<polygon fill="none" stroke="black" points="24,-310.5 24,-356.5 126,-356.5 126,-310.5 24,-310.5"/>
<text text-anchor="middle" x="75" y="-341.3" font-family="Times New Roman,serif" font-size="14.00">Registers (32b)</text>
<polyline fill="none" stroke="black" points="24,-333.5 126,-333.5 "/>
<text text-anchor="middle" x="39" y="-318.3" font-family="Times New Roman,serif" font-size="14.00">0</text>
<polyline fill="none" stroke="black" points="54,-310.5 54,-333.5 "/>
<text text-anchor="middle" x="71.5" y="-318.3" font-family="Times New Roman,serif" font-size="14.00">...</text>
<polyline fill="none" stroke="black" points="89,-310.5 89,-333.5 "/>
<text text-anchor="middle" x="107.5" y="-318.3" font-family="Times New Roman,serif" font-size="14.00">15</text>
</g>
<!-- queue&#45;&gt;reg -->
<g id="edge10" class="edge"><title>queue&#45;&gt;reg</title>
<path fill="none" stroke="darkblue" d="M237.778,-457C185.241,-457 75,-457 75,-457 75,-457 75,-366.729 75,-366.729"/>
<polygon fill="darkblue" stroke="darkblue" points="78.5001,-366.729 75,-356.729 71.5001,-366.729 78.5001,-366.729"/>
</g>
<!-- pl -->
<g id="node7" class="node"><title>pl</title>
<ellipse fill="none" stroke="black" cx="265" cy="-333.5" rx="27" ry="18"/>
<text text-anchor="middle" x="265" y="-329.8" font-family="Times New Roman,serif" font-size="14.00">pl</text>
</g>
<!-- queue&#45;&gt;pl -->
<g id="edge9" class="edge"><title>queue&#45;&gt;pl</title>
<path fill="none" stroke="darkblue" d="M265,-432.898C265,-432.898 265,-361.816 265,-361.816"/>
<polygon fill="darkblue" stroke="darkblue" points="268.5,-361.816 265,-351.816 261.5,-361.816 268.5,-361.816"/>
</g>
<!-- DFU2 -->
<g id="node8" class="node"><title>DFU2</title>
<polygon fill="none" stroke="black" points="364,-351.5 310,-351.5 310,-315.5 364,-315.5 364,-351.5"/>
<text text-anchor="middle" x="337" y="-329.8" font-family="Times New Roman,serif" font-size="14.00">DFU</text>
</g>
<!-- queue&#45;&gt;DFU2 -->
<g id="edge11" class="edge"><title>queue&#45;&gt;DFU2</title>
<path fill="none" stroke="darkblue" d="M292.083,-440C309.158,-440 328,-440 328,-440 328,-440 328,-361.566 328,-361.566"/>
<polygon fill="darkblue" stroke="darkblue" points="331.5,-361.566 328,-351.566 324.5,-361.566 331.5,-361.566"/>
</g>
<!-- DFU3 -->
<g id="node9" class="node"><title>DFU3</title>
<polygon fill="none" stroke="black" points="442,-351.5 388,-351.5 388,-315.5 442,-315.5 442,-351.5"/>
<text text-anchor="middle" x="415" y="-329.8" font-family="Times New Roman,serif" font-size="14.00">DFU</text>
</g>
<!-- queue&#45;&gt;DFU3 -->
<g id="edge12" class="edge"><title>queue&#45;&gt;DFU3</title>
<path fill="none" stroke="darkblue" d="M292.186,-454C333.159,-454 406,-454 406,-454 406,-454 406,-361.54 406,-361.54"/>
<polygon fill="darkblue" stroke="darkblue" points="409.5,-361.54 406,-351.54 402.5,-361.54 409.5,-361.54"/>
</g>
<!-- data -->
<g id="node2" class="node"><title>data</title>
<polygon fill="none" stroke="black" points="41.5,-24.5 41.5,-70.5 168.5,-70.5 168.5,-24.5 41.5,-24.5"/>
<text text-anchor="middle" x="105" y="-55.3" font-family="Times New Roman,serif" font-size="14.00">Data Memory (32b)</text>
<polyline fill="none" stroke="black" points="41.5,-47.5 168.5,-47.5 "/>
<text text-anchor="middle" x="59.5" y="-32.3" font-family="Times New Roman,serif" font-size="14.00">0</text>
<polyline fill="none" stroke="black" points="77.5,-24.5 77.5,-47.5 "/>
<text text-anchor="middle" x="98" y="-32.3" font-family="Times New Roman,serif" font-size="14.00">...</text>
<polyline fill="none" stroke="black" points="118.5,-24.5 118.5,-47.5 "/>
<text text-anchor="middle" x="143.5" y="-32.3" font-family="Times New Roman,serif" font-size="14.00">511</text>
</g>
<!-- ALU -->
<g id="node6" class="node"><title>ALU</title>
<polygon fill="black" stroke="black" points="209.913,-326.044 209.913,-340.956 191.804,-351.5 166.196,-351.5 148.087,-340.956 148.087,-326.044 166.196,-315.5 191.804,-315.5 209.913,-326.044"/>
<polygon fill="none" stroke="black" points="213.907,-323.743 213.907,-343.257 192.882,-355.5 165.118,-355.5 144.093,-343.257 144.093,-323.743 165.118,-311.5 192.882,-311.5 213.907,-323.743"/>
<text text-anchor="middle" x="179" y="-329.8" font-family="Times New Roman,serif" font-size="14.00" fill="white">ALU</text>
</g>
<!-- data&#45;&gt;ALU -->
<g id="edge8" class="edge"><title>data&#45;&gt;ALU</title>
<path fill="none" stroke="darkblue" d="M168.957,-47C183.614,-47 194.985,-47 194.985,-47 194.985,-47 194.985,-302.433 194.985,-302.433"/>
<polygon fill="darkblue" stroke="darkblue" points="191.485,-302.433 194.985,-312.433 198.485,-302.433 191.485,-302.433"/>
</g>
<!-- instr -->
<g id="node3" class="node"><title>instr</title>
<polygon fill="none" stroke="black" points="24.5,-107.5 24.5,-153.5 185.5,-153.5 185.5,-107.5 24.5,-107.5"/>
<text text-anchor="middle" x="105" y="-138.3" font-family="Times New Roman,serif" font-size="14.00">Instruction Memory (16b)</text>
<polyline fill="none" stroke="black" points="24.5,-130.5 185.5,-130.5 "/>
<text text-anchor="middle" x="48" y="-115.3" font-family="Times New Roman,serif" font-size="14.00">0</text>
<polyline fill="none" stroke="black" points="71.5,-107.5 71.5,-130.5 "/>
<text text-anchor="middle" x="97.5" y="-115.3" font-family="Times New Roman,serif" font-size="14.00">...</text>
<polyline fill="none" stroke="black" points="123.5,-107.5 123.5,-130.5 "/>
<text text-anchor="middle" x="154.5" y="-115.3" font-family="Times New Roman,serif" font-size="14.00">511</text>
</g>
<!-- instr&#45;&gt;data -->
<!-- instr&#45;&gt;ALU -->
<g id="edge7" class="edge"><title>instr&#45;&gt;ALU</title>
<path fill="none" stroke="darkblue" d="M171.682,-153.787C171.682,-153.787 171.682,-301.41 171.682,-301.41"/>
<polygon fill="darkblue" stroke="darkblue" points="168.182,-301.41 171.682,-311.41 175.182,-301.41 168.182,-301.41"/>
</g>
<!-- stack -->
<g id="node4" class="node"><title>stack</title>
<polygon fill="none" stroke="black" points="24,-204.5 24,-273.5 136,-273.5 136,-204.5 24,-204.5"/>
<text text-anchor="middle" x="65" y="-235.3" font-family="Times New Roman,serif" font-size="14.00">Stack (32b)</text>
<polyline fill="none" stroke="black" points="106,-204.5 106,-273.5 "/>
<text text-anchor="middle" x="121" y="-258.3" font-family="Times New Roman,serif" font-size="14.00">15</text>
<polyline fill="none" stroke="black" points="106,-250.5 136,-250.5 "/>
<text text-anchor="middle" x="121" y="-235.3" font-family="Times New Roman,serif" font-size="14.00">...</text>
<polyline fill="none" stroke="black" points="106,-227.5 136,-227.5 "/>
<text text-anchor="middle" x="121" y="-212.3" font-family="Times New Roman,serif" font-size="14.00">0</text>
</g>
<!-- stack&#45;&gt;instr -->
<!-- stack&#45;&gt;ALU -->
<g id="edge6" class="edge"><title>stack&#45;&gt;ALU</title>
<path fill="none" stroke="darkblue" d="M146.175,-270C146.175,-270 157.864,-270 157.864,-270 157.864,-270 157.864,-305.473 157.864,-305.473"/>
<polygon fill="darkblue" stroke="darkblue" points="146.175,-266.5 136.175,-270 146.175,-273.5 146.175,-266.5"/>
<polygon fill="darkblue" stroke="darkblue" points="154.364,-305.473 157.864,-315.473 161.364,-305.473 154.364,-305.473"/>
</g>
<!-- reg&#45;&gt;stack -->
<!-- reg&#45;&gt;stack -->
<!-- reg&#45;&gt;ALU -->
<g id="edge5" class="edge"><title>reg&#45;&gt;ALU</title>
<path fill="none" stroke="darkblue" d="M131.586,-333C131.586,-333 138.491,-333 138.491,-333"/>
<polygon fill="darkblue" stroke="darkblue" points="138.491,-334.925 143.991,-333 138.491,-331.075 138.491,-334.925"/>
<polygon fill="darkblue" stroke="darkblue" points="131.586,-331.075 126.086,-333 131.586,-334.925 131.586,-331.075"/>
</g>
<!-- ALU&#45;&gt;queue -->
<g id="edge13" class="edge"><title>ALU&#45;&gt;queue</title>
<path fill="none" stroke="darkblue" d="M179,-355.529C179,-388.023 179,-445 179,-445 179,-445 227.789,-445 227.789,-445"/>
<polygon fill="darkblue" stroke="darkblue" points="227.789,-448.5 237.789,-445 227.789,-441.5 227.789,-448.5"/>
</g>
<!-- FrameBuf -->
<g id="node10" class="node"><title>FrameBuf</title>
<polygon fill="none" stroke="black" points="323.5,-240.5 335.5,-240.5 335.5,-246.5 323.5,-246.5 323.5,-240.5"/>
<polygon fill="none" stroke="black" points="323.5,-231.5 335.5,-231.5 335.5,-237.5 323.5,-237.5 323.5,-231.5"/>
<polygon fill="none" stroke="black" points="338.5,-231.5 350.5,-231.5 350.5,-237.5 338.5,-237.5 338.5,-231.5"/>
<polygon fill="none" stroke="black" points="338.5,-240.5 350.5,-240.5 350.5,-246.5 338.5,-246.5 338.5,-240.5"/>
<polyline fill="none" stroke="black" points="350.5,-239 382.5,-239 "/>
<polyline fill="none" stroke="black" points="323.5,-239 291.5,-239 "/>
<text text-anchor="middle" x="337" y="-219.3" font-family="Times New Roman,serif" font-size="14.00">Frame Buffer</text>
</g>
<!-- ALU&#45;&gt;FrameBuf -->
<g id="edge16" class="edge"><title>ALU&#45;&gt;FrameBuf</title>
<path fill="none" stroke="darkblue" d="M204.469,-317.895C204.469,-291.055 204.469,-239 204.469,-239 204.469,-239 281.39,-239 281.39,-239"/>
<polygon fill="darkblue" stroke="darkblue" points="281.39,-242.5 291.39,-239 281.39,-235.5 281.39,-242.5"/>
</g>
<!-- DFU2&#45;&gt;queue -->
<g id="edge14" class="edge"><title>DFU2&#45;&gt;queue</title>
<path fill="none" stroke="darkblue" d="M346,-351.736C346,-383.82 346,-447 346,-447 346,-447 302.423,-447 302.423,-447"/>
<polygon fill="darkblue" stroke="darkblue" points="302.423,-443.5 292.423,-447 302.423,-450.5 302.423,-443.5"/>
</g>
<!-- DFU2&#45;&gt;FrameBuf -->
<g id="edge17" class="edge"><title>DFU2&#45;&gt;FrameBuf</title>
<path fill="none" stroke="darkblue" d="M337,-315.279C337,-315.279 337,-276.842 337,-276.842"/>
<polygon fill="darkblue" stroke="darkblue" points="340.5,-276.842 337,-266.842 333.5,-276.842 340.5,-276.842"/>
</g>
<!-- DFU3&#45;&gt;queue -->
<g id="edge15" class="edge"><title>DFU3&#45;&gt;queue</title>
<path fill="none" stroke="darkblue" d="M424,-351.768C424,-387.023 424,-461 424,-461 424,-461 302.333,-461 302.333,-461"/>
<polygon fill="darkblue" stroke="darkblue" points="302.333,-457.5 292.333,-461 302.333,-464.5 302.333,-457.5"/>
</g>
<!-- DFU3&#45;&gt;FrameBuf -->
<g id="edge18" class="edge"><title>DFU3&#45;&gt;FrameBuf</title>
<path fill="none" stroke="darkblue" d="M387.852,-333C379.878,-333 373.25,-333 373.25,-333 373.25,-333 373.25,-276.695 373.25,-276.695"/>
<polygon fill="darkblue" stroke="darkblue" points="376.75,-276.695 373.25,-266.695 369.75,-276.695 376.75,-276.695"/>
</g>
</g>
</svg>
