<?xml version="1.0" encoding="UTF-8" standalone="no"?>
<!DOCTYPE svg PUBLIC "-//W3C//DTD SVG 1.1//EN"
 "http://www.w3.org/Graphics/SVG/1.1/DTD/svg11.dtd">
<!-- Generated by graphviz version 2.38.0 (20140413.2041)
 -->
<!-- Title: GPU Pages: 1 -->
<svg width="418pt" height="435pt"
 viewBox="0.00 0.00 418.00 435.00" xmlns="http://www.w3.org/2000/svg" xmlns:xlink="http://www.w3.org/1999/xlink">
<g id="graph0" class="graph" transform="scale(1 1) rotate(0) translate(4 431)">
<title>GPU</title>
<polygon fill="white" stroke="none" points="-4,4 -4,-431 414,-431 414,4 -4,4"/>
<g id="clust2" class="cluster"><title>cluster_core1</title>
<polygon fill="lightgrey" stroke="lightgrey" points="8,-8 8,-383 214,-383 214,-8 8,-8"/>
<text text-anchor="middle" x="111" y="-366.2" font-family="Times New Roman,serif" font-size="16.00">Core #1</text>
</g>
<g id="clust3" class="cluster"><title>cluster_core1_ROM</title>
<polygon fill="none" stroke="darkgreen" points="28,-16 28,-188 206,-188 206,-16 28,-16"/>
<text text-anchor="middle" x="117" y="-171.2" font-family="Times New Roman,serif" font-size="16.00">ROM</text>
</g>
<g id="clust6" class="cluster"><title>cluster_core2</title>
<polygon fill="darkgrey" stroke="darkgrey" points="222,-295.5 222,-381.5 308,-381.5 308,-295.5 222,-295.5"/>
<text text-anchor="middle" x="265" y="-364.7" font-family="Times New Roman,serif" font-size="16.00">Core #2</text>
</g>
<g id="clust7" class="cluster"><title>cluster_core3</title>
<polygon fill="darkgrey" stroke="darkgrey" points="316,-295.5 316,-381.5 402,-381.5 402,-295.5 316,-295.5"/>
<text text-anchor="middle" x="359" y="-364.7" font-family="Times New Roman,serif" font-size="16.00">Core..</text>
</g>
<!-- queue -->
<g id="node1" class="node"><title>queue</title>
<polygon fill="none" stroke="black" points="245,-427 195,-427 191,-423 191,-391 241,-391 245,-395 245,-427"/>
<polyline fill="none" stroke="black" points="241,-423 191,-423 "/>
<polyline fill="none" stroke="black" points="241,-423 241,-391 "/>
<polyline fill="none" stroke="black" points="241,-423 245,-427 "/>
<text text-anchor="middle" x="218" y="-405.3" font-family="Times New Roman,serif" font-size="14.00">Queue</text>
</g>
<!-- reg -->
<g id="node5" class="node"><title>reg</title>
<polygon fill="none" stroke="black" points="16,-302.5 16,-348.5 118,-348.5 118,-302.5 16,-302.5"/>
<text text-anchor="middle" x="67" y="-333.3" font-family="Times New Roman,serif" font-size="14.00">Registers (32b)</text>
<polyline fill="none" stroke="black" points="16,-325.5 118,-325.5 "/>
<text text-anchor="middle" x="31" y="-310.3" font-family="Times New Roman,serif" font-size="14.00">0</text>
<polyline fill="none" stroke="black" points="46,-302.5 46,-325.5 "/>
<text text-anchor="middle" x="63.5" y="-310.3" font-family="Times New Roman,serif" font-size="14.00">...</text>
<polyline fill="none" stroke="black" points="81,-302.5 81,-325.5 "/>
<text text-anchor="middle" x="99.5" y="-310.3" font-family="Times New Roman,serif" font-size="14.00">15</text>
</g>
<!-- queue&#45;&gt;reg -->
<g id="edge8" class="edge"><title>queue&#45;&gt;reg</title>
<path fill="none" stroke="darkblue" d="M190.655,-409C147.141,-409 67,-409 67,-409 67,-409 67,-358.759 67,-358.759"/>
<polygon fill="darkblue" stroke="darkblue" points="70.5001,-358.759 67,-348.759 63.5001,-358.759 70.5001,-358.759"/>
</g>
<!-- DFU2 -->
<g id="node7" class="node"><title>DFU2</title>
<polygon fill="black" stroke="black" points="295.913,-318.044 295.913,-332.956 277.804,-343.5 252.196,-343.5 234.087,-332.956 234.087,-318.044 252.196,-307.5 277.804,-307.5 295.913,-318.044"/>
<polygon fill="none" stroke="black" points="299.907,-315.743 299.907,-335.257 278.882,-347.5 251.118,-347.5 230.093,-335.257 230.093,-315.743 251.118,-303.5 278.882,-303.5 299.907,-315.743"/>
<text text-anchor="middle" x="265" y="-321.8" font-family="Times New Roman,serif" font-size="14.00" fill="white">DFU</text>
</g>
<!-- queue&#45;&gt;DFU2 -->
<g id="edge9" class="edge"><title>queue&#45;&gt;DFU2</title>
<path fill="none" stroke="darkblue" d="M240.015,-390.882C240.015,-390.882 240.015,-351.057 240.015,-351.057"/>
<polygon fill="darkblue" stroke="darkblue" points="243.516,-351.057 240.015,-341.057 236.516,-351.057 243.516,-351.057"/>
</g>
<!-- DFU3 -->
<g id="node8" class="node"><title>DFU3</title>
<polygon fill="black" stroke="black" points="389.913,-318.044 389.913,-332.956 371.804,-343.5 346.196,-343.5 328.087,-332.956 328.087,-318.044 346.196,-307.5 371.804,-307.5 389.913,-318.044"/>
<polygon fill="none" stroke="black" points="393.907,-315.743 393.907,-335.257 372.882,-347.5 345.118,-347.5 324.093,-335.257 324.093,-315.743 345.118,-303.5 372.882,-303.5 393.907,-315.743"/>
<text text-anchor="middle" x="359" y="-321.8" font-family="Times New Roman,serif" font-size="14.00" fill="white">DFU</text>
</g>
<!-- queue&#45;&gt;DFU3 -->
<g id="edge10" class="edge"><title>queue&#45;&gt;DFU3</title>
<path fill="none" stroke="darkblue" d="M245.291,-415C289.199,-415 370.651,-415 370.651,-415 370.651,-415 370.651,-357.624 370.651,-357.624"/>
<polygon fill="darkblue" stroke="darkblue" points="374.151,-357.624 370.651,-347.624 367.151,-357.624 374.151,-357.624"/>
</g>
<!-- data -->
<g id="node2" class="node"><title>data</title>
<polygon fill="none" stroke="black" points="53.5,-24.5 53.5,-70.5 180.5,-70.5 180.5,-24.5 53.5,-24.5"/>
<text text-anchor="middle" x="117" y="-55.3" font-family="Times New Roman,serif" font-size="14.00">Data Memory (32b)</text>
<polyline fill="none" stroke="black" points="53.5,-47.5 180.5,-47.5 "/>
<text text-anchor="middle" x="71.5" y="-32.3" font-family="Times New Roman,serif" font-size="14.00">0</text>
<polyline fill="none" stroke="black" points="89.5,-24.5 89.5,-47.5 "/>
<text text-anchor="middle" x="110" y="-32.3" font-family="Times New Roman,serif" font-size="14.00">...</text>
<polyline fill="none" stroke="black" points="130.5,-24.5 130.5,-47.5 "/>
<text text-anchor="middle" x="155.5" y="-32.3" font-family="Times New Roman,serif" font-size="14.00">511</text>
</g>
<!-- DFU -->
<g id="node6" class="node"><title>DFU</title>
<polygon fill="black" stroke="black" points="201.913,-318.044 201.913,-332.956 183.804,-343.5 158.196,-343.5 140.087,-332.956 140.087,-318.044 158.196,-307.5 183.804,-307.5 201.913,-318.044"/>
<polygon fill="none" stroke="black" points="205.907,-315.743 205.907,-335.257 184.882,-347.5 157.118,-347.5 136.093,-335.257 136.093,-315.743 157.118,-303.5 184.882,-303.5 205.907,-315.743"/>
<text text-anchor="middle" x="171" y="-321.8" font-family="Times New Roman,serif" font-size="14.00" fill="white">DFU</text>
</g>
<!-- data&#45;&gt;DFU -->
<g id="edge7" class="edge"><title>data&#45;&gt;DFU</title>
<path fill="none" stroke="darkblue" d="M180.783,-47C192.821,-47 201.727,-47 201.727,-47 201.727,-47 201.727,-303.174 201.727,-303.174"/>
<polygon fill="darkblue" stroke="darkblue" points="198.227,-303.174 201.727,-313.174 205.227,-303.174 198.227,-303.174"/>
</g>
<!-- instr -->
<g id="node3" class="node"><title>instr</title>
<polygon fill="none" stroke="black" points="36.5,-107.5 36.5,-153.5 197.5,-153.5 197.5,-107.5 36.5,-107.5"/>
<text text-anchor="middle" x="117" y="-138.3" font-family="Times New Roman,serif" font-size="14.00">Instruction Memory (16b)</text>
<polyline fill="none" stroke="black" points="36.5,-130.5 197.5,-130.5 "/>
<text text-anchor="middle" x="60" y="-115.3" font-family="Times New Roman,serif" font-size="14.00">0</text>
<polyline fill="none" stroke="black" points="83.5,-107.5 83.5,-130.5 "/>
<text text-anchor="middle" x="109.5" y="-115.3" font-family="Times New Roman,serif" font-size="14.00">...</text>
<polyline fill="none" stroke="black" points="135.5,-107.5 135.5,-130.5 "/>
<text text-anchor="middle" x="166.5" y="-115.3" font-family="Times New Roman,serif" font-size="14.00">511</text>
</g>
<!-- instr&#45;&gt;data -->
<!-- instr&#45;&gt;DFU -->
<g id="edge6" class="edge"><title>instr&#45;&gt;DFU</title>
<path fill="none" stroke="darkblue" d="M182.75,-153.635C182.75,-153.635 182.75,-293.296 182.75,-293.296"/>
<polygon fill="darkblue" stroke="darkblue" points="179.25,-293.296 182.75,-303.296 186.25,-293.296 179.25,-293.296"/>
</g>
<!-- stack -->
<g id="node4" class="node"><title>stack</title>
<polygon fill="none" stroke="black" points="56,-196.5 56,-265.5 168,-265.5 168,-196.5 56,-196.5"/>
<text text-anchor="middle" x="97" y="-227.3" font-family="Times New Roman,serif" font-size="14.00">Stack (32b)</text>
<polyline fill="none" stroke="black" points="138,-196.5 138,-265.5 "/>
<text text-anchor="middle" x="153" y="-250.3" font-family="Times New Roman,serif" font-size="14.00">15</text>
<polyline fill="none" stroke="black" points="138,-242.5 168,-242.5 "/>
<text text-anchor="middle" x="153" y="-227.3" font-family="Times New Roman,serif" font-size="14.00">...</text>
<polyline fill="none" stroke="black" points="138,-219.5 168,-219.5 "/>
<text text-anchor="middle" x="153" y="-204.3" font-family="Times New Roman,serif" font-size="14.00">0</text>
</g>
<!-- stack&#45;&gt;instr -->
<!-- stack&#45;&gt;DFU -->
<g id="edge5" class="edge"><title>stack&#45;&gt;DFU</title>
<path fill="none" stroke="darkblue" d="M152.023,-275.652C152.023,-275.652 152.023,-296.231 152.023,-296.231"/>
<polygon fill="darkblue" stroke="darkblue" points="148.523,-296.231 152.023,-306.231 155.523,-296.231 148.523,-296.231"/>
<polygon fill="darkblue" stroke="darkblue" points="155.523,-275.652 152.023,-265.652 148.523,-275.652 155.523,-275.652"/>
</g>
<!-- reg&#45;&gt;stack -->
<!-- reg&#45;&gt;DFU -->
<g id="edge4" class="edge"><title>reg&#45;&gt;DFU</title>
<path fill="none" stroke="darkblue" d="M123.586,-325C123.586,-325 130.491,-325 130.491,-325"/>
<polygon fill="darkblue" stroke="darkblue" points="130.491,-326.925 135.991,-325 130.491,-323.075 130.491,-326.925"/>
<polygon fill="darkblue" stroke="darkblue" points="123.586,-323.075 118.086,-325 123.586,-326.925 123.586,-323.075"/>
</g>
<!-- DFU&#45;&gt;queue -->
<g id="edge11" class="edge"><title>DFU&#45;&gt;queue</title>
<path fill="none" stroke="darkblue" d="M198.477,-339.665C198.477,-339.665 198.477,-380.972 198.477,-380.972"/>
<polygon fill="darkblue" stroke="darkblue" points="194.977,-380.972 198.477,-390.972 201.977,-380.972 194.977,-380.972"/>
</g>
<!-- FrameBuf -->
<g id="node9" class="node"><title>FrameBuf</title>
<polygon fill="none" stroke="black" points="254.5,-232.5 266.5,-232.5 266.5,-238.5 254.5,-238.5 254.5,-232.5"/>
<polygon fill="none" stroke="black" points="254.5,-223.5 266.5,-223.5 266.5,-229.5 254.5,-229.5 254.5,-223.5"/>
<polygon fill="none" stroke="black" points="269.5,-223.5 281.5,-223.5 281.5,-229.5 269.5,-229.5 269.5,-223.5"/>
<polygon fill="none" stroke="black" points="269.5,-232.5 281.5,-232.5 281.5,-238.5 269.5,-238.5 269.5,-232.5"/>
<polyline fill="none" stroke="black" points="281.5,-231 313.5,-231 "/>
<polyline fill="none" stroke="black" points="254.5,-231 222.5,-231 "/>
<text text-anchor="middle" x="268" y="-211.3" font-family="Times New Roman,serif" font-size="14.00">Frame Buffer</text>
</g>
<!-- DFU&#45;&gt;FrameBuf -->
<g id="edge14" class="edge"><title>DFU&#45;&gt;FrameBuf</title>
<path fill="none" stroke="darkblue" d="M206.005,-325C216.975,-325 226.273,-325 226.273,-325 226.273,-325 226.273,-268.695 226.273,-268.695"/>
<polygon fill="darkblue" stroke="darkblue" points="229.773,-268.695 226.273,-258.695 222.773,-268.695 229.773,-268.695"/>
</g>
<!-- DFU2&#45;&gt;queue -->
<g id="edge12" class="edge"><title>DFU2&#45;&gt;queue</title>
<path fill="none" stroke="darkblue" d="M235.031,-338.182C235.031,-338.182 235.031,-380.924 235.031,-380.924"/>
<polygon fill="darkblue" stroke="darkblue" points="231.531,-380.923 235.031,-390.924 238.531,-380.924 231.531,-380.923"/>
</g>
<!-- DFU2&#45;&gt;FrameBuf -->
<g id="edge15" class="edge"><title>DFU2&#45;&gt;FrameBuf</title>
<path fill="none" stroke="darkblue" d="M265,-303.105C265,-303.105 265,-268.639 265,-268.639"/>
<polygon fill="darkblue" stroke="darkblue" points="268.5,-268.639 265,-258.639 261.5,-268.639 268.5,-268.639"/>
</g>
<!-- DFU3&#45;&gt;queue -->
<g id="edge13" class="edge"><title>DFU3&#45;&gt;queue</title>
<path fill="none" stroke="darkblue" d="M347.349,-347.501C347.349,-370.413 347.349,-403 347.349,-403 347.349,-403 255.116,-403 255.116,-403"/>
<polygon fill="darkblue" stroke="darkblue" points="255.116,-399.5 245.116,-403 255.116,-406.5 255.116,-399.5"/>
</g>
<!-- DFU3&#45;&gt;FrameBuf -->
<g id="edge16" class="edge"><title>DFU3&#45;&gt;FrameBuf</title>
<path fill="none" stroke="darkblue" d="M323.843,-325C314.387,-325 306.727,-325 306.727,-325 306.727,-325 306.727,-268.695 306.727,-268.695"/>
<polygon fill="darkblue" stroke="darkblue" points="310.227,-268.695 306.727,-258.695 303.227,-268.695 310.227,-268.695"/>
</g>
</g>
</svg>
