<svg xmlns="http://www.w3.org/2000/svg" viewBox="0 0 960 720" fill="none">
<defs>
	<marker orient="auto" id="Out" overflow="visible">
		<path d="M4.6 0l-7 4v-8l7 4z" stroke="#000"/>
	</marker>
</defs>
<g stroke-width=".1" transform="scale(10)">
<g stroke="#993">
	<path d="
		M56 20l13 1
		M56 31L69 24 
		M45 32c4-.3 1.7-1 24-5
		M21 50c65 15 33-13 48-20
		M25 20c1 8 38 -3.6 44 13
	"/>
	<g fill="#eec">
		<ellipse cx="18" cy="37" rx="13" ry="14"/>
		<ellipse cx="22" cy="19.5" rx="4" ry="2"/>
		<ellipse cx="42" cy="19.5" rx="15" ry="3"/>
		<ellipse cx="43" cy="37" rx="8" ry="5"/>
		<ellipse cx="54.5" cy="37" rx="3" ry="7"/>
	</g>
</g>

<g stroke="#000">
	<path fill="#eaa" d="
		M6 44h24v4H6z
		M33 44h24v4H33z
	"/>
	<path fill="#aea" d="
		M19 18h6v3h-6z
		M11 18h6v3h-6z
		M27 18h30v3H27z
	"/>
	<path fill="#eae" d="
		M17 33h6v7h-6z
		M44 33h6v7h-6z
		M36 33h6v7h-6z
		M9 33h6v7H9z
	"/>
	<path fill="#aae" d="
		M33 25h24v4H33z
		M6 25h24v4H6z
		M6 4h51v5H6z
	"/>
	<path fill="#aee" d="
		M27 12H57v4H27z
		M25 31h5v11h-5z
		M52 31h5v11h-5z
	"/>
</g>

<g stroke="#000" marker-end="url(#Out)">
	<path d="M44 9v3"/>
	<path d="M40 12v-3"/>
	<path d="M40 16v2"/>
	<path d="M44 18v-2"/>
	<path d="M27 14h-4v4"/>
	<path d="M21 9v9"/>
	<path d="M23 21v2h12v2"/>
	<path d="M26 14v10h6v8h5v1"/>
	<path d="M37 32h8v1"/>
	<path d="M54 31v-1h-8v3"/>
	<path d="M46 30h-8v3"/>
	<path d="M40 29v4"/>
	<path d="M48 29v4"/>
	<path d="M54 44v-2"/>
	<path d="M47 40v4"/>
	<path d="M39 40v4"/>
	<path d="M34 29v15"/>
	<path d="M35 44V29"/>
	<path d="M27 13H15v5"/>
	<path d="M13 9v9"/>
	<path d="M10 32h8v1"/>
	<path d="M27 31v-1h-8v3"/>
	<path d="M19 30h-8v3"/>
	<path d="M13 29v4"/>
	<path d="M21 29v4"/>
	<path d="M27 44v-2"/>
	<path d="M20 40v4"/>
	<path d="M12 40v4"/>
	<path d="M7 29v15"/>
	<path d="M8 44v-15"/>
	<path d="M13 21v4"/>
	<path d="M15 13H5v19h5v1"/>
	<path d="M55 48v1h3V15h-1"/>
	<path d="M28 48v3h31V13h-2"/>
</g>

<g font-family="Sans" font-size="2" fill="#000">
	<svg x="26.8">
		<text y="33">Q</text>
		<text y="35">u</text>
		<text y="37">e</text>
		<text y="39">u</text> 
		<text y="41">e</text>
	</svg>
	<svg x="53.7">
		<text y="33">Q</text>
		<text y="35">u</text> 
		<text y="37">e</text> 
		<text y="39">u</text> 
		<text y="41">e</text>
	</svg>
	<text x="27.5" y="7">Memory</text>
	<text x="38.5" y="14.5">Queue</text>
	<text x="37" y="20">Optimizer</text>
	<text x="12" y="20">Cull</text>
	<text x="20" y="20">Cull</text>
	<text x="15" y="27.5">Cache</text>
	<text x="42" y="27.5">Cache</text>
	<text x="10" y="37">DFU</text>
	<text x="18" y="37">DFU</text>
	<text x="37" y="37">DFU</text>
	<text x="45" y="37">DFU</text>
	<text x="12" y="47">Control Flow</text>
	<text x="39" y="47">Control Flow</text>
	<text x="70" y="22">Queue optimizer</text>
	<text x="70" y="25">Local queue</text>
	<text x="70" y="28">Lockstepping</text>
	<text x="70" y="31">Multi-Core</text>
	<text x="70" y="34">Ortho-Cull</text>
</g>
</g>
</svg>
