<svg xmlns="http://www.w3.org/2000/svg" viewBox="0 0 960 720" fill="none">
<defs>
	<marker orient="auto" id="Out" overflow="visible">
		<path d="M4.6 0l-7 4v-8l7 4z" stroke="#000"/>
	</marker>
</defs>

<g stroke="#949731">
	<path d="
		M557 305.4L695.8 240 
		M560 195.4l135.6 5.8
		M447.6 314.7c36.8-31 165.5-6.7 248-41.4
		M253.8 203.4c20 37 119 31.3 218.5 33 201 3.7 168.5 79 223.6 101.6
		M207 508c645 151.4 325.8-130.6 488.6-196
	"/>
	<g fill="#ebecc6">
		<ellipse cx="180" cy="370" rx="130" ry="140"/>
		<ellipse cx="220" cy="195" rx="35" ry="25"/>
		<ellipse cx="420" cy="195" rx="150" ry="25"/>
		<ellipse cx="430" cy="370" rx="80" ry="55"/>
		<ellipse cx="545" cy="370" rx="30" ry="70"/>
	</g>
</g>

<g stroke="#000">
	<path fill="#eaa" d="
		M60 446h240v34H60z
		M330 446h240v34H330z
	"/>
	<path fill="#aea" d="
		M190 175h60v40h-60z
		M110 175h60v40h-60z
		M270 180h300v30H270z
	"/>
	<path fill="#eae" d="
		M170 330h60v74h-60z
		M440 330h60v74h-60z
		M360 330h60v74h-60z
		M90 330h60v74H90z
	"/>
	<path fill="#aae" d="
		M330 250h240v40H330z
		M60 250h240v40H60z
		M60 40h510v50H60z
	"/>
	<path fill="#aee" d="
		M270 120H570v40H270z
		M250 310h50v114h-50z
		M520 310h50v114h-50z
	"/>
</g>

<g stroke="#000" marker-end="url(#Out)">
	<path d="M440 90v30"/>
	<path d="M400 120v-30"/>
	<path d="M400 160v20"/>
	<path d="M440 180v-20"/>
	<path d="M270 140h-40v35"/>
	<path d="M210 90v85"/>
	<path d="M230 215v15h120v20"/>
	<path d="M260 140v100h60v80h55v10"/>
	<path d="M375 320h80v10"/>
	<path d="M545 310v-10h-75v30"/>
	<path d="M470 300h-80v30"/>
	<path d="M405 290v40"/>
	<path d="M485 290v40"/>
	<path d="M545 445v-20"/>
	<path d="M470 405v40"/>
	<path d="M390 405v40"/>
	<path d="M340 290v155"/>
	<path d="M350 445V290"/>
	<path d="M270 130H150v45"/>
	<path d="M130 90v85"/>
	<path d="M105 320h80v10"/>
	<path d="M275 310v-10h-75v30"/>
	<path d="M200 300h-80v30"/>
	<path d="M135 290v40"/>
	<path d="M215 290v40"/>
	<path d="M275 445v-20"/>
	<path d="M200 405v40"/>
	<path d="M120 405v40"/>
	<path d="M70 290v155"/>
	<path d="M80 445v-155"/>
	<path d="M130 215v35"/>
	<path d="M150 130H50v190h55v10"/>
	<path d="M555 480v15h30V150h-15"/>
	<path d="M285 480v30h315V130h-30"/>
</g>

<g font-family="Sans" font-size="20" fill="#000">
	<svg x="268">
		<text y="335">Q</text>
		<text y="355">u</text>
		<text y="375">e</text>
		<text y="395">u</text> 
		<text y="415">e</text>
	</svg>
	<svg x="537">
		<text y="335">Q</text>
		<text y="355">u</text> 
		<text y="375">e</text> 
		<text y="395">u</text> 
		<text y="415">e</text>
	</svg>
	<text x="275" y="70">Memory</text>
	<text x="385" y="145">Queue</text>
	<text x="370" y="200">Optimizer</text>
	<text x="120" y="200">Cull</text>
	<text x="200" y="200">Cull</text>
	<text x="150" y="275">Cache</text>
	<text x="420" y="275">Cache</text>
	<text x="100" y="375">DFU</text>
	<text x="180" y="375">DFU</text>
	<text x="370" y="375">DFU</text>
	<text x="450" y="375">DFU</text>
	<text x="120" y="470">Control Flow</text>
	<text x="390" y="470">Control Flow</text>
	<text x="700" y="340">Ortho-Cull</text>
	<text x="700" y="310">Multi-Core</text>
	<text x="700" y="280">Lockstepping</text>
	<text x="700" y="250">Local queue</text>
	<text x="700" y="220">Queue optimizer</text>
</g>
</svg>
