<?xml version="1.0" encoding="utf-8"?>
<svg viewBox="-23 167 500 328" xmlns="http://www.w3.org/2000/svg" xmlns:bx="https://boxy-svg.com">
  <defs>
    <radialGradient id="gradient-1" gradientUnits="userSpaceOnUse" cx="240.339" cy="243.238" r="106.267" spreadMethod="pad" gradientTransform="matrix(2.188574, 0, 0, 2.145054, -494.468075, -276.031064)">
      <stop offset="0" style="stop-color: rgba(145, 189, 3, 1)"/>
      <stop offset="1" style="stop-color: rgba(68, 88, 1, 1)"/>
    </radialGradient>
    <radialGradient id="gradient-5" gradientUnits="userSpaceOnUse" cx="240.339" cy="243.238" r="106.267" gradientTransform="matrix(2.188574, 0, 0, 2.145054, -494.468075, -276.031064)">
      <stop offset="0" style="stop-color: rgb(255, 227, 43);"/>
      <stop offset="1" style="stop-color: rgb(255, 255, 255);"/>
    </radialGradient>
    <style id="bx-google-fonts">@import url(https://fonts.googleapis.com/css?family=Roboto:100,100italic,300,300italic,400,400italic,500,500italic,700,700italic,900,900italic);</style>
    <radialGradient id="gradient-2" gradientUnits="userSpaceOnUse" cx="240.339" cy="243.238" r="106.267" gradientTransform="matrix(0.970256, 0, 0, 0.950963, 11.806563, 105.034485)">
      <stop offset="0" style="stop-color: rgb(255, 227, 43);"/>
      <stop offset="1" style="stop-color: rgb(255, 255, 255);"/>
    </radialGradient>
    <radialGradient id="gradient-3" gradientUnits="userSpaceOnUse" cx="240.339" cy="243.238" r="106.267" spreadMethod="pad" gradientTransform="matrix(0.970256, 0, 0, 0.950963, 11.806563, 105.034485)">
      <stop offset="0" style="stop-color: rgba(145, 189, 3, 1)"/>
      <stop offset="1" style="stop-color: rgba(68, 88, 1, 1)"/>
    </radialGradient>
    <radialGradient id="gradient-4" gradientUnits="userSpaceOnUse" cx="240.339" cy="243.238" r="106.267" gradientTransform="matrix(0.55715, 0, 0, 0.546071, 207.626782, 238.089976)">
      <stop offset="0" style="stop-color: rgb(255, 227, 43);"/>
      <stop offset="1" style="stop-color: rgb(255, 255, 255);"/>
    </radialGradient>
    <radialGradient id="gradient-6" gradientUnits="userSpaceOnUse" cx="240.339" cy="243.238" r="106.267" spreadMethod="pad" gradientTransform="matrix(0.55715, 0, 0, 0.546071, 207.626782, 238.089976)">
      <stop offset="0" style="stop-color: rgba(145, 189, 3, 1)"/>
      <stop offset="1" style="stop-color: rgba(68, 88, 1, 1)"/>
    </radialGradient>
    <radialGradient id="gradient-7" gradientUnits="userSpaceOnUse" cx="240.339" cy="243.238" r="106.267" gradientTransform="matrix(0.345138, 0, 0, 0.338275, 310.520701, 309.990957)">
      <stop offset="0" style="stop-color: rgb(255, 227, 43);"/>
      <stop offset="1" style="stop-color: rgb(255, 255, 255);"/>
    </radialGradient>
    <radialGradient id="gradient-8" gradientUnits="userSpaceOnUse" cx="240.339" cy="243.238" r="106.267" spreadMethod="pad" gradientTransform="matrix(0.345138, 0, 0, 0.338275, 310.520701, 309.990957)">
      <stop offset="0" style="stop-color: rgba(145, 189, 3, 1)"/>
      <stop offset="1" style="stop-color: rgba(68, 88, 1, 1)"/>
    </radialGradient>
  </defs>
  <ellipse cx="393.472" cy="392.273" rx="36.677" ry="35.947" style="stroke: url(#gradient-8); fill: url(#gradient-7);"/>
  <ellipse cx="341.533" cy="370.915" rx="59.207" ry="58.029" style="stroke: url(#gradient-6); fill: url(#gradient-4);"/>
  <ellipse cx="244.997" cy="336.344" rx="103.105" ry="101.056" style="stroke: url(#gradient-3); fill: url(#gradient-2);"/>
  <ellipse cx="31.532" cy="245.726" rx="232.571" ry="227.949" style="stroke: url(#gradient-1); fill: url(#gradient-5);"/>
  <path d="M 205.561 265.457 Z" style="stroke: black; fill: none;"/>
  <path d="M 300.235 262.559 Z" style="stroke: black; fill: none;"/>
  <text x="86.87" y="241.223" style="font-size: 17.2px; white-space: pre;" transform="matrix(0.993836, 0, 0, 0.999999, 141.915421, 73.276588)" bx:origin="9.114 1.838">p</text>
  <text x="95.248" y="251.846" style="font-size: 12.9px; white-space: pre;" transform="matrix(0.993836, 0, 0, 0.999999, 141.915451, 73.276649)" bx:origin="10.988 1.494">1</text>
  <text x="223.784" y="321.793" style="font-size: 12.9px; white-space: pre;" transform="matrix(0.993836, 0, 0, 1, 97.187813, 69.79454)" bx:origin="2.567 -2.446">2</text>
  <text x="186.448" y="272.646" style="font-size: 17.2px; white-space: pre;" transform="matrix(0.993838, 0, 0, 1, 125.967987, 108.319351)" bx:origin="2.796 -1.145">p</text>
  <path style="fill: none; stroke: black;"/>
  <path d="M 25.043 267.878 C 43.248 292.636 3.741 240.927 2.061 238.642 C 4.903 238.483 64.356 235.098 37.69 236.536 C 41.539 251.382 37.14 261.829 25.043 267.878 Z" style="fill: none; stroke: black;"/>
  <path d="M 30.423 265.032 C 30.671 266.351 20.284 265.056 23.272 253.111 C 26.26 241.166 40.73 238.631 38.291 245.289" style="fill: none; stroke: black;" transform="matrix(0.998115, 0.061368, -0.061368, 0.998115, 15.552359, -1.39626)"/>
  <path d="M 40.428 248.034 C 36.973 243.242 22.582 252.455 26.912 261.127 C 29.429 266.17 37.773 259.803 40.428 248.034 Z" style="stroke: black;" transform="matrix(0.985853, -0.16761, 0.16761, 0.985853, -42.245613, 8.88379)"/>
  <rect x="137.006" y="426.433" width="376.809" height="114.826" style="fill: rgb(37, 37, 37);" rx="32.209" ry="32.209" transform="matrix(0.989323, 0.14574, -0.373105, 0.955829, 179.550019, -2.836899)"/>
  <path d="M 332.545 241.154 Q 341.187 169.266 403.961 241.154 L 510.909 363.629 Q 573.683 435.516 502.268 435.516 L 380.597 435.516 Q 309.182 435.516 317.823 363.629 Z" style="fill: rgb(37, 37, 37);" transform="matrix(0.982918, 0.184043, -0.184043, 0.982918, 77.068689, -225.447591)" bx:shape="triangle 309.182 169.266 264.501 266.25 0.121 0.27 1@e3db3beb"/>
  <path d="M 461.227 377.208 Q 473.981 366.336 486.735 377.208 L 521.962 407.234 Q 534.716 418.106 529.845 435.697 L 516.389 484.28 Q 511.518 501.871 495.752 501.871 L 452.21 501.871 Q 436.444 501.871 431.573 484.28 L 418.117 435.697 Q 413.246 418.106 426 407.234 Z" style="fill: rgb(37, 37, 37);" transform="matrix(0.852194, 0.523225, -0.523226, 0.852194, 297.633192, -179.667158)" bx:shape="n-gon 473.981 441.258 63.861 74.922 5 0.21 1@21ee949f" bx:origin="0.491 0.488"/>
  <path d="M 392.427 184.114 L 416.033 226.599 L 456.874 251.154 L 416.033 275.709 L 392.427 318.194 L 368.821 275.709 L 327.98 251.154 L 368.821 226.599 Z" style="fill: rgb(37, 37, 37);" transform="matrix(0.967231, 0.253899, -0.2539, 0.96723, 70.383042, -87.314138)" bx:shape="star 392.427 251.154 64.447 67.04 0.518 4 1@d7a6b993"/>
  <path d="M 37.382 254.963 L 427.066 405.437" style="fill: none; stroke: rgb(255, 68, 0); stroke-width: 2;"/>
  <text x="126.232" y="151.707" style="font-size: 9px; white-space: pre;" transform="matrix(1.423223, 0, 0, 1.432047, 205.559799, 165.805374)" bx:origin="-9.339 -2.741">3</text>
  <text x="68.337" y="60.617" style="font-size: 12px; white-space: pre;" transform="matrix(1.423218, 0, 0, 1.432047, 279.632996, 285.628265)" bx:origin="-6.145 -1.365">p</text>
  <ellipse cx="396.17" cy="393.739" rx="6.874" ry="6.917" style="fill: rgb(216, 216, 216);" bx:origin="-5.673 -1.853"/>
  <ellipse cx="305.232" cy="166.013" rx="6.874" ry="6.917" style="fill: rgb(216, 216, 216);" transform="matrix(1, 0, 0, 0.999998, 36.30368, 205.95755)" bx:origin="0.246 -1.713"/>
  <ellipse cx="246.703" cy="335.008" rx="6.874" ry="6.917" style="fill: rgb(216, 216, 216);" bx:origin="5.281 3.878"/>
  <path d="M 363.473 274.108" style="fill: none; stroke: black;"/>
  <path d="M 69.651 329.462 L 73.642 341.214 L 77.633 352.965 L 69.651 352.965 L 61.669 352.965 L 65.66 341.214 Z" transform="matrix(-0.375233, 0.92693, -0.941572, -0.339063, 425.50158, 321.77831)" style="stroke: rgb(119, 119, 119); fill: rgb(80, 79, 79);" bx:shape="star 69.651 345.131 9.217 15.669 0.5 3 1@89538cbb"/>
  <path d="M 96.697 300.908" style="fill: none; stroke: black;"/>
  <path d="M 67.19 266.617 L 36.616 255.23" style="stroke-width: 3; stroke: rgb(119, 119, 119); fill: rgb(80, 79, 79);" transform="matrix(0.999762, 0.021815, -0.021815, 0.999762, 5.704398, -1.070171)"/>
  <text x="86.87" y="241.223" transform="matrix(0.993836, 0, 0, 0.999999, -4.477798, 7.924928)" style="font-size: 17.2px; font-style: italic; white-space: pre;" bx:origin="9.114 1.838">d</text>
  <text x="95.248" y="251.846" transform="matrix(1.382989, 0, 0, 0.999999, -52.400181, -9.941988)" style="font-size: 12.9px; font-style: italic; white-space: pre;" bx:origin="10.988 1.494">⃗ </text>
</svg>