<?xml version="1.0" encoding="UTF-8" standalone="no"?>
<!DOCTYPE svg PUBLIC "-//W3C//DTD SVG 1.1//EN"
 "http://www.w3.org/Graphics/SVG/1.1/DTD/svg11.dtd">
<!-- Generated by graphviz version 2.38.0 (20140413.2041)
 -->
<!-- Title: GPU Pages: 1 -->
<svg width="440pt" height="469pt"
 viewBox="0.00 0.00 440.00 469.00" xmlns="http://www.w3.org/2000/svg" xmlns:xlink="http://www.w3.org/1999/xlink">
<g id="graph0" class="graph" transform="scale(1 1) rotate(0) translate(0 469)">
<title>GPU</title>
<g id="clust7" class="cluster"><title>cluster_core2</title>
<polygon fill="lightgrey" stroke="lightgrey" points="268,-307.5 268,-385.5 338,-385.5 338,-307.5 268,-307.5"/>
<text text-anchor="middle" x="303" y="-368.7" font-family="Times New Roman,serif" font-size="16.00">Core #2</text>
</g>
<g id="clust8" class="cluster"><title>cluster_core3</title>
<polygon fill="lightgrey" stroke="lightgrey" points="362,-307.5 362,-385.5 432,-385.5 432,-307.5 362,-307.5"/>
<text text-anchor="middle" x="397" y="-368.7" font-family="Times New Roman,serif" font-size="16.00">Core..</text>
</g>
<g id="clust2" class="cluster"><title>cluster_core1</title>
<polygon fill="lightgrey" stroke="lightgrey" points="8,-8 8,-425 252,-425 252,-8 8,-8"/>
<text text-anchor="middle" x="130" y="-408.2" font-family="Times New Roman,serif" font-size="16.00">Core #1</text>
</g>
<g id="clust3" class="cluster"><title>cluster_core1_ROM</title>
<polygon fill="none" stroke="darkgreen" points="16,-16 16,-188 194,-188 194,-16 16,-16"/>
<text text-anchor="middle" x="105" y="-171.2" font-family="Times New Roman,serif" font-size="16.00">ROM</text>
</g>
<g id="clust5" class="cluster"><title>cluster_DFU</title>
<polygon fill="none" stroke="darkgreen" points="16,-196 16,-391 244,-391 244,-196 16,-196"/>
<text text-anchor="middle" x="130" y="-374.2" font-family="Times New Roman,serif" font-size="16.00">DFU</text>
</g>
<!-- queue -->
<g id="node1" class="node"><title>queue</title>
<polygon fill="none" stroke="black" points="307.5,-469 200.5,-469 196.5,-465 196.5,-433 303.5,-433 307.5,-437 307.5,-469"/>
<polyline fill="none" stroke="black" points="303.5,-465 196.5,-465 "/>
<polyline fill="none" stroke="black" points="303.5,-465 303.5,-433 "/>
<polyline fill="none" stroke="black" points="303.5,-465 307.5,-469 "/>
<text text-anchor="middle" x="252" y="-447.3" font-family="Times New Roman,serif" font-size="14.00">Storage Manager</text>
</g>
<!-- reg -->
<g id="node5" class="node"><title>reg</title>
<polygon fill="none" stroke="black" points="24,-310.5 24,-356.5 126,-356.5 126,-310.5 24,-310.5"/>
<text text-anchor="middle" x="75" y="-341.3" font-family="Times New Roman,serif" font-size="14.00">Registers (32b)</text>
<polyline fill="none" stroke="black" points="24,-333.5 126,-333.5 "/>
<text text-anchor="middle" x="39" y="-318.3" font-family="Times New Roman,serif" font-size="14.00">0</text>
<polyline fill="none" stroke="black" points="54,-310.5 54,-333.5 "/>
<text text-anchor="middle" x="71.5" y="-318.3" font-family="Times New Roman,serif" font-size="14.00">...</text>
<polyline fill="none" stroke="black" points="89,-310.5 89,-333.5 "/>
<text text-anchor="middle" x="107.5" y="-318.3" font-family="Times New Roman,serif" font-size="14.00">15</text>
</g>
<!-- queue&#45;&gt;reg -->
<g id="edge9" class="edge"><title>queue&#45;&gt;reg</title>
<path fill="none" stroke="darkblue" d="M196.482,-451C144.573,-451 75,-451 75,-451 75,-451 75,-366.714 75,-366.714"/>
<polygon fill="darkblue" stroke="darkblue" points="78.5001,-366.714 75,-356.714 71.5001,-366.714 78.5001,-366.714"/>
</g>
<!-- DFU2 -->
<g id="node7" class="node"><title>DFU2</title>
<polygon fill="none" stroke="black" points="330,-351.5 276,-351.5 276,-315.5 330,-315.5 330,-351.5"/>
<text text-anchor="middle" x="303" y="-329.8" font-family="Times New Roman,serif" font-size="14.00">DFU</text>
</g>
<!-- queue&#45;&gt;DFU2 -->
<g id="edge10" class="edge"><title>queue&#45;&gt;DFU2</title>
<path fill="none" stroke="darkblue" d="M286.5,-432.898C286.5,-432.898 286.5,-361.816 286.5,-361.816"/>
<polygon fill="darkblue" stroke="darkblue" points="290,-361.816 286.5,-351.816 283,-361.816 290,-361.816"/>
</g>
<!-- DFU3 -->
<g id="node8" class="node"><title>DFU3</title>
<polygon fill="none" stroke="black" points="424,-351.5 370,-351.5 370,-315.5 424,-315.5 424,-351.5"/>
<text text-anchor="middle" x="397" y="-329.8" font-family="Times New Roman,serif" font-size="14.00">DFU</text>
</g>
<!-- queue&#45;&gt;DFU3 -->
<g id="edge11" class="edge"><title>queue&#45;&gt;DFU3</title>
<path fill="none" stroke="darkblue" d="M307.598,-457C351.709,-457 406,-457 406,-457 406,-457 406,-361.723 406,-361.723"/>
<polygon fill="darkblue" stroke="darkblue" points="409.5,-361.723 406,-351.723 402.5,-361.723 409.5,-361.723"/>
</g>
<!-- data -->
<g id="node2" class="node"><title>data</title>
<polygon fill="none" stroke="black" points="41.5,-24.5 41.5,-70.5 168.5,-70.5 168.5,-24.5 41.5,-24.5"/>
<text text-anchor="middle" x="105" y="-55.3" font-family="Times New Roman,serif" font-size="14.00">Data Memory (32b)</text>
<polyline fill="none" stroke="black" points="41.5,-47.5 168.5,-47.5 "/>
<text text-anchor="middle" x="59.5" y="-32.3" font-family="Times New Roman,serif" font-size="14.00">0</text>
<polyline fill="none" stroke="black" points="77.5,-24.5 77.5,-47.5 "/>
<text text-anchor="middle" x="98" y="-32.3" font-family="Times New Roman,serif" font-size="14.00">...</text>
<polyline fill="none" stroke="black" points="118.5,-24.5 118.5,-47.5 "/>
<text text-anchor="middle" x="143.5" y="-32.3" font-family="Times New Roman,serif" font-size="14.00">511</text>
</g>
<!-- ALU -->
<g id="node6" class="node"><title>ALU</title>
<polygon fill="black" stroke="black" points="231.913,-326.044 231.913,-340.956 213.804,-351.5 188.196,-351.5 170.087,-340.956 170.087,-326.044 188.196,-315.5 213.804,-315.5 231.913,-326.044"/>
<polygon fill="none" stroke="black" points="235.907,-323.743 235.907,-343.257 214.882,-355.5 187.118,-355.5 166.093,-343.257 166.093,-323.743 187.118,-311.5 214.882,-311.5 235.907,-323.743"/>
<text text-anchor="middle" x="201" y="-329.8" font-family="Times New Roman,serif" font-size="14.00" fill="white">ALU</text>
</g>
<!-- data&#45;&gt;ALU -->
<g id="edge8" class="edge"><title>data&#45;&gt;ALU</title>
<path fill="none" stroke="darkblue" d="M168.637,-47C191.028,-47 210.727,-47 210.727,-47 210.727,-47 210.727,-301.495 210.727,-301.495"/>
<polygon fill="darkblue" stroke="darkblue" points="207.227,-301.495 210.727,-311.495 214.227,-301.495 207.227,-301.495"/>
</g>
<!-- instr -->
<g id="node3" class="node"><title>instr</title>
<polygon fill="none" stroke="black" points="24.5,-107.5 24.5,-153.5 185.5,-153.5 185.5,-107.5 24.5,-107.5"/>
<text text-anchor="middle" x="105" y="-138.3" font-family="Times New Roman,serif" font-size="14.00">Instruction Memory (16b)</text>
<polyline fill="none" stroke="black" points="24.5,-130.5 185.5,-130.5 "/>
<text text-anchor="middle" x="48" y="-115.3" font-family="Times New Roman,serif" font-size="14.00">0</text>
<polyline fill="none" stroke="black" points="71.5,-107.5 71.5,-130.5 "/>
<text text-anchor="middle" x="97.5" y="-115.3" font-family="Times New Roman,serif" font-size="14.00">...</text>
<polyline fill="none" stroke="black" points="123.5,-107.5 123.5,-130.5 "/>
<text text-anchor="middle" x="154.5" y="-115.3" font-family="Times New Roman,serif" font-size="14.00">511</text>
</g>
<!-- instr&#45;&gt;data -->
<!-- instr&#45;&gt;ALU -->
<g id="edge7" class="edge"><title>instr&#45;&gt;ALU</title>
<path fill="none" stroke="darkblue" d="M179.015,-153.787C179.015,-153.787 179.015,-306.08 179.015,-306.08"/>
<polygon fill="darkblue" stroke="darkblue" points="175.516,-306.08 179.015,-316.08 182.516,-306.08 175.516,-306.08"/>
</g>
<!-- stack -->
<g id="node4" class="node"><title>stack</title>
<polygon fill="none" stroke="black" points="24,-204.5 24,-273.5 136,-273.5 136,-204.5 24,-204.5"/>
<text text-anchor="middle" x="65" y="-235.3" font-family="Times New Roman,serif" font-size="14.00">Stack (32b)</text>
<polyline fill="none" stroke="black" points="106,-204.5 106,-273.5 "/>
<text text-anchor="middle" x="121" y="-258.3" font-family="Times New Roman,serif" font-size="14.00">15</text>
<polyline fill="none" stroke="black" points="106,-250.5 136,-250.5 "/>
<text text-anchor="middle" x="121" y="-235.3" font-family="Times New Roman,serif" font-size="14.00">...</text>
<polyline fill="none" stroke="black" points="106,-227.5 136,-227.5 "/>
<text text-anchor="middle" x="121" y="-212.3" font-family="Times New Roman,serif" font-size="14.00">0</text>
</g>
<!-- stack&#45;&gt;instr -->
<!-- stack&#45;&gt;ALU -->
<g id="edge6" class="edge"><title>stack&#45;&gt;ALU</title>
<path fill="none" stroke="darkblue" d="M146.226,-270C146.226,-270 172.531,-270 172.531,-270 172.531,-270 172.531,-309.721 172.531,-309.721"/>
<polygon fill="darkblue" stroke="darkblue" points="146.226,-266.5 136.226,-270 146.226,-273.5 146.226,-266.5"/>
<polygon fill="darkblue" stroke="darkblue" points="169.031,-309.721 172.531,-319.721 176.031,-309.721 169.031,-309.721"/>
</g>
<!-- reg&#45;&gt;stack -->
<!-- reg&#45;&gt;stack -->
<!-- reg&#45;&gt;ALU -->
<g id="edge5" class="edge"><title>reg&#45;&gt;ALU</title>
<path fill="none" stroke="darkblue" d="M134.749,-333C134.749,-333 157.486,-333 157.486,-333"/>
<polygon fill="darkblue" stroke="darkblue" points="157.486,-335.975 165.986,-333 157.486,-330.025 157.486,-335.975"/>
<polygon fill="darkblue" stroke="darkblue" points="134.749,-330.025 126.249,-333 134.749,-335.975 134.749,-330.025"/>
</g>
<!-- ALU&#45;&gt;queue -->
<g id="edge12" class="edge"><title>ALU&#45;&gt;queue</title>
<path fill="none" stroke="darkblue" d="M216.227,-354.778C216.227,-354.778 216.227,-422.959 216.227,-422.959"/>
<polygon fill="darkblue" stroke="darkblue" points="212.727,-422.959 216.227,-432.959 219.727,-422.959 212.727,-422.959"/>
</g>
<!-- FrameBuf -->
<!-- ALU&#45;&gt;FrameBuf -->
<g id="edge15" class="edge"><title>ALU&#45;&gt;FrameBuf</title>
<path fill="none" stroke="darkblue" d="M236.201,-333C252.472,-333 268.25,-333 268.25,-333 268.25,-333 268.25,-276.695 268.25,-276.695"/>
<polygon fill="darkblue" stroke="darkblue" points="271.75,-276.695 268.25,-266.695 264.75,-276.695 271.75,-276.695"/>
</g>
<!-- DFU2&#45;&gt;queue -->
<g id="edge13" class="edge"><title>DFU2&#45;&gt;queue</title>
<path fill="none" stroke="darkblue" d="M297,-351.602C297,-351.602 297,-422.684 297,-422.684"/>
<polygon fill="darkblue" stroke="darkblue" points="293.5,-422.684 297,-432.684 300.5,-422.684 293.5,-422.684"/>
</g>
<!-- DFU2&#45;&gt;FrameBuf -->
<g id="edge16" class="edge"><title>DFU2&#45;&gt;FrameBuf</title>
<path fill="none" stroke="darkblue" d="M303,-315.279C303,-315.279 303,-276.842 303,-276.842"/>
<polygon fill="darkblue" stroke="darkblue" points="306.5,-276.842 303,-266.842 299.5,-276.842 306.5,-276.842"/>
</g>
<!-- DFU3&#45;&gt;queue -->
<g id="edge14" class="edge"><title>DFU3&#45;&gt;queue</title>
<path fill="none" stroke="darkblue" d="M388,-351.912C388,-383.581 388,-445 388,-445 388,-445 317.709,-445 317.709,-445"/>
<polygon fill="darkblue" stroke="darkblue" points="317.709,-441.5 307.709,-445 317.709,-448.5 317.709,-441.5"/>
</g>
<!-- DFU3&#45;&gt;FrameBuf -->
<g id="edge17" class="edge"><title>DFU3&#45;&gt;FrameBuf</title>
<path fill="none" stroke="darkblue" d="M369.864,-333C355.479,-333 340.75,-333 340.75,-333 340.75,-333 340.75,-276.695 340.75,-276.695"/>
<polygon fill="darkblue" stroke="darkblue" points="344.25,-276.695 340.75,-266.695 337.25,-276.695 344.25,-276.695"/>
</g>
</g>
</svg>
