<?xml version="1.0" encoding="UTF-8" standalone="no"?>
<svg
   xmlns:dc="http://purl.org/dc/elements/1.1/"
   xmlns:cc="http://creativecommons.org/ns#"
   xmlns:rdf="http://www.w3.org/1999/02/22-rdf-syntax-ns#"
   xmlns:svg="http://www.w3.org/2000/svg"
   xmlns="http://www.w3.org/2000/svg"
   xmlns:sodipodi="http://sodipodi.sourceforge.net/DTD/sodipodi-0.dtd"
   xmlns:inkscape="http://www.inkscape.org/namespaces/inkscape"
   version="1.1"
   viewBox="0.0 0.0 960.0 720.0"
   fill="none"
   stroke="none"
   stroke-linecap="square"
   stroke-miterlimit="10"
   id="svg3760"
   inkscape:version="0.48.4 r9939"
   width="100%"
   height="100%"
   sodipodi:docname="hardware beta.svg">
  <metadata
     id="metadata4013">
    <rdf:RDF>
      <cc:Work
         rdf:about="">
        <dc:format>image/svg+xml</dc:format>
        <dc:type
           rdf:resource="http://purl.org/dc/dcmitype/StillImage" />
      </cc:Work>
    </rdf:RDF>
  </metadata>
  <defs
     id="defs4011">
    <marker
       inkscape:stockid="TriangleInM"
       orient="auto"
       refY="0.0"
       refX="0.0"
       id="TriangleInM"
       style="overflow:visible">
      <path
         id="path4948"
         d="M 5.77,0.0 L -2.88,5.0 L -2.88,-5.0 L 5.77,0.0 z "
         style="fill-rule:evenodd;stroke:#000000;stroke-width:1.0pt"
         transform="scale(-0.4)" />
    </marker>
    <marker
       inkscape:stockid="DiamondL"
       orient="auto"
       refY="0.0"
       refX="0.0"
       id="DiamondL"
       style="overflow:visible">
      <path
         id="path4891"
         d="M 0,-7.0710768 L -7.0710894,0 L 0,7.0710589 L 7.0710462,0 L 0,-7.0710768 z "
         style="fill-rule:evenodd;stroke:#000000;stroke-width:1.0pt"
         transform="scale(0.8)" />
    </marker>
    <marker
       inkscape:stockid="Tail"
       orient="auto"
       refY="0.0"
       refX="0.0"
       id="Tail"
       style="overflow:visible">
      <g
         id="g4848"
         transform="scale(-1.2)">
        <path
           id="path4850"
           d="M -3.8048674,-3.9585227 L 0.54352094,0"
           style="fill:none;fill-rule:evenodd;stroke:#000000;stroke-width:0.8;stroke-linecap:round" />
        <path
           id="path4852"
           d="M -1.2866832,-3.9585227 L 3.0617053,0"
           style="fill:none;fill-rule:evenodd;stroke:#000000;stroke-width:0.8;stroke-linecap:round" />
        <path
           id="path4854"
           d="M 1.3053582,-3.9585227 L 5.6537466,0"
           style="fill:none;fill-rule:evenodd;stroke:#000000;stroke-width:0.8;stroke-linecap:round" />
        <path
           id="path4856"
           d="M -3.8048674,4.1775838 L 0.54352094,0.21974226"
           style="fill:none;fill-rule:evenodd;stroke:#000000;stroke-width:0.8;stroke-linecap:round" />
        <path
           id="path4858"
           d="M -1.2866832,4.1775838 L 3.0617053,0.21974226"
           style="fill:none;fill-rule:evenodd;stroke:#000000;stroke-width:0.8;stroke-linecap:round" />
        <path
           id="path4860"
           d="M 1.3053582,4.1775838 L 5.6537466,0.21974226"
           style="fill:none;fill-rule:evenodd;stroke:#000000;stroke-width:0.8;stroke-linecap:round" />
      </g>
    </marker>
    <marker
       inkscape:stockid="Arrow1Mstart"
       orient="auto"
       refY="0.0"
       refX="0.0"
       id="Arrow1Mstart"
       style="overflow:visible">
      <path
         id="path4818"
         d="M 0.0,0.0 L 5.0,-5.0 L -12.5,0.0 L 5.0,5.0 L 0.0,0.0 z "
         style="fill-rule:evenodd;stroke:#000000;stroke-width:1.0pt"
         transform="scale(0.4) translate(10,0)" />
    </marker>
    <marker
       inkscape:stockid="TriangleOutL"
       orient="auto"
       refY="0.0"
       refX="0.0"
       id="TriangleOutL"
       style="overflow:visible">
      <path
         id="path4954"
         d="M 5.77,0.0 L -2.88,5.0 L -2.88,-5.0 L 5.77,0.0 z "
         style="fill-rule:evenodd;stroke:#000000;stroke-width:1.0pt"
         transform="scale(0.8)" />
    </marker>
    <marker
       inkscape:stockid="TriangleInL"
       orient="auto"
       refY="0.0"
       refX="0.0"
       id="TriangleInL"
       style="overflow:visible">
      <path
         id="path4945"
         d="M 5.77,0.0 L -2.88,5.0 L -2.88,-5.0 L 5.77,0.0 z "
         style="fill-rule:evenodd;stroke:#000000;stroke-width:1.0pt"
         transform="scale(-0.8)" />
    </marker>
    <marker
       inkscape:stockid="Arrow2Lstart"
       orient="auto"
       refY="0.0"
       refX="0.0"
       id="Arrow2Lstart"
       style="overflow:visible">
      <path
         id="path4830"
         style="fill-rule:evenodd;stroke-width:0.62500000;stroke-linejoin:round"
         d="M 8.7185878,4.0337352 L -2.2072895,0.016013256 L 8.7185884,-4.0017078 C 6.9730900,-1.6296469 6.9831476,1.6157441 8.7185878,4.0337352 z "
         transform="scale(1.1) translate(1,0)" />
    </marker>
    <marker
       inkscape:stockid="Arrow2Lend"
       orient="auto"
       refY="0.0"
       refX="0.0"
       id="Arrow2Lend"
       style="overflow:visible;">
      <path
         id="path4833"
         style="fill-rule:evenodd;stroke-width:0.62500000;stroke-linejoin:round;"
         d="M 8.7185878,4.0337352 L -2.2072895,0.016013256 L 8.7185884,-4.0017078 C 6.9730900,-1.6296469 6.9831476,1.6157441 8.7185878,4.0337352 z "
         transform="scale(1.1) rotate(180) translate(1,0)" />
    </marker>
    <marker
       inkscape:stockid="Arrow1Lend"
       orient="auto"
       refY="0.0"
       refX="0.0"
       id="Arrow1Lend"
       style="overflow:visible;">
      <path
         id="path4815"
         d="M 0.0,0.0 L 5.0,-5.0 L -12.5,0.0 L 5.0,5.0 L 0.0,0.0 z "
         style="fill-rule:evenodd;stroke:#000000;stroke-width:1.0pt;"
         transform="scale(0.8) rotate(180) translate(12.5,0)" />
    </marker>
    <marker
       inkscape:stockid="Arrow1Lstart"
       orient="auto"
       refY="0.0"
       refX="0.0"
       id="Arrow1Lstart"
       style="overflow:visible">
      <path
         id="path4812"
         d="M 0.0,0.0 L 5.0,-5.0 L -12.5,0.0 L 5.0,5.0 L 0.0,0.0 z "
         style="fill-rule:evenodd;stroke:#000000;stroke-width:1.0pt"
         transform="scale(0.8) translate(12.5,0)" />
    </marker>
    <marker
       markerWidth="8.7265619"
       markerHeight="7.5700296"
       orient="auto"
       id="marker10301">
      <path
         inkscape:label="#path10299"
         transform="matrix(0.8411144,0,0,0.8411144,-298.59561,-63.08358)"
         inkscape:transform-center-y="-1.0513934"
         d="m 355,70 4.33013,7.5 -8.66026,0 z"
         inkscape:randomized="0"
         inkscape:rounded="0"
         inkscape:flatsided="true"
         sodipodi:arg2="-0.52359878"
         sodipodi:arg1="-1.5707963"
         sodipodi:r2="2.5"
         sodipodi:r1="5"
         sodipodi:cy="75"
         sodipodi:cx="355"
         sodipodi:sides="3"
         id="UpArrow"
         style="fill:#000000;fill-opacity:1;fill-rule:nonzero;stroke:#000000;stroke-width:1;stroke-linecap:butt;stroke-miterlimit:100;stroke-opacity:1;stroke-dasharray:none"
         sodipodi:type="star" />
    </marker>
    <marker
       inkscape:stockid="TriangleOutL"
       orient="auto"
       refY="0"
       refX="0"
       id="TriangleOutL-3"
       style="overflow:visible">
      <path
         inkscape:connector-curvature="0"
         id="path4954-6"
         d="m 5.77,0 -8.65,5 0,-10 8.65,5 z"
         style="fill-rule:evenodd;stroke:#000000;stroke-width:1pt"
         transform="scale(0.8,0.8)" />
    </marker>
    <marker
       inkscape:stockid="TriangleOutL"
       orient="auto"
       refY="0"
       refX="0"
       id="marker23674"
       style="overflow:visible">
      <path
         inkscape:connector-curvature="0"
         id="path23676"
         d="m 5.77,0 -8.65,5 0,-10 8.65,5 z"
         style="fill-rule:evenodd;stroke:#000000;stroke-width:1pt"
         transform="scale(0.8,0.8)" />
    </marker>
    <marker
       inkscape:stockid="TriangleOutL"
       orient="auto"
       refY="0"
       refX="0"
       id="TriangleOutL-6"
       style="overflow:visible">
      <path
         inkscape:connector-curvature="0"
         id="path4954-2"
         d="m 5.77,0 -8.65,5 0,-10 8.65,5 z"
         style="fill-rule:evenodd;stroke:#000000;stroke-width:1pt"
         transform="scale(0.8,0.8)" />
    </marker>
    <marker
       inkscape:stockid="TriangleOutL"
       orient="auto"
       refY="0"
       refX="0"
       id="marker23715"
       style="overflow:visible">
      <path
         inkscape:connector-curvature="0"
         id="path23717"
         d="m 5.77,0 -8.65,5 0,-10 8.65,5 z"
         style="fill-rule:evenodd;stroke:#000000;stroke-width:1pt"
         transform="scale(0.8,0.8)" />
    </marker>
    <marker
       inkscape:stockid="TriangleOutL"
       orient="auto"
       refY="0"
       refX="0"
       id="marker23719"
       style="overflow:visible">
      <path
         inkscape:connector-curvature="0"
         id="path23721"
         d="m 5.77,0 -8.65,5 0,-10 8.65,5 z"
         style="fill-rule:evenodd;stroke:#000000;stroke-width:1pt"
         transform="scale(0.8,0.8)" />
    </marker>
    <marker
       inkscape:stockid="TriangleOutL"
       orient="auto"
       refY="0"
       refX="0"
       id="marker23723"
       style="overflow:visible">
      <path
         inkscape:connector-curvature="0"
         id="path23725"
         d="m 5.77,0 -8.65,5 0,-10 8.65,5 z"
         style="fill-rule:evenodd;stroke:#000000;stroke-width:1pt"
         transform="scale(0.8,0.8)" />
    </marker>
    <marker
       inkscape:stockid="TriangleOutL"
       orient="auto"
       refY="0"
       refX="0"
       id="marker23727"
       style="overflow:visible">
      <path
         inkscape:connector-curvature="0"
         id="path23729"
         d="m 5.77,0 -8.65,5 0,-10 8.65,5 z"
         style="fill-rule:evenodd;stroke:#000000;stroke-width:1pt"
         transform="scale(0.8,0.8)" />
    </marker>
    <marker
       inkscape:stockid="TriangleInL"
       orient="auto"
       refY="0"
       refX="0"
       id="TriangleInL-9"
       style="overflow:visible">
      <path
         inkscape:connector-curvature="0"
         id="path4945-1"
         d="m 5.77,0 -8.65,5 0,-10 8.65,5 z"
         style="fill-rule:evenodd;stroke:#000000;stroke-width:1pt"
         transform="scale(-0.8,-0.8)" />
    </marker>
    <marker
       inkscape:stockid="TriangleInL"
       orient="auto"
       refY="0"
       refX="0"
       id="marker23733"
       style="overflow:visible">
      <path
         inkscape:connector-curvature="0"
         id="path23735"
         d="m 5.77,0 -8.65,5 0,-10 8.65,5 z"
         style="fill-rule:evenodd;stroke:#000000;stroke-width:1pt"
         transform="scale(-0.8,-0.8)" />
    </marker>
    <marker
       inkscape:stockid="TriangleOutL"
       orient="auto"
       refY="0"
       refX="0"
       id="marker23737"
       style="overflow:visible">
      <path
         inkscape:connector-curvature="0"
         id="path23739"
         d="m 5.77,0 -8.65,5 0,-10 8.65,5 z"
         style="fill-rule:evenodd;stroke:#000000;stroke-width:1pt"
         transform="scale(0.8,0.8)" />
    </marker>
    <marker
       inkscape:stockid="TriangleOutL"
       orient="auto"
       refY="0"
       refX="0"
       id="marker23741"
       style="overflow:visible">
      <path
         inkscape:connector-curvature="0"
         id="path23743"
         d="m 5.77,0 -8.65,5 0,-10 8.65,5 z"
         style="fill-rule:evenodd;stroke:#000000;stroke-width:1pt"
         transform="scale(0.8,0.8)" />
    </marker>
    <marker
       inkscape:stockid="TriangleOutL"
       orient="auto"
       refY="0"
       refX="0"
       id="marker23745"
       style="overflow:visible">
      <path
         inkscape:connector-curvature="0"
         id="path23747"
         d="m 5.77,0 -8.65,5 0,-10 8.65,5 z"
         style="fill-rule:evenodd;stroke:#000000;stroke-width:1pt"
         transform="scale(0.8,0.8)" />
    </marker>
  </defs>
  <sodipodi:namedview
     pagecolor="#ffffff"
     bordercolor="#666666"
     borderopacity="1"
     objecttolerance="10"
     gridtolerance="10"
     guidetolerance="10"
     inkscape:pageopacity="0"
     inkscape:pageshadow="2"
     inkscape:window-width="1855"
     inkscape:window-height="1056"
     id="namedview4009"
     showgrid="false"
     inkscape:snap-bbox="true"
     inkscape:bbox-nodes="true"
     inkscape:snap-bbox-midpoints="true"
     inkscape:snap-grids="true"
     inkscape:snap-to-guides="true"
     showguides="true"
     inkscape:zoom="1.2625"
     inkscape:cx="416.60478"
     inkscape:cy="501.52441"
     inkscape:window-x="65"
     inkscape:window-y="24"
     inkscape:window-maximized="1"
     inkscape:current-layer="g3765"
     inkscape:object-paths="true">
    <inkscape:grid
       type="xygrid"
       id="grid4015" />
  </sodipodi:namedview>
  <clipPath
     id="p.0">
    <path
       d="m0 0l960.0 0l0 720.0l-960.0 0l0 -720.0z"
       clip-rule="nonzero"
       id="path3763" />
  </clipPath>
  <g
     clip-path="url(#p.0)"
     id="g3765">
    <path
       sodipodi:type="arc"
       style="fill:#bbc040;fill-opacity:0.25098040999999999;fill-rule:nonzero;stroke:#949731;stroke-width:1;stroke-linecap:butt;stroke-miterlimit:10;stroke-opacity:1;stroke-dasharray:none"
       id="path25989"
       sodipodi:cx="431.68317"
       sodipodi:cy="365.54456"
       sodipodi:rx="79.207924"
       sodipodi:ry="51.881187"
       d="m 510.89109,365.54456 a 79.207924,51.881187 0 1 1 -158.41585,0 79.207924,51.881187 0 1 1 158.41585,0 z" />
    <path
       sodipodi:type="arc"
       style="fill:#bbc040;fill-opacity:0.25098039000000000;fill-rule:nonzero;stroke:#949731;stroke-width:1;stroke-linecap:butt;stroke-miterlimit:10;stroke-opacity:1;stroke-dasharray:none"
       id="path25991"
       sodipodi:cx="552.07922"
       sodipodi:cy="377.02969"
       sodipodi:rx="31.683168"
       sodipodi:ry="67.326736"
       d="m 583.76239,377.02969 a 31.683168,67.326736 0 1 1 -63.36633,0 31.683168,67.326736 0 1 1 63.36633,0 z"
       transform="translate(-7.0792236,-9.5296936)" />
    <path
       sodipodi:type="arc"
       style="fill:#bbc040;fill-opacity:0.25098039000000000;fill-rule:nonzero;stroke:#949731;stroke-width:1;stroke-linecap:butt;stroke-miterlimit:10;stroke-opacity:1;stroke-dasharray:none"
       id="path25993"
       sodipodi:cx="401.58417"
       sodipodi:cy="190.89108"
       sodipodi:rx="140.19801"
       sodipodi:ry="28.514851"
       d="m 541.78218,190.89108 a 140.19801,28.514851 0 1 1 -280.39603,0 140.19801,28.514851 0 1 1 280.39603,0 z"
       transform="translate(18.415838,5.2309672)" />
    <path
       sodipodi:type="arc"
       style="fill:#bbc040;fill-opacity:0.25098039000000000;fill-rule:nonzero;stroke:#949731;stroke-width:1;stroke-linecap:butt;stroke-miterlimit:10;stroke-opacity:1;stroke-dasharray:none"
       id="path25995"
       sodipodi:cx="221.38614"
       sodipodi:cy="195.24753"
       sodipodi:rx="34.455444"
       sodipodi:ry="24.158417"
       d="m 255.84158,195.24753 a 34.455444,24.158417 0 1 1 -68.91089,0 34.455444,24.158417 0 1 1 68.91089,0 z" />
    <path
       style="fill:none;stroke:#949731;stroke-width:1px;stroke-linecap:butt;stroke-linejoin:miter;stroke-opacity:1"
       d="m 560.15909,195.44338 135.68341,5.74474"
       id="path25997"
       inkscape:connector-curvature="0" />
    <path
       style="fill:none;stroke:#949731;stroke-width:1px;stroke-linecap:butt;stroke-linejoin:miter;stroke-opacity:1"
       d="M 557.23997,305.38132 695.8425,240"
       id="path25999"
       inkscape:connector-curvature="0" />
    <path
       style="fill:none;stroke:#949731;stroke-width:1px;stroke-linecap:butt;stroke-linejoin:miter;stroke-opacity:1"
       d="m 447.59646,314.71074 c 36.84819,-31.02715 165.49736,-6.65938 248.24604,-41.44341"
       id="path26001"
       inkscape:connector-curvature="0"
       sodipodi:nodetypes="cc" />
    <path
       style="fill:none;stroke:#949731;stroke-width:1px;stroke-linecap:butt;stroke-linejoin:miter;stroke-opacity:1"
       d="m 253.85173,203.35818 c 20.12071,37.07963 118.81593,31.3291 218.46263,33.19385 201.08859,3.76311 168.41141,78.92439 223.52814,101.66579"
       id="path26011"
       inkscape:connector-curvature="0"
       sodipodi:nodetypes="csc" />
    <path
       sodipodi:type="arc"
       style="fill:#bbc040;fill-opacity:0.25098039000000000;fill-rule:nonzero;stroke:#949731;stroke-width:1;stroke-linecap:butt;stroke-miterlimit:10;stroke-opacity:1;stroke-dasharray:none"
       id="path26013"
       sodipodi:cx="185.74257"
       sodipodi:cy="369.45544"
       sodipodi:rx="124.75247"
       sodipodi:ry="140.54456"
       d="m 310.49504,369.45544 a 124.75247,140.54456 0 1 1 -249.504943,0 124.75247,140.54456 0 1 1 249.504943,0 z" />
    <path
       style="fill:none;stroke:#949731;stroke-width:1px;stroke-linecap:butt;stroke-linejoin:miter;stroke-opacity:1"
       d="M 207.23651,507.92179 C 852.20087,659.42222 532.97384,377.36007 695.8425,312.07921"
       id="path26015"
       inkscape:connector-curvature="0"
       sodipodi:nodetypes="cc" />
    <path
       d="m0 0l960.0 0l0 720.0l-960.0 0z"
       id="path3767"
       fill-rule="evenodd"
       fill-opacity="0.0"
       fill="#000000" />
    <path
       d="m198.81364 180.36482l0 0c0 -41.573547 99.18831 -75.27558 221.54332 -75.27558l0 0c122.35501 0 221.5433 33.702034 221.5433 75.27558l0 0c0 41.573563 -99.18829 75.275604 -221.5433 75.275604l0 0c-122.35501 0 -221.54332 -33.70204 -221.54332 -75.275604z"
       id="path3773"
       fill-rule="evenodd"
       fill-opacity="0.0"
       fill="#000000" />
    <path
       d="m 519.9462,380.42915 0,0 c 0,-51.36685 17.48556,-93.00787 39.05511,-93.00787 l 0,0 c 10.35807,0 20.2919,9.79901 27.61615,27.24136 7.32425,17.44236 11.43897,41.09928 11.43897,65.76651 l 0,0 c 0,51.36682 -17.48557,93.00787 -39.05512,93.00787 l 0,0 c -21.56955,0 -39.05511,-41.64105 -39.05511,-93.00787 z"
       id="path3781"
       inkscape:connector-curvature="0"
       style="fill:#000000;fill-opacity:0;fill-rule:evenodd" />
    <path
       d="m 60.595724,40.595723 508.808556,0 0,48.808554 -508.808556,0 z"
       id="path3787"
       inkscape:connector-curvature="0"
       style="stroke:#000000;stroke-width:1;stroke-linecap:butt;stroke-linejoin:round;stroke-miterlimit:10;stroke-dasharray:none;fill:#4083c0;fill-opacity:0.50196081" />
    <path
       d="m 273.68272,71.804687 0,-13.59375 2.71875,0 3.21875,9.625 q 0.4375,1.34375 0.64063,2.015625 0.23437,-0.75 0.73437,-2.1875 l 3.25,-9.453125 2.42188,0 0,13.59375 -1.73438,0 0,-11.390625 -3.95312,11.390625 -1.625,0 -3.9375,-11.578125 0,11.578125 -1.73438,0 z m 15.63456,0 0,-13.59375 9.84375,0 0,1.59375 -8.04688,0 0,4.171875 7.53125,0 0,1.59375 -7.53125,0 0,4.625 8.35938,0 0,1.609375 -10.15625,0 z m 12.34982,0 0,-13.59375 2.71875,0 3.21875,9.625 q 0.4375,1.34375 0.64062,2.015625 0.23438,-0.75 0.73438,-2.1875 l 3.25,-9.453125 2.42187,0 0,13.59375 -1.73437,0 0,-11.390625 -3.95313,11.390625 -1.625,0 -3.9375,-11.578125 0,11.578125 -1.73437,0 z m 15.05643,-6.625 q 0,-3.390625 1.8125,-5.296875 1.82812,-1.921875 4.70312,-1.921875 1.875,0 3.39063,0.90625 1.51562,0.890625 2.29687,2.5 0.79688,1.609375 0.79688,3.65625 0,2.0625 -0.84375,3.703125 -0.82813,1.625 -2.35938,2.46875 -1.53125,0.84375 -3.29687,0.84375 -1.92188,0 -3.4375,-0.921875 -1.5,-0.9375 -2.28125,-2.53125 -0.78125,-1.609375 -0.78125,-3.40625 z m 1.85937,0.03125 q 0,2.453125 1.3125,3.875 1.32813,1.40625 3.3125,1.40625 2.03125,0 3.34375,-1.421875 1.3125,-1.4375 1.3125,-4.0625 0,-1.65625 -0.5625,-2.890625 -0.54687,-1.234375 -1.64062,-1.921875 -1.07813,-0.6875 -2.42188,-0.6875 -1.90625,0 -3.28125,1.3125 -1.375,1.3125 -1.375,4.390625 z m 13.23019,6.59375 0,-13.59375 6.03125,0 q 1.8125,0 2.75,0.359375 0.95313,0.359375 1.51563,1.296875 0.5625,0.921875 0.5625,2.046875 0,1.453125 -0.9375,2.453125 -0.92188,0.984375 -2.89063,1.25 0.71875,0.34375 1.09375,0.671875 0.78125,0.734375 1.48438,1.8125 l 2.375,3.703125 -2.26563,0 -1.79687,-2.828125 q -0.79688,-1.21875 -1.3125,-1.875 -0.5,-0.65625 -0.90625,-0.90625 -0.40625,-0.265625 -0.8125,-0.359375 -0.3125,-0.07813 -1.01563,-0.07813 l -2.07812,0 0,6.046875 -1.79688,0 z m 1.79688,-7.59375 3.85937,0 q 1.23438,0 1.92188,-0.25 0.70312,-0.265625 1.0625,-0.828125 0.375,-0.5625 0.375,-1.21875 0,-0.96875 -0.70313,-1.578125 -0.70312,-0.625 -2.21875,-0.625 l -4.29687,0 0,4.5 z m 15.47293,7.59375 0,-5.765625 -5.23437,-7.828125 2.1875,0 2.67187,4.09375 q 0.75,1.15625 1.39063,2.296875 0.60937,-1.0625 1.48437,-2.40625 l 2.625,-3.984375 2.10938,0 -5.4375,7.828125 0,5.765625 -1.79688,0 z"
       id="path3789"
       inkscape:connector-curvature="0"
       style="fill:#000000;fill-rule:nonzero" />
    <path
       d="m 270.15528,180.48204 299.68945,0 0,29.03592 -299.68945,0 z"
       id="path3793"
       inkscape:connector-curvature="0"
       style="stroke:#000000;stroke-width:0.96407288000000002;stroke-linecap:butt;stroke-linejoin:round;fill:#40c06d;fill-opacity:0.50196081" />
    <path
       d="m 369.66977,196.30174 q 0,-3.39063 1.8125,-5.29688 1.82812,-1.92187 4.70312,-1.92187 1.875,0 3.39063,0.90625 1.51562,0.89062 2.29687,2.5 0.79688,1.60937 0.79688,3.65625 0,2.0625 -0.84375,3.70312 -0.82813,1.625 -2.35938,2.46875 -1.53125,0.84375 -3.29687,0.84375 -1.92188,0 -3.4375,-0.92187 -1.5,-0.9375 -2.28125,-2.53125 -0.78125,-1.60938 -0.78125,-3.40625 z m 1.85937,0.0312 q 0,2.45312 1.3125,3.875 1.32813,1.40625 3.3125,1.40625 2.03125,0 3.34375,-1.42188 1.3125,-1.4375 1.3125,-4.0625 0,-1.65625 -0.5625,-2.89062 -0.54687,-1.23438 -1.64062,-1.92188 -1.07813,-0.6875 -2.42188,-0.6875 -1.90625,0 -3.28125,1.3125 -1.375,1.3125 -1.375,4.39063 z m 13.19895,6.59375 0,-13.59375 5.125,0 q 1.35937,0 2.07812,0.125 1,0.17187 1.67188,0.64062 0.67187,0.46875 1.07812,1.3125 0.42188,0.84375 0.42188,1.84375 0,1.73438 -1.10938,2.9375 -1.09375,1.20313 -3.98437,1.20313 l -3.48438,0 0,5.53125 -1.79687,0 z m 1.79687,-7.14063 3.51563,0 q 1.75,0 2.46875,-0.64062 0.73437,-0.65625 0.73437,-1.82813 0,-0.85937 -0.4375,-1.46875 -0.42187,-0.60937 -1.125,-0.79687 -0.45312,-0.125 -1.67187,-0.125 l -3.48438,0 0,4.85937 z m 14.09983,7.14063 0,-12 -4.46875,0 0,-1.59375 10.76563,0 0,1.59375 -4.5,0 0,12 -1.79688,0 z m 8.23971,0 0,-13.59375 1.8125,0 0,13.59375 -1.8125,0 z m 4.82396,0 0,-13.59375 2.71875,0 3.21875,9.625 q 0.4375,1.34375 0.64062,2.01562 0.23438,-0.75 0.73438,-2.1875 l 3.25,-9.45312 2.42187,0 0,13.59375 -1.73437,0 0,-11.39063 -3.95313,11.39063 -1.625,0 -3.9375,-11.57813 0,11.57813 -1.73437,0 z m 15.90017,0 0,-13.59375 1.8125,0 0,13.59375 -1.8125,0 z m 3.79267,0 0,-1.67188 6.96875,-8.70312 q 0.75,-0.9375 1.42187,-1.625 l -7.59375,0 0,-1.59375 9.73438,0 0,1.59375 -7.625,9.4375 -0.82813,0.95312 8.6875,0 0,1.60938 -10.76562,0 z m 12.52098,0 0,-13.59375 9.84375,0 0,1.59375 -8.04687,0 0,4.17187 7.53125,0 0,1.59375 -7.53125,0 0,4.625 8.35937,0 0,1.60938 -10.15625,0 z m 12.44358,0 0,-13.59375 6.03125,0 q 1.8125,0 2.75,0.35937 0.95313,0.35938 1.51563,1.29688 0.5625,0.92187 0.5625,2.04687 0,1.45313 -0.9375,2.45313 -0.92188,0.98437 -2.89063,1.25 0.71875,0.34375 1.09375,0.67187 0.78125,0.73438 1.48438,1.8125 l 2.375,3.70313 -2.26563,0 -1.79687,-2.82813 q -0.79688,-1.21875 -1.3125,-1.875 -0.5,-0.65625 -0.90625,-0.90625 -0.40625,-0.26562 -0.8125,-0.35937 -0.3125,-0.0781 -1.01563,-0.0781 l -2.07812,0 0,6.04688 -1.79688,0 z m 1.79688,-7.59375 3.85937,0 q 1.23438,0 1.92188,-0.25 0.70312,-0.26563 1.0625,-0.82813 0.375,-0.5625 0.375,-1.21875 0,-0.96875 -0.70313,-1.57812 -0.70312,-0.625 -2.21875,-0.625 l -4.29687,0 0,4.5 z"
       id="path3795"
       inkscape:connector-curvature="0"
       style="fill:#000000;fill-rule:nonzero" />
    <path
       d="m 270.50428,120.50428 299.645,0 0,38.99144 -299.645,0 z"
       id="path3799"
       inkscape:connector-curvature="0"
       style="stroke:#000000;stroke-width:1.00856757000000008;stroke-linecap:butt;stroke-linejoin:round;fill:#40bec0;fill-opacity:0.50196081" />
    <path
       d="m 398.9076,144.9375 q 1.26562,0.85937 2.3125,1.26562 l -0.53125,1.25 q -1.45313,-0.53125 -2.92188,-1.67187 -1.5,0.84375 -3.32812,0.84375 -1.84375,0 -3.35938,-0.89063 -1.5,-0.89062 -2.3125,-2.5 -0.8125,-1.625 -0.8125,-3.64062 0,-2.01563 0.8125,-3.65625 0.82813,-1.65625 2.32813,-2.51563 1.51562,-0.875 3.375,-0.875 1.89062,0 3.39062,0.90625 1.51563,0.89063 2.3125,2.5 0.79688,1.60938 0.79688,3.625 0,1.6875 -0.51563,3.03125 -0.51562,1.32813 -1.54687,2.32813 z m -3.95313,-2.29688 q 1.5625,0.42188 2.5625,1.29688 1.59375,-1.45313 1.59375,-4.35938 0,-1.65625 -0.5625,-2.875 -0.5625,-1.23437 -1.64062,-1.92187 -1.07813,-0.6875 -2.42188,-0.6875 -2.01562,0 -3.34375,1.39062 -1.32812,1.375 -1.32812,4.10938 0,2.65625 1.3125,4.07812 1.3125,1.40625 3.35937,1.40625 0.95313,0 1.8125,-0.35937 -0.84375,-0.54688 -1.78125,-0.78125 l 0.4375,-1.29688 z m 17.08954,-9.84375 1.79688,0 0,7.84375 q 0,2.0625 -0.46875,3.26563 -0.45313,1.20312 -1.67188,1.96875 -1.20312,0.75 -3.17187,0.75 -1.90625,0 -3.125,-0.65625 -1.21875,-0.65625 -1.73438,-1.90625 -0.51562,-1.25 -0.51562,-3.42188 l 0,-7.84375 1.79687,0 0,7.84375 q 0,1.76563 0.32813,2.60938 0.32812,0.84375 1.125,1.29687 0.8125,0.45313 1.96875,0.45313 1.98437,0 2.82812,-0.89063 0.84375,-0.90625 0.84375,-3.46875 l 0,-7.84375 z m 4.58234,13.59375 0,-13.59375 9.84375,0 0,1.59375 -8.04688,0 0,4.17188 7.53125,0 0,1.59375 -7.53125,0 0,4.625 8.35938,0 0,1.60937 -10.15625,0 z m 21.3342,-13.59375 1.79687,0 0,7.84375 q 0,2.0625 -0.46875,3.26563 -0.45312,1.20312 -1.67187,1.96875 -1.20313,0.75 -3.17188,0.75 -1.90625,0 -3.125,-0.65625 -1.21875,-0.65625 -1.73437,-1.90625 -0.51563,-1.25 -0.51563,-3.42188 l 0,-7.84375 1.79688,0 0,7.84375 q 0,1.76563 0.32812,2.60938 0.32813,0.84375 1.125,1.29687 0.8125,0.45313 1.96875,0.45313 1.98438,0 2.82813,-0.89063 0.84375,-0.90625 0.84375,-3.46875 l 0,-7.84375 z m 4.58229,13.59375 0,-13.59375 9.84375,0 0,1.59375 -8.04687,0 0,4.17188 7.53125,0 0,1.59375 -7.53125,0 0,4.625 8.35937,0 0,1.60937 -10.15625,0 z"
       id="path3801"
       inkscape:connector-curvature="0"
       style="fill:#000000;fill-rule:nonzero" />
    <path
       d="m 330.67851,250.67851 238.64298,0 0,38.64298 -238.64298,0 z"
       id="path3805"
       inkscape:connector-curvature="0"
       style="stroke:#000000;stroke-width:1;stroke-linecap:butt;stroke-linejoin:round;stroke-miterlimit:10;stroke-dasharray:none;fill:#4082c0;fill-opacity:0.50196081" />
    <path
       d="m 428.43598,272.03125 1.79687,0.45313 q -0.5625,2.21875 -2.03125,3.39062 -1.46875,1.15625 -3.59375,1.15625 -2.20312,0 -3.57812,-0.89062 -1.375,-0.90625 -2.09375,-2.59375 -0.71875,-1.70313 -0.71875,-3.65625 0,-2.125 0.79687,-3.70313 0.8125,-1.57812 2.3125,-2.39062 1.5,-0.82813 3.29688,-0.82813 2.04687,0 3.4375,1.04688 1.39062,1.03125 1.9375,2.90625 l -1.76563,0.42187 q -0.46875,-1.48437 -1.375,-2.15625 -0.90625,-0.6875 -2.26562,-0.6875 -1.5625,0 -2.625,0.75 -1.04688,0.75 -1.48438,2.03125 -0.42187,1.26563 -0.42187,2.60938 0,1.73437 0.5,3.03125 0.51562,1.28125 1.57812,1.92187 1.07813,0.64063 2.3125,0.64063 1.51563,0 2.5625,-0.85938 1.04688,-0.875 1.42188,-2.59375 z m 2.26984,4.76563 5.23437,-13.59375 1.9375,0 5.5625,13.59375 -2.04687,0 -1.59375,-4.125 -5.6875,0 -1.48438,4.125 -1.92187,0 z m 3.92187,-5.57813 4.60938,0 -1.40625,-3.78125 q -0.65625,-1.70312 -0.96875,-2.8125 -0.26563,1.3125 -0.73438,2.59375 l -1.5,4 z m 19.72482,0.8125 1.79688,0.45313 q -0.5625,2.21875 -2.03125,3.39062 -1.46875,1.15625 -3.59375,1.15625 -2.20313,0 -3.57813,-0.89062 -1.375,-0.90625 -2.09375,-2.59375 -0.71875,-1.70313 -0.71875,-3.65625 0,-2.125 0.79688,-3.70313 0.8125,-1.57812 2.3125,-2.39062 1.5,-0.82813 3.29687,-0.82813 2.04688,0 3.4375,1.04688 1.39063,1.03125 1.9375,2.90625 l -1.76562,0.42187 q -0.46875,-1.48437 -1.375,-2.15625 -0.90625,-0.6875 -2.26563,-0.6875 -1.5625,0 -2.625,0.75 -1.04687,0.75 -1.48437,2.03125 -0.42188,1.26563 -0.42188,2.60938 0,1.73437 0.5,3.03125 0.51563,1.28125 1.57813,1.92187 1.07812,0.64063 2.3125,0.64063 1.51562,0 2.5625,-0.85938 1.04687,-0.875 1.42187,-2.59375 z m 3.81672,4.76563 0,-13.59375 1.8125,0 0,5.57812 7.0625,0 0,-5.57812 1.79687,0 0,13.59375 -1.79687,0 0,-6.40625 -7.0625,0 0,6.40625 -1.8125,0 z m 13.4573,0 0,-13.59375 9.84375,0 0,1.59375 -8.04688,0 0,4.17187 7.53125,0 0,1.59375 -7.53125,0 0,4.625 8.35938,0 0,1.60938 -10.15625,0 z"
       id="path3807"
       inkscape:connector-curvature="0"
       style="fill:#000000;fill-rule:nonzero" />
    <path
       d="m 360.47668,330.47668 59.04664,0 0,74.04664 -59.04664,0 z"
       id="path3811"
       inkscape:connector-curvature="0"
       style="stroke:#000000;stroke-width:0.95335393999999996;stroke-linecap:butt;stroke-linejoin:round;fill:#c040b5;fill-opacity:0.50196081" />
    <path
       d="m 372.20616,371.67969 0,-13.59375 4.6875,0 q 1.57812,0 2.42187,0.1875 1.15625,0.26562 1.98438,0.96875 1.07812,0.92187 1.60937,2.34375 0.53125,1.40625 0.53125,3.21875 0,1.54687 -0.35937,2.75 -0.35938,1.1875 -0.92188,1.98437 -0.5625,0.78125 -1.23437,1.23438 -0.67188,0.4375 -1.625,0.67187 -0.95313,0.23438 -2.1875,0.23438 l -4.90625,0 z m 1.79687,-1.60938 2.90625,0 q 1.34375,0 2.10938,-0.25 0.76562,-0.25 1.21875,-0.70312 0.64062,-0.64063 1,-1.71875 0.35937,-1.07813 0.35937,-2.625 0,-2.125 -0.70312,-3.26563 -0.70313,-1.15625 -1.70313,-1.54687 -0.71875,-0.28125 -2.32812,-0.28125 l -2.85938,0 0,10.39062 z m 11.76981,1.60938 0,-13.59375 9.17188,0 0,1.59375 -7.375,0 0,4.21875 6.375,0 0,1.60937 -6.375,0 0,6.17188 -1.79688,0 z m 20.22412,-13.59375 1.79688,0 0,7.84375 q 0,2.0625 -0.46875,3.26562 -0.45313,1.20313 -1.67188,1.96875 -1.20312,0.75 -3.17187,0.75 -1.90625,0 -3.125,-0.65625 -1.21875,-0.65625 -1.73438,-1.90625 -0.51562,-1.25 -0.51562,-3.42187 l 0,-7.84375 1.79687,0 0,7.84375 q 0,1.76562 0.32813,2.60937 0.32812,0.84375 1.125,1.29688 0.8125,0.45312 1.96875,0.45312 1.98437,0 2.82812,-0.89062 0.84375,-0.90625 0.84375,-3.46875 l 0,-7.84375 z"
       id="path3813"
       inkscape:connector-curvature="0"
       style="fill:#000000;fill-rule:nonzero" />
    <path
       d="m 440.47668,330.47668 59.04664,0 0,74.04664 -59.04664,0 z"
       id="path3817"
       inkscape:connector-curvature="0"
       style="stroke:#000000;stroke-width:0.95335382000000002;stroke-linecap:butt;stroke-linejoin:round;fill:#c040b5;fill-opacity:0.50196081" />
    <path
       d="m 452.20616,371.67969 0,-13.59375 4.6875,0 q 1.57812,0 2.42187,0.1875 1.15625,0.26562 1.98438,0.96875 1.07812,0.92187 1.60937,2.34375 0.53125,1.40625 0.53125,3.21875 0,1.54687 -0.35937,2.75 -0.35938,1.1875 -0.92188,1.98437 -0.5625,0.78125 -1.23437,1.23438 -0.67188,0.4375 -1.625,0.67187 -0.95313,0.23438 -2.1875,0.23438 l -4.90625,0 z m 1.79687,-1.60938 2.90625,0 q 1.34375,0 2.10938,-0.25 0.76562,-0.25 1.21875,-0.70312 0.64062,-0.64063 1,-1.71875 0.35937,-1.07813 0.35937,-2.625 0,-2.125 -0.70312,-3.26563 -0.70313,-1.15625 -1.70313,-1.54687 -0.71875,-0.28125 -2.32812,-0.28125 l -2.85938,0 0,10.39062 z m 11.76984,1.60938 0,-13.59375 9.17188,0 0,1.59375 -7.375,0 0,4.21875 6.375,0 0,1.60937 -6.375,0 0,6.17188 -1.79688,0 z m 20.22409,-13.59375 1.79688,0 0,7.84375 q 0,2.0625 -0.46875,3.26562 -0.45313,1.20313 -1.67188,1.96875 -1.20312,0.75 -3.17187,0.75 -1.90625,0 -3.125,-0.65625 -1.21875,-0.65625 -1.73438,-1.90625 -0.51562,-1.25 -0.51562,-3.42187 l 0,-7.84375 1.79687,0 0,7.84375 q 0,1.76562 0.32813,2.60937 0.32812,0.84375 1.125,1.29688 0.8125,0.45312 1.96875,0.45312 1.98437,0 2.82812,-0.89062 0.84375,-0.90625 0.84375,-3.46875 l 0,-7.84375 z"
       id="path3819"
       inkscape:connector-curvature="0"
       style="fill:#000000;fill-rule:nonzero" />
    <path
       d="m 520.48504,310.48504 49.02992,0 0,114.02992 -49.02992,0 z"
       id="path3823"
       inkscape:connector-curvature="0"
       style="stroke:#000000;stroke-width:1;stroke-linecap:butt;stroke-linejoin:round;stroke-miterlimit:10;stroke-dasharray:none;fill:#40bec0;fill-opacity:0.50196081" />
    <path
       d="m 330.50183,445.50642 239.17051,0 0,33.98783 -239.17051,0 z"
       id="path3833"
       inkscape:connector-curvature="0"
       style="stroke:#000000;stroke-width:1.00365806000000002;stroke-linecap:butt;stroke-linejoin:round;stroke-miterlimit:10;stroke-dasharray:none;fill:#c04040;fill-opacity:0.50196081" />
    <path
       d="m 385.5831,464.53945 1.79687,0.45312 q -0.5625,2.21875 -2.03125,3.39063 -1.46875,1.15625 -3.59375,1.15625 -2.2031,0 -3.5781,-0.89063 -1.375,-0.90625 -2.09375,-2.59375 -0.71875,-1.70312 -0.71875,-3.65625 0,-2.125 0.79688,-3.70312 0.8125,-1.57813 2.3125,-2.39063 1.49997,-0.82812 3.29685,-0.82812 2.04687,0 3.4375,1.04687 1.39062,1.03125 1.9375,2.90625 l -1.76563,0.42188 q -0.46875,-1.48438 -1.375,-2.15625 -0.90625,-0.6875 -2.26562,-0.6875 -1.5625,0 -2.62498,0.75 -1.04687,0.75 -1.48437,2.03125 -0.42188,1.26562 -0.42188,2.60937 0,1.73438 0.5,3.03125 0.51563,1.28125 1.57813,1.92188 1.0781,0.64062 2.31247,0.64062 1.51563,0 2.5625,-0.85937 1.04688,-0.875 1.42188,-2.59375 z m 3.22296,-1.85938 q 0,-3.39062 1.8125,-5.29687 1.82813,-1.92188 4.70313,-1.92188 1.875,0 3.39062,0.90625 1.51563,0.89063 2.29688,2.5 0.79687,1.60938 0.79687,3.65625 0,2.0625 -0.84375,3.70313 -0.82812,1.625 -2.35937,2.46875 -1.53125,0.84375 -3.29688,0.84375 -1.92187,0 -3.4375,-0.92188 -1.5,-0.9375 -2.28125,-2.53125 -0.78125,-1.60937 -0.78125,-3.40625 z m 1.85938,0.0312 q 0,2.45313 1.3125,3.875 1.32812,1.40625 3.3125,1.40625 2.03125,0 3.34375,-1.42187 1.3125,-1.4375 1.3125,-4.0625 0,-1.65625 -0.5625,-2.89063 -0.54688,-1.23437 -1.64063,-1.92187 -1.07812,-0.6875 -2.42187,-0.6875 -1.90625,0 -3.28125,1.3125 -1.375,1.3125 -1.375,4.39062 z m 13.18328,6.59375 0,-13.59375 1.84375,0 7.14063,10.67188 0,-10.67188 1.71875,0 0,13.59375 -1.84375,0 -7.14063,-10.6875 0,10.6875 -1.71875,0 z m 16.94172,0 0,-12 -4.46875,0 0,-1.59375 10.76562,0 0,1.59375 -4.5,0 0,12 -1.79687,0 z m 7.97408,0 0,-13.59375 6.03125,0 q 1.8125,0 2.75,0.35938 0.95313,0.35937 1.51563,1.29687 0.5625,0.92188 0.5625,2.04688 0,1.45312 -0.9375,2.45312 -0.92188,0.98438 -2.89063,1.25 0.71875,0.34375 1.09375,0.67188 0.78125,0.73437 1.48438,1.8125 l 2.375,3.70312 -2.26563,0 -1.79687,-2.82812 q -0.79688,-1.21875 -1.3125,-1.875 -0.5,-0.65625 -0.90625,-0.90625 -0.40625,-0.26563 -0.8125,-0.35938 -0.3125,-0.0781 -1.01563,-0.0781 l -2.07812,0 0,6.04688 -1.79688,0 z m 1.79688,-7.59375 3.85937,0 q 1.23438,0 1.92188,-0.25 0.70312,-0.26562 1.0625,-0.82812 0.375,-0.5625 0.375,-1.21875 0,-0.96875 -0.70313,-1.57813 -0.70312,-0.625 -2.21875,-0.625 l -4.29687,0 0,4.5 z m 11.09796,0.96875 q 0,-3.39062 1.8125,-5.29687 1.82812,-1.92188 4.70312,-1.92188 1.875,0 3.39063,0.90625 1.51562,0.89063 2.29687,2.5 0.79688,1.60938 0.79688,3.65625 0,2.0625 -0.84375,3.70313 -0.82813,1.625 -2.35938,2.46875 -1.53125,0.84375 -3.29687,0.84375 -1.92188,0 -3.4375,-0.92188 -1.5,-0.9375 -2.28125,-2.53125 -0.78125,-1.60937 -0.78125,-3.40625 z m 1.85937,0.0312 q 0,2.45312 1.3125,3.875 1.32813,1.40625 3.3125,1.40625 2.03125,0 3.34375,-1.42188 1.3125,-1.4375 1.3125,-4.0625 0,-1.65625 -0.5625,-2.89062 -0.54687,-1.23438 -1.64062,-1.92188 -1.07813,-0.6875 -2.42188,-0.6875 -1.90625,0 -3.28125,1.3125 -1.375,1.3125 -1.375,4.39063 z m 13.12079,6.59375 0,-13.59375 1.79688,0 0,11.98437 6.70312,0 0,1.60938 -8.5,0 z m 15.73089,0 0,-13.59375 9.17188,0 0,1.59375 -7.375,0 0,4.21875 6.375,0 0,1.60937 -6.375,0 0,6.17188 -1.79688,0 z m 11.22412,0 0,-13.59375 1.79688,0 0,11.98437 6.70312,0 0,1.60938 -8.5,0 z m 9.90696,-6.625 q 0,-3.39063 1.8125,-5.29688 1.82812,-1.92188 4.70312,-1.92188 1.875,0 3.39063,0.90625 1.51562,0.89063 2.29687,2.5 0.79688,1.60938 0.79688,3.65625 0,2.0625 -0.84375,3.70313 -0.82813,1.625 -2.35938,2.46875 -1.53125,0.84375 -3.29687,0.84375 -1.92188,0 -3.4375,-0.92188 -1.5,-0.9375 -2.28125,-2.53125 -0.78125,-1.60937 -0.78125,-3.40625 z m 1.85937,0.0312 q 0,2.45313 1.3125,3.875 1.32813,1.40625 3.3125,1.40625 2.03125,0 3.34375,-1.42187 1.3125,-1.4375 1.3125,-4.0625 0,-1.65625 -0.5625,-2.89063 -0.54687,-1.23437 -1.64062,-1.92187 -1.07813,-0.6875 -2.42188,-0.6875 -1.90625,0 -3.28125,1.3125 -1.375,1.3125 -1.375,4.39062 z m 15.57394,6.59375 -3.60937,-13.59375 1.84375,0 2.0625,8.90625 q 0.34375,1.40625 0.57812,2.78125 0.51563,-2.17187 0.60938,-2.51562 l 2.59375,-9.17188 2.17187,0 1.95313,6.875 q 0.73437,2.5625 1.04687,4.8125 0.26563,-1.28125 0.6875,-2.95312 l 2.125,-8.73438 1.8125,0 -3.73437,13.59375 -1.73438,0 -2.85937,-10.35937 q -0.35938,-1.29688 -0.42188,-1.59375 -0.21875,0.9375 -0.40625,1.59375 l -2.89062,10.35937 -1.82813,0 z"
       id="path3835"
       inkscape:connector-curvature="0"
       style="fill:#000000;fill-rule:nonzero" />
    <path
       d="m393.3727 197.39633l-2.8346558 -42.61418"
       id="path3837"
       fill-rule="evenodd"
       fill-opacity="0.0"
       fill="#000000" />
    <path
       d="m 372.25856,335.70735 1.41733,-48.28345"
       id="path3845"
       inkscape:connector-curvature="0"
       style="fill:#000000;fill-opacity:0;fill-rule:evenodd" />
    <path
       d="m 458.27692,289.5407 -0.34647,42.61417"
       id="path3853"
       inkscape:connector-curvature="0"
       style="fill:#000000;fill-opacity:0;fill-rule:evenodd" />
    <path
       d="m 460.30579,408.13255 1.41733,51.11813"
       id="path3861"
       inkscape:connector-curvature="0"
       style="fill:#000000;fill-opacity:0;fill-rule:evenodd" />
    <path
       d="m 365.15619,408.13255 0,49.70078"
       id="path3867"
       inkscape:connector-curvature="0"
       style="fill:#000000;fill-opacity:0;fill-rule:evenodd" />
    <path
       d="m 558.29792,310.15617 -101.16534,0 0,22.70868"
       id="path3879"
       inkscape:connector-curvature="0"
       style="fill:#000000;fill-opacity:0;fill-rule:evenodd" />
    <path
       d="m 558.30579,310.15617 -193.85828,0 0,22.70868"
       id="path3885"
       inkscape:connector-curvature="0"
       style="fill:#000000;fill-opacity:0;fill-rule:evenodd" />
    <path
       d="m276.9239 214.43832l-78.107895 0l0 65.322845l-0.0023498535 0"
       id="path3891"
       fill-rule="evenodd"
       fill-opacity="0.0"
       fill="#000000" />
    <path
       d="m 295.23622,253.34384 0,92.30737 39.77953,0 0,29.83435"
       id="path3895"
       inkscape:connector-curvature="0"
       style="fill:#000000;fill-opacity:0;fill-rule:evenodd" />
    <path
       d="m 480.18769,332.86485 2.83997,0 0,-31.24411 -150.52501,0"
       id="path3901"
       inkscape:connector-curvature="0"
       style="fill:#000000;fill-opacity:0;fill-rule:evenodd" />
    <path
       d="m387.6929 560.9475l1.4191589 0l0 31.24408l247.11627 0"
       id="path3907"
       fill-rule="evenodd"
       fill-opacity="0.0"
       fill="#000000" />
    <path
       d="m634.80316 593.59845l0 -378.45673l-58.236206 0"
       id="path3911"
       fill-rule="evenodd"
       fill-opacity="0.0"
       fill="#000000" />
    <path
       d="m326.6273 558.1076l2.8382874 0l0 62.48822l356.43732 0"
       id="path3917"
       fill-rule="evenodd"
       fill-opacity="0.0"
       fill="#000000" />
    <path
       d="m681.65356 622.0289l0 -549.6063l-90.897644 0"
       id="path3921"
       fill-rule="evenodd"
       fill-opacity="0.0"
       fill="#000000" />
    <path
       d="m695.8425 219.41733l204.5039 0l0 51.118103l-204.5039 0z"
       id="path3927"
       fill-rule="evenodd"
       fill-opacity="0.0"
       fill="#000000" />
    <path
       d="m706.23315 246.33733l0 -13.59375l1.796875 0l0 11.984375l6.703125 0l0 1.609375l-8.5 0zm9.906982 -6.625q0 -3.390625 1.8125 -5.296875q1.828125 -1.921875 4.703125 -1.921875q1.875 0 3.390625 0.90625q1.515625 0.890625 2.296875 2.5q0.796875 1.609375 0.796875 3.65625q0 2.0625 -0.84375 3.703125q-0.828125 1.625 -2.359375 2.46875q-1.53125 0.84375 -3.296875 0.84375q-1.921875 0 -3.4375 -0.921875q-1.5 -0.9375 -2.28125 -2.53125q-0.78125 -1.609375 -0.78125 -3.40625zm1.859375 0.03125q0 2.453125 1.3125 3.875q1.328125 1.40625 3.3125 1.40625q2.03125 0 3.34375 -1.421875q1.3125 -1.4375 1.3125 -4.0625q0 -1.65625 -0.5625 -2.890625q-0.546875 -1.234375 -1.640625 -1.921875q-1.078125 -0.6875 -2.421875 -0.6875q-1.90625 0 -3.28125 1.3125q-1.375 1.3125 -1.375 4.390625zm13.120789 6.59375l0 -13.59375l1.796875 0l0 6.734375l6.765625 -6.734375l2.4375 0l-5.703125 5.5l5.953125 8.09375l-2.375 0l-4.84375 -6.890625l-2.234375 2.171875l0 4.71875l-1.796875 0zm11.0216675 0l5.234375 -13.59375l1.9375 0l5.5625 13.59375l-2.046875 0l-1.59375 -4.125l-5.6875 0l-1.484375 4.125l-1.921875 0zm3.921875 -5.578125l4.609375 0l-1.40625 -3.78125q-0.65625 -1.703125 -0.96875 -2.8125q-0.265625 1.3125 -0.734375 2.59375l-1.5 4.0zm9.9436035 5.578125l0 -13.59375l1.796875 0l0 11.984375l6.703125 0l0 1.609375l-8.5 0zm15.559021 0l0 -13.59375l1.796875 0l0 6.734375l6.765625 -6.734375l2.4375 0l-5.703125 5.5l5.953125 8.09375l-2.375 0l-4.84375 -6.890625l-2.234375 2.171875l0 4.71875l-1.796875 0zm11.9747925 -6.625q0 -3.390625 1.8125 -5.296875q1.828125 -1.921875 4.703125 -1.921875q1.875 0 3.390625 0.90625q1.515625 0.890625 2.296875 2.5q0.796875 1.609375 0.796875 3.65625q0 2.0625 -0.84375 3.703125q-0.828125 1.625 -2.359375 2.46875q-1.53125 0.84375 -3.296875 0.84375q-1.921875 0 -3.4375 -0.921875q-1.5 -0.9375 -2.28125 -2.53125q-0.78125 -1.609375 -0.78125 -3.40625zm1.859375 0.03125q0 2.453125 1.3125 3.875q1.328125 1.40625 3.3125 1.40625q2.03125 0 3.34375 -1.421875q1.3125 -1.4375 1.3125 -4.0625q0 -1.65625 -0.5625 -2.890625q-0.546875 -1.234375 -1.640625 -1.921875q-1.078125 -0.6875 -2.421875 -0.6875q-1.90625 0 -3.28125 1.3125q-1.375 1.3125 -1.375 4.390625zm1.78125 -8.1875l0 -1.90625l1.75 0l0 1.90625l-1.75 0zm3.46875 0l0 -1.90625l1.734375 0l0 1.90625l-1.734375 0z"
       id="path3929"
       fill-rule="nonzero"
       fill="#000000" />
    <path
       d="m482.83466 442.3622l213.00787 -197.38583"
       id="path3931"
       fill-rule="evenodd"
       fill-opacity="0.0"
       fill="#000000" />
    <path
       d="m695.8425 183.19423l248.5354 0l0 38.330704l-248.5354 0z"
       id="path3937"
       fill-rule="evenodd"
       fill-opacity="0.0"
       fill="#000000" />
    <path
       d="m705.6238 201.9761q0 -2.859375 1.53125 -4.46875q1.53125 -1.609375 3.953125 -1.609375q1.578125 0 2.84375 0.765625q1.28125 0.75 1.953125 2.109375q0.671875 1.34375 0.671875 3.0625q0 1.75 -0.703125 3.125q-0.703125 1.375 -2.0 2.09375q-1.28125 0.703125 -2.78125 0.703125q-1.609375 0 -2.890625 -0.78125q-1.265625 -0.796875 -1.921875 -2.140625q-0.65625 -1.359375 -0.65625 -2.859375zm1.5625 0.015625q0 2.078125 1.109375 3.265625q1.109375 1.1875 2.796875 1.1875q1.703125 0 2.8125 -1.203125q1.109375 -1.203125 1.109375 -3.40625q0 -1.40625 -0.484375 -2.4375q-0.46875 -1.046875 -1.375 -1.625q-0.90625 -0.578125 -2.046875 -0.578125q-1.609375 0 -2.765625 1.109375q-1.15625 1.109375 -1.15625 3.6875zm11.3359375 5.5625l0 -11.453125l4.328125 0q1.140625 0 1.734375 0.109375q0.84375 0.140625 1.40625 0.53125q0.578125 0.390625 0.921875 1.109375q0.359375 0.703125 0.359375 1.5625q0 1.453125 -0.9375 2.46875q-0.921875 1.015625 -3.359375 1.015625l-2.9375 0l0 4.65625l-1.515625 0zm1.515625 -6.015625l2.96875 0q1.46875 0 2.078125 -0.546875q0.625 -0.546875 0.625 -1.53125q0 -0.71875 -0.375 -1.234375q-0.359375 -0.515625 -0.953125 -0.671875q-0.375 -0.109375 -1.40625 -0.109375l-2.9375 0l0 4.09375zm12.078125 6.015625l0 -10.109375l-3.78125 0l0 -1.34375l9.078125 0l0 1.34375l-3.78125 0l0 10.109375l-1.515625 0zm7.1171875 0l0 -11.453125l1.515625 0l0 11.453125l-1.515625 0zm4.1328125 0l0 -11.453125l2.28125 0l2.71875 8.109375q0.375 1.125 0.546875 1.6875q0.1875 -0.625 0.609375 -1.828125l2.734375 -7.96875l2.046875 0l0 11.453125l-1.46875 0l0 -9.59375l-3.328125 9.59375l-1.359375 0l-3.3125 -9.75l0 9.75l-1.46875 0zm13.40625 0l0 -11.453125l8.28125 0l0 1.34375l-6.765625 0l0 3.515625l6.34375 0l0 1.34375l-6.34375 0l0 3.890625l7.03125 0l0 1.359375l-8.546875 0zm10.671875 0l0 -11.453125l5.078125 0q1.53125 0 2.328125 0.3125q0.796875 0.296875 1.265625 1.078125q0.484375 0.78125 0.484375 1.734375q0 1.21875 -0.796875 2.0625q-0.78125 0.828125 -2.4375 1.046875q0.609375 0.296875 0.921875 0.578125q0.65625 0.609375 1.25 1.515625l2.0 3.125l-1.90625 0l-1.515625 -2.390625q-0.671875 -1.03125 -1.109375 -1.578125q-0.421875 -0.546875 -0.765625 -0.765625q-0.328125 -0.21875 -0.6875 -0.296875q-0.25 -0.0625 -0.84375 -0.0625l-1.75 0l0 5.09375l-1.515625 0zm1.515625 -6.40625l3.25 0q1.046875 0 1.625 -0.203125q0.59375 -0.21875 0.890625 -0.6875q0.3125 -0.484375 0.3125 -1.03125q0 -0.8125 -0.59375 -1.328125q-0.59375 -0.53125 -1.859375 -0.53125l-3.625 0l0 3.78125zm8.7421875 6.40625l4.40625 -11.453125l1.640625 0l4.6875 11.453125l-1.734375 0l-1.328125 -3.46875l-4.796875 0l-1.25 3.46875l-1.625 0zm3.3125 -4.703125l3.890625 0l-1.203125 -3.171875q-0.546875 -1.453125 -0.8125 -2.375q-0.21875 1.09375 -0.609375 2.1875l-1.265625 3.359375zm8.65625 4.703125l0 -11.453125l5.078125 0q1.53125 0 2.328125 0.3125q0.796875 0.296875 1.265625 1.078125q0.484375 0.78125 0.484375 1.734375q0 1.21875 -0.796875 2.0625q-0.78125 0.828125 -2.4375 1.046875q0.609375 0.296875 0.921875 0.578125q0.65625 0.609375 1.25 1.515625l2.0 3.125l-1.90625 0l-1.515625 -2.390625q-0.671875 -1.03125 -1.109375 -1.578125q-0.421875 -0.546875 -0.765625 -0.765625q-0.328125 -0.21875 -0.6875 -0.296875q-0.25 -0.0625 -0.84375 -0.0625l-1.75 0l0 5.09375l-1.515625 0zm1.515625 -6.40625l3.25 0q1.046875 0 1.625 -0.203125q0.59375 -0.21875 0.890625 -0.6875q0.3125 -0.484375 0.3125 -1.03125q0 -0.8125 -0.59375 -1.328125q-0.59375 -0.53125 -1.859375 -0.53125l-3.625 0l0 3.78125zm10.0390625 6.40625l0 -11.453125l8.28125 0l0 1.34375l-6.765625 0l0 3.515625l6.34375 0l0 1.34375l-6.34375 0l0 3.890625l7.03125 0l0 1.359375l-8.546875 0zm20.445312 -4.5l0 -1.34375l4.859375 0l0 4.25q-1.125 0.890625 -2.3125 1.34375q-1.1875 0.453125 -2.4375 0.453125q-1.6875 0 -3.0625 -0.71875q-1.375 -0.734375 -2.078125 -2.09375q-0.703125 -1.375 -0.703125 -3.0625q0 -1.671875 0.6875 -3.125q0.703125 -1.453125 2.015625 -2.15625q1.3125 -0.703125 3.03125 -0.703125q1.234375 0 2.234375 0.40625q1.015625 0.40625 1.578125 1.125q0.578125 0.71875 0.875 1.875l-1.375 0.375q-0.25 -0.875 -0.640625 -1.375q-0.375 -0.5 -1.09375 -0.796875q-0.703125 -0.3125 -1.578125 -0.3125q-1.03125 0 -1.796875 0.328125q-0.75 0.3125 -1.21875 0.828125q-0.46875 0.515625 -0.71875 1.125q-0.4375 1.0625 -0.4375 2.3125q0 1.53125 0.515625 2.5625q0.53125 1.03125 1.53125 1.53125q1.015625 0.5 2.15625 0.5q0.984375 0 1.921875 -0.375q0.9375 -0.390625 1.421875 -0.8125l0 -2.140625l-3.375 0zm7.0234375 4.5l0 -11.453125l1.515625 0l0 10.09375l5.640625 0l0 1.359375l-7.15625 0zm8.5078125 -5.578125q0 -2.859375 1.53125 -4.46875q1.53125 -1.609375 3.953125 -1.609375q1.578125 0 2.84375 0.765625q1.28125 0.75 1.953125 2.109375q0.671875 1.34375 0.671875 3.0625q0 1.75 -0.703125 3.125q-0.703125 1.375 -2.0 2.09375q-1.28125 0.703125 -2.78125 0.703125q-1.609375 0 -2.890625 -0.78125q-1.265625 -0.796875 -1.921875 -2.140625q-0.65625 -1.359375 -0.65625 -2.859375zm1.5625 0.015625q0 2.078125 1.109375 3.265625q1.109375 1.1875 2.796875 1.1875q1.703125 0 2.8125 -1.203125q1.109375 -1.203125 1.109375 -3.40625q0 -1.40625 -0.484375 -2.4375q-0.46875 -1.046875 -1.375 -1.625q-0.90625 -0.578125 -2.046875 -0.578125q-1.609375 0 -2.765625 1.109375q-1.15625 1.109375 -1.15625 3.6875zm11.2734375 5.5625l0 -11.453125l4.296875 0q1.3125 0 2.109375 0.34375q0.796875 0.34375 1.234375 1.078125q0.453125 0.71875 0.453125 1.5q0 0.734375 -0.40625 1.390625q-0.390625 0.640625 -1.1875 1.046875q1.03125 0.296875 1.59375 1.03125q0.5625 0.734375 0.5625 1.734375q0 0.8125 -0.34375 1.5q-0.34375 0.6875 -0.84375 1.0625q-0.5 0.375 -1.25 0.578125q-0.75 0.1875 -1.84375 0.1875l-4.375 0zm1.515625 -6.640625l2.484375 0q1.0 0 1.4375 -0.140625q0.578125 -0.171875 0.875 -0.5625q0.296875 -0.40625 0.296875 -1.0q0 -0.578125 -0.28125 -1.0q-0.265625 -0.4375 -0.78125 -0.59375q-0.5 -0.171875 -1.734375 -0.171875l-2.296875 0l0 3.46875zm0 5.28125l2.859375 0q0.734375 0 1.03125 -0.046875q0.515625 -0.09375 0.859375 -0.3125q0.359375 -0.21875 0.578125 -0.640625q0.234375 -0.421875 0.234375 -0.96875q0 -0.640625 -0.328125 -1.109375q-0.328125 -0.46875 -0.90625 -0.65625q-0.578125 -0.203125 -1.671875 -0.203125l-2.65625 0l0 3.9375zm7.953125 1.359375l4.40625 -11.453125l1.640625 0l4.6875 11.453125l-1.734375 0l-1.328125 -3.46875l-4.796875 0l-1.25 3.46875l-1.625 0zm3.3125 -4.703125l3.890625 0l-1.203125 -3.171875q-0.546875 -1.453125 -0.8125 -2.375q-0.21875 1.09375 -0.609375 2.1875l-1.265625 3.359375zm8.5625 4.703125l0 -11.453125l1.515625 0l0 10.09375l5.640625 0l0 1.359375l-7.15625 0zm13.34375 0l0 -11.453125l1.515625 0l0 5.671875l5.6875 -5.671875l2.0625 0l-4.8125 4.640625l5.015625 6.8125l-2.0 0l-4.078125 -5.796875l-1.875 1.828125l0 3.96875l-1.515625 0zm10.28125 -5.578125q0 -2.859375 1.53125 -4.46875q1.53125 -1.609375 3.953125 -1.609375q1.578125 0 2.84375 0.765625q1.28125 0.75 1.953125 2.109375q0.671875 1.34375 0.671875 3.0625q0 1.75 -0.703125 3.125q-0.703125 1.375 -2.0 2.09375q-1.28125 0.703125 -2.78125 0.703125q-1.609375 0 -2.890625 -0.78125q-1.265625 -0.796875 -1.921875 -2.140625q-0.65625 -1.359375 -0.65625 -2.859375zm1.5625 0.015625q0 2.078125 1.109375 3.265625q1.109375 1.1875 2.796875 1.1875q1.703125 0 2.8125 -1.203125q1.109375 -1.203125 1.109375 -3.40625q0 -1.40625 -0.484375 -2.4375q-0.46875 -1.046875 -1.375 -1.625q-0.90625 -0.578125 -2.046875 -0.578125q-1.609375 0 -2.765625 1.109375q-1.15625 1.109375 -1.15625 3.6875zm2.140625 -6.359375l0 -1.609375l1.46875 0l0 1.609375l-1.46875 0zm2.90625 0l0 -1.609375l1.46875 0l0 1.609375l-1.46875 0z"
       id="path3939"
       fill-rule="nonzero"
       fill="#000000" />
    <path
       d="m640.4724 182.45407l55.370117 19.905502"
       id="path3941"
       fill-rule="evenodd"
       fill-opacity="0.0"
       fill="#000000" />
    <path
       d="m 308.34516,367.66798 0,0 c 0,-37.25964 45.77975,-67.46457 102.25198,-67.46457 l 0,0 c 56.4722,0 102.25195,30.20493 102.25195,67.46457 l 0,0 c 0,37.25964 -45.77976,67.46457 -102.25195,67.46457 l 0,0 c -56.47223,0 -102.25198,-30.20493 -102.25198,-67.46457 z"
       id="path3947"
       inkscape:connector-curvature="0"
       style="fill:#000000;fill-opacity:0;fill-rule:evenodd" />
    <path
       d="m695.8425 255.64043l187.46454 0l0 134.92912l-187.46454 0z"
       id="path3951"
       fill-rule="evenodd"
       fill-opacity="0.0"
       fill="#000000" />
    <path
       d="m706.23315 282.56042l0 -13.59375l1.796875 0l0 11.984375l6.703125 0l0 1.609375l-8.5 0zm9.906982 -6.625q0 -3.390625 1.8125 -5.296875q1.828125 -1.921875 4.703125 -1.921875q1.875 0 3.390625 0.90625q1.515625 0.890625 2.296875 2.5q0.796875 1.609375 0.796875 3.65625q0 2.0625 -0.84375 3.703125q-0.828125 1.625 -2.359375 2.46875q-1.53125 0.84375 -3.296875 0.84375q-1.921875 0 -3.4375 -0.921875q-1.5 -0.9375 -2.28125 -2.53125q-0.78125 -1.609375 -0.78125 -3.40625zm1.859375 0.03125q0 2.453125 1.3125 3.875q1.328125 1.40625 3.3125 1.40625q2.03125 0 3.34375 -1.421875q1.3125 -1.4375 1.3125 -4.0625q0 -1.65625 -0.5625 -2.890625q-0.546875 -1.234375 -1.640625 -1.921875q-1.078125 -0.6875 -2.421875 -0.6875q-1.90625 0 -3.28125 1.3125q-1.375 1.3125 -1.375 4.390625zm22.902039 1.828125l1.796875 0.453125q-0.5625 2.21875 -2.03125 3.390625q-1.46875 1.15625 -3.59375 1.15625q-2.203125 0 -3.578125 -0.890625q-1.375 -0.90625 -2.09375 -2.59375q-0.71875 -1.703125 -0.71875 -3.65625q0 -2.125 0.796875 -3.703125q0.8125 -1.578125 2.3125 -2.390625q1.5 -0.828125 3.296875 -0.828125q2.046875 0 3.4375 1.046875q1.390625 1.03125 1.9375 2.90625l-1.765625 0.421875q-0.46875 -1.484375 -1.375 -2.15625q-0.90625 -0.6875 -2.265625 -0.6875q-1.5625 0 -2.625 0.75q-1.046875 0.75 -1.484375 2.03125q-0.421875 1.265625 -0.421875 2.609375q0 1.734375 0.5 3.03125q0.515625 1.28125 1.578125 1.921875q1.078125 0.640625 2.3125 0.640625q1.515625 0 2.5625 -0.859375q1.046875 -0.875 1.421875 -2.59375zm3.6917114 4.765625l0 -13.59375l1.796875 0l0 6.734375l6.765625 -6.734375l2.4375 0l-5.703125 5.5l5.953125 8.09375l-2.375 0l-4.84375 -6.890625l-2.234375 2.171875l0 4.71875l-1.796875 0zm11.9122925 -4.375l1.6875 -0.140625q0.125 1.015625 0.5625 1.671875q0.4375 0.65625 1.359375 1.0625q0.9375 0.40625 2.09375 0.40625q1.03125 0 1.8125 -0.3125q0.796875 -0.3125 1.1875 -0.84375q0.390625 -0.53125 0.390625 -1.15625q0 -0.640625 -0.375 -1.109375q-0.375 -0.484375 -1.234375 -0.8125q-0.546875 -0.21875 -2.421875 -0.65625q-1.875 -0.453125 -2.625 -0.859375q-0.96875 -0.515625 -1.453125 -1.265625q-0.46875 -0.75 -0.46875 -1.6875q0 -1.03125 0.578125 -1.921875q0.59375 -0.90625 1.703125 -1.359375q1.125 -0.46875 2.5 -0.46875q1.515625 0 2.671875 0.484375q1.15625 0.484375 1.765625 1.4375q0.625 0.9375 0.671875 2.140625l-1.71875 0.125q-0.140625 -1.28125 -0.953125 -1.9375q-0.796875 -0.671875 -2.359375 -0.671875q-1.625 0 -2.375 0.609375q-0.75 0.59375 -0.75 1.4375q0 0.734375 0.53125 1.203125q0.515625 0.46875 2.703125 0.96875q2.203125 0.5 3.015625 0.875q1.1875 0.546875 1.75 1.390625q0.578125 0.828125 0.578125 1.921875q0 1.09375 -0.625 2.0625q-0.625 0.953125 -1.796875 1.484375q-1.15625 0.53125 -2.609375 0.53125q-1.84375 0 -3.09375 -0.53125q-1.25 -0.546875 -1.96875 -1.625q-0.703125 -1.078125 -0.734375 -2.453125zm16.506104 4.375l0 -12.0l-4.46875 0l0 -1.59375l10.765625 0l0 1.59375l-4.5 0l0 12.0l-1.796875 0zm7.97406 0l0 -13.59375l9.84375 0l0 1.59375l-8.046875 0l0 4.171875l7.53125 0l0 1.59375l-7.53125 0l0 4.625l8.359375 0l0 1.609375l-10.15625 0zm12.4123535 0l0 -13.59375l5.125 0q1.359375 0 2.078125 0.125q1.0 0.171875 1.671875 0.640625q0.671875 0.46875 1.078125 1.3125q0.421875 0.84375 0.421875 1.84375q0 1.734375 -1.109375 2.9375q-1.09375 1.203125 -3.984375 1.203125l-3.484375 0l0 5.53125l-1.796875 0zm1.796875 -7.140625l3.515625 0q1.75 0 2.46875 -0.640625q0.734375 -0.65625 0.734375 -1.828125q0 -0.859375 -0.4375 -1.46875q-0.421875 -0.609375 -1.125 -0.796875q-0.453125 -0.125 -1.671875 -0.125l-3.484375 0l0 4.859375zm10.6466675 7.140625l0 -13.59375l5.125 0q1.359375 0 2.078125 0.125q1.0 0.171875 1.671875 0.640625q0.671875 0.46875 1.078125 1.3125q0.421875 0.84375 0.421875 1.84375q0 1.734375 -1.109375 2.9375q-1.09375 1.203125 -3.984375 1.203125l-3.484375 0l0 5.53125l-1.796875 0zm1.796875 -7.140625l3.515625 0q1.75 0 2.46875 -0.640625q0.734375 -0.65625 0.734375 -1.828125q0 -0.859375 -0.4375 -1.46875q-0.421875 -0.609375 -1.125 -0.796875q-0.453125 -0.125 -1.671875 -0.125l-3.484375 0l0 4.859375zm10.9436035 7.140625l0 -13.59375l1.8125 0l0 13.59375l-1.8125 0zm4.8707886 0l0 -13.59375l1.84375 0l7.140625 10.671875l0 -10.671875l1.71875 0l0 13.59375l-1.84375 0l-7.140625 -10.6875l0 10.6875l-1.71875 0zm19.847961 -5.328125l0 -1.609375l5.765625 0l0 5.046875q-1.328125 1.0625 -2.75 1.59375q-1.40625 0.53125 -2.890625 0.53125q-2.0 0 -3.640625 -0.859375q-1.625 -0.859375 -2.46875 -2.484375q-0.828125 -1.625 -0.828125 -3.625q0 -1.984375 0.828125 -3.703125q0.828125 -1.71875 2.390625 -2.546875q1.5625 -0.84375 3.59375 -0.84375q1.46875 0 2.65625 0.484375q1.203125 0.46875 1.875 1.328125q0.671875 0.84375 1.03125 2.21875l-1.625 0.4375q-0.3125 -1.03125 -0.765625 -1.625q-0.453125 -0.59375 -1.296875 -0.953125q-0.84375 -0.359375 -1.875 -0.359375q-1.234375 0 -2.140625 0.375q-0.890625 0.375 -1.453125 1.0q-0.546875 0.609375 -0.84375 1.34375q-0.53125 1.25 -0.53125 2.734375q0 1.8125 0.625 3.046875q0.640625 1.21875 1.828125 1.8125q1.203125 0.59375 2.546875 0.59375q1.171875 0 2.28125 -0.453125q1.109375 -0.453125 1.6875 -0.953125l0 -2.53125l-4.0 0z"
       id="path3953"
       fill-rule="nonzero"
       fill="#000000" />
    <path
       d="m396.2126 396.2126l19.88272 0l0 -119.27557l281.18814 0"
       id="path3955"
       fill-rule="evenodd"
       fill-opacity="0.0"
       fill="#000000" />
    <path
       d="m695.8425 292.53543l204.5039 0l0 42.614166l-204.5039 0z"
       id="path3961"
       fill-rule="evenodd"
       fill-opacity="0.0"
       fill="#000000" />
    <path
       d="m705.7019 315.08044l1.6875 -0.140625q0.125 1.015625 0.5625 1.671875q0.4375 0.65625 1.359375 1.0625q0.9375 0.40625 2.09375 0.40625q1.03125 0 1.8125 -0.3125q0.796875 -0.3125 1.1875 -0.84375q0.390625 -0.53125 0.390625 -1.15625q0 -0.640625 -0.375 -1.109375q-0.375 -0.484375 -1.234375 -0.8125q-0.546875 -0.21875 -2.421875 -0.65625q-1.875 -0.453125 -2.625 -0.859375q-0.96875 -0.515625 -1.453125 -1.265625q-0.46875 -0.75 -0.46875 -1.6875q0 -1.03125 0.578125 -1.921875q0.59375 -0.90625 1.703125 -1.359375q1.125 -0.46875 2.5 -0.46875q1.515625 0 2.671875 0.484375q1.15625 0.484375 1.765625 1.4375q0.625 0.9375 0.671875 2.140625l-1.71875 0.125q-0.140625 -1.28125 -0.953125 -1.9375q-0.796875 -0.671875 -2.359375 -0.671875q-1.625 0 -2.375 0.609375q-0.75 0.59375 -0.75 1.4375q0 0.734375 0.53125 1.203125q0.515625 0.46875 2.703125 0.96875q2.203125 0.5 3.015625 0.875q1.1875 0.546875 1.75 1.390625q0.578125 0.828125 0.578125 1.921875q0 1.09375 -0.625 2.0625q-0.625 0.953125 -1.796875 1.484375q-1.15625 0.53125 -2.609375 0.53125q-1.84375 0 -3.09375 -0.53125q-1.25 -0.546875 -1.96875 -1.625q-0.703125 -1.078125 -0.734375 -2.453125zm13.3497925 4.375l0 -13.59375l1.8125 0l0 13.59375l-1.8125 0zm4.8708496 0l0 -13.59375l1.84375 0l7.140625 10.671875l0 -10.671875l1.71875 0l0 13.59375l-1.84375 0l-7.140625 -10.6875l0 10.6875l-1.71875 0zm19.8479 -5.328125l0 -1.609375l5.765625 0l0 5.046875q-1.328125 1.0625 -2.75 1.59375q-1.40625 0.53125 -2.890625 0.53125q-2.0 0 -3.640625 -0.859375q-1.625 -0.859375 -2.46875 -2.484375q-0.828125 -1.625 -0.828125 -3.625q0 -1.984375 0.828125 -3.703125q0.828125 -1.71875 2.390625 -2.546875q1.5625 -0.84375 3.59375 -0.84375q1.46875 0 2.65625 0.484375q1.203125 0.46875 1.875 1.328125q0.671875 0.84375 1.03125 2.21875l-1.625 0.4375q-0.3125 -1.03125 -0.765625 -1.625q-0.453125 -0.59375 -1.296875 -0.953125q-0.84375 -0.359375 -1.875 -0.359375q-1.234375 0 -2.140625 0.375q-0.890625 0.375 -1.453125 1.0q-0.546875 0.609375 -0.84375 1.34375q-0.53125 1.25 -0.53125 2.734375q0 1.8125 0.625 3.046875q0.640625 1.21875 1.828125 1.8125q1.203125 0.59375 2.546875 0.59375q1.171875 0 2.28125 -0.453125q1.109375 -0.453125 1.6875 -0.953125l0 -2.53125l-4.0 0zm8.073975 5.328125l0 -13.59375l1.796875 0l0 11.984375l6.703125 0l0 1.609375l-8.5 0zm10.485046 0l0 -13.59375l9.84375 0l0 1.59375l-8.046875 0l0 4.171875l7.53125 0l0 1.59375l-7.53125 0l0 4.625l8.359375 0l0 1.609375l-10.15625 0zm27.298767 -4.765625l1.796875 0.453125q-0.5625 2.21875 -2.03125 3.390625q-1.46875 1.15625 -3.59375 1.15625q-2.203125 0 -3.578125 -0.890625q-1.375 -0.90625 -2.09375 -2.59375q-0.71875 -1.703125 -0.71875 -3.65625q0 -2.125 0.796875 -3.703125q0.8125 -1.578125 2.3125 -2.390625q1.5 -0.828125 3.296875 -0.828125q2.046875 0 3.4375 1.046875q1.390625 1.03125 1.9375 2.90625l-1.765625 0.421875q-0.46875 -1.484375 -1.375 -2.15625q-0.90625 -0.6875 -2.265625 -0.6875q-1.5625 0 -2.625 0.75q-1.046875 0.75 -1.484375 2.03125q-0.421875 1.265625 -0.421875 2.609375q0 1.734375 0.5 3.03125q0.515625 1.28125 1.578125 1.921875q1.078125 0.640625 2.3125 0.640625q1.515625 0 2.5625 -0.859375q1.046875 -0.875 1.421875 -2.59375zm3.2229614 -1.859375q0 -3.390625 1.8125 -5.296875q1.828125 -1.921875 4.703125 -1.921875q1.875 0 3.390625 0.90625q1.515625 0.890625 2.296875 2.5q0.796875 1.609375 0.796875 3.65625q0 2.0625 -0.84375 3.703125q-0.828125 1.625 -2.359375 2.46875q-1.53125 0.84375 -3.296875 0.84375q-1.921875 0 -3.4375 -0.921875q-1.5 -0.9375 -2.28125 -2.53125q-0.78125 -1.609375 -0.78125 -3.40625zm1.859375 0.03125q0 2.453125 1.3125 3.875q1.328125 1.40625 3.3125 1.40625q2.03125 0 3.34375 -1.421875q1.3125 -1.4375 1.3125 -4.0625q0 -1.65625 -0.5625 -2.890625q-0.546875 -1.234375 -1.640625 -1.921875q-1.078125 -0.6875 -2.421875 -0.6875q-1.90625 0 -3.28125 1.3125q-1.375 1.3125 -1.375 4.390625zm13.230164 6.59375l0 -13.59375l6.03125 0q1.8125 0 2.75 0.359375q0.953125 0.359375 1.515625 1.296875q0.5625 0.921875 0.5625 2.046875q0 1.453125 -0.9375 2.453125q-0.921875 0.984375 -2.890625 1.25q0.71875 0.34375 1.09375 0.671875q0.78125 0.734375 1.484375 1.8125l2.375 3.703125l-2.265625 0l-1.796875 -2.828125q-0.796875 -1.21875 -1.3125 -1.875q-0.5 -0.65625 -0.90625 -0.90625q-0.40625 -0.265625 -0.8125 -0.359375q-0.3125 -0.078125 -1.015625 -0.078125l-2.078125 0l0 6.046875l-1.796875 0zm1.796875 -7.59375l3.859375 0q1.234375 0 1.921875 -0.25q0.703125 -0.265625 1.0625 -0.828125q0.375 -0.5625 0.375 -1.21875q0 -0.96875 -0.703125 -1.578125q-0.703125 -0.625 -2.21875 -0.625l-4.296875 0l0 4.5zm11.676086 7.59375l0 -13.59375l9.84375 0l0 1.59375l-8.046875 0l0 4.171875l7.53125 0l0 1.59375l-7.53125 0l0 4.625l8.359375 0l0 1.609375l-10.15625 0z"
       id="path3963"
       fill-rule="nonzero"
       fill="#000000" />
    <path
       d="m552.4094 318.09448l143.4331 -4.251953"
       id="path3965"
       fill-rule="evenodd"
       fill-opacity="0.0"
       fill="#000000" />
    <path
       d="m 190.36413,175.36413 59.27173,0 0,39.27174 -59.27173,0 z"
       id="path3973"
       inkscape:connector-curvature="0"
       style="stroke:#000000;stroke-width:0.72826314000000003;stroke-linecap:butt;stroke-linejoin:round;fill:#40c06d;fill-opacity:0.50196081" />
    <path
       d="m 207.35726,197.03169 1.75957,0.45322 q -0.55081,2.21922 -1.98908,3.39135 -1.43825,1.1565 -3.51911,1.1565 -2.15738,0 -3.50384,-0.89082 -1.34645,-0.90644 -2.05028,-2.5943 -0.70383,-1.70349 -0.70383,-3.65704 0,-2.12545 0.78034,-3.70391 0.79562,-1.57847 2.26448,-2.39114 1.46886,-0.8283 3.22842,-0.8283 2.00436,0 3.3661,1.0471 1.36178,1.03147 1.89728,2.90687 l -1.72896,0.42197 q -0.45902,-1.4847 -1.34645,-2.15671 -0.88744,-0.68765 -2.21859,-0.68765 -1.53006,0 -2.5705,0.75016 -1.02513,0.75016 -1.45355,2.03168 -0.41312,1.2659 -0.41312,2.60993 0,1.73473 0.48962,3.0319 0.50492,1.28153 1.54536,1.92229 1.05574,0.64076 2.26449,0.64076 1.48415,0 2.50929,-0.85955 1.02513,-0.87519 1.39235,-2.59434 z m 12.42818,-8.83 1.75956,0 0,7.84543 q 0,2.06292 -0.45902,3.26633 -0.44372,1.20338 -1.63715,1.96917 -1.17814,0.75014 -3.10602,0.75014 -1.86667,0 -3.06012,-0.65638 -1.19346,-0.65639 -1.69837,-1.90666 -0.50492,-1.25027 -0.50492,-3.4226 l 0,-7.84543 1.75957,0 0,7.84543 q 0,1.766 0.32132,2.60993 0.32131,0.84393 1.10164,1.29715 0.79562,0.45321 1.92787,0.45321 1.94319,0 2.76941,-0.8908 0.82623,-0.90644 0.82623,-3.46949 l 0,-7.84543 z m 4.38007,13.59665 0,-13.59665 1.75957,0 0,11.98695 6.56394,0 0,1.60971 -8.32351,0 z m 10.16028,0 0,-13.59665 1.75957,0 0,11.98695 6.56395,0 0,1.60971 -8.32352,0 z"
       id="path3975"
       inkscape:connector-curvature="0"
       style="fill:#000000;fill-rule:nonzero" />
    <path
       d="m113.32809 251.07874l0 17.742615l200.50394 0l0 52.11566"
       id="path3991"
       fill-rule="evenodd"
       fill-opacity="0.0"
       fill="#000000" />
    <path
       d="m15.721785 364.71652l130.64566 0l0 237.38583l-130.64566 0z"
       id="path3997"
       fill-rule="evenodd"
       fill-opacity="0.0"
       fill="#000000" />
    <path
       d="m116.32021 292.40158l-35.275597 72.31494"
       id="path4003"
       fill-rule="evenodd"
       fill-opacity="0.0"
       fill="#000000" />
    <path
       style="fill:none;stroke:#000000;stroke-width:1px;stroke-linecap:butt;stroke-linejoin:miter;stroke-opacity:1;marker-start:url(#TriangleInL);marker-end:url(#TriangleOutL)"
       d="m 440,90 0,30"
       id="path4036"
       inkscape:connector-curvature="0" />
    <path
       style="fill:#000000;stroke:#000000;stroke-width:1;stroke-linecap:butt;stroke-linejoin:miter;stroke-opacity:1;marker-mid:none;marker-end:url(#TriangleOutL);marker-start:url(#TriangleInL);fill-opacity:1;stroke-miterlimit:100;stroke-dasharray:none"
       d="m 400,90 0,30"
       id="path4038"
       inkscape:connector-curvature="0" />
    <path
       style="fill:none;stroke:#000000;stroke-width:1px;stroke-linecap:butt;stroke-linejoin:miter;stroke-opacity:1;marker-start:url(#TriangleInL);marker-end:url(#TriangleOutL)"
       d="m 400,160 0,20"
       id="path13840"
       inkscape:connector-curvature="0" />
    <path
       style="fill:none;stroke:#000000;stroke-width:1px;stroke-linecap:butt;stroke-linejoin:miter;stroke-opacity:1;marker-start:url(#TriangleInL);marker-end:url(#TriangleOutL)"
       d="m 440,160 0,20"
       id="path13842"
       inkscape:connector-curvature="0" />
    <path
       style="fill:none;stroke:#000000;stroke-width:1px;stroke-linecap:butt;stroke-linejoin:miter;stroke-opacity:1;marker-start:none;marker-end:url(#TriangleOutL)"
       d="m 270,140 -40,0 0,35"
       id="path15510"
       inkscape:connector-curvature="0"
       sodipodi:nodetypes="ccc" />
    <path
       style="fill:none;stroke:#000000;stroke-width:1px;stroke-linecap:butt;stroke-linejoin:miter;stroke-opacity:1;marker-start:none;marker-end:url(#TriangleOutL)"
       d="m 210,90 0,85"
       id="path15928"
       inkscape:connector-curvature="0"
       sodipodi:nodetypes="cc" />
    <path
       style="fill:none;stroke:#000000;stroke-width:1px;stroke-linecap:butt;stroke-linejoin:miter;stroke-opacity:1;marker-start:none;marker-mid:none;marker-end:url(#TriangleOutL)"
       d="m 230,215 0,15 120,0 0,20"
       id="path16554"
       inkscape:connector-curvature="0"
       sodipodi:nodetypes="cccc" />
    <path
       style="fill:none;stroke:#000000;stroke-width:1px;stroke-linecap:butt;stroke-linejoin:miter;stroke-opacity:1;marker-end:url(#TriangleOutL)"
       d="m 260,140 0,100 60,0 0,80 55,0 0,10"
       id="path17180"
       inkscape:connector-curvature="0"
       sodipodi:nodetypes="cccccc" />
    <path
       style="fill:none;stroke:#000000;stroke-width:1px;stroke-linecap:butt;stroke-linejoin:miter;stroke-opacity:1;marker-end:url(#TriangleOutL)"
       d="m 375,320 80,0 0,10"
       id="path17390"
       inkscape:connector-curvature="0"
       sodipodi:nodetypes="ccc" />
    <path
       style="fill:none;stroke:#000000;stroke-width:1px;stroke-linecap:butt;stroke-linejoin:miter;stroke-opacity:1;marker-end:url(#TriangleOutL)"
       d="m 545,310 0,-10 -75,0 0,30"
       id="path17600"
       inkscape:connector-curvature="0"
       sodipodi:nodetypes="cccc" />
    <path
       style="fill:none;stroke:#000000;stroke-width:1px;stroke-linecap:butt;stroke-linejoin:miter;stroke-opacity:1;marker-end:url(#TriangleOutL)"
       d="m 470,300 -80,0 0,30"
       id="path17602"
       inkscape:connector-curvature="0"
       sodipodi:nodetypes="ccc" />
    <text
       xml:space="preserve"
       style="font-size:40px;font-style:normal;font-weight:normal;line-height:100%;letter-spacing:0px;word-spacing:0px;fill:#000000;fill-opacity:1;stroke:none;font-family:Sans"
       x="537.12891"
       y="334.92188"
       id="text18020"
       sodipodi:linespacing="100%"><tspan
         sodipodi:role="line"
         id="tspan18022"
         x="537.12891"
         y="334.92188"
         style="font-size:20px;line-height:100%">Q</tspan><tspan
         sodipodi:role="line"
         x="537.12891"
         y="354.92188"
         id="tspan18024"
         style="font-size:20px;line-height:100%">U</tspan><tspan
         sodipodi:role="line"
         x="537.12891"
         y="374.92188"
         id="tspan18026"
         style="font-size:20px;line-height:100%">E</tspan><tspan
         sodipodi:role="line"
         x="537.12891"
         y="394.92188"
         id="tspan18028"
         style="font-size:20px;line-height:100%">U</tspan><tspan
         sodipodi:role="line"
         x="537.12891"
         y="414.92188"
         id="tspan18030"
         style="font-size:20px;line-height:100%">E</tspan></text>
    <path
       style="fill:none;stroke:#000000;stroke-width:1px;stroke-linecap:butt;stroke-linejoin:miter;stroke-opacity:1;marker-start:url(#TriangleInL);marker-end:none"
       d="m 405,330 0,-41"
       id="path18032"
       inkscape:connector-curvature="0"
       sodipodi:nodetypes="cc" />
    <path
       style="fill:none;stroke:#000000;stroke-width:1px;stroke-linecap:butt;stroke-linejoin:miter;stroke-opacity:1;marker-start:url(#TriangleInL)"
       d="m 485,330 0,-40"
       id="path19490"
       inkscape:connector-curvature="0" />
    <path
       style="fill:none;stroke:#000000;stroke-width:1px;stroke-linecap:butt;stroke-linejoin:miter;stroke-opacity:1;marker-start:none;marker-end:url(#TriangleOutL)"
       d="m 545,445 0,-20"
       id="path19700"
       inkscape:connector-curvature="0" />
    <path
       style="fill:none;stroke:#000000;stroke-width:1px;stroke-linecap:butt;stroke-linejoin:miter;stroke-opacity:1;marker-start:none;marker-end:url(#TriangleOutL)"
       d="m 470,405 0,40"
       id="path20534"
       inkscape:connector-curvature="0" />
    <path
       style="fill:none;stroke:#000000;stroke-width:1px;stroke-linecap:butt;stroke-linejoin:miter;stroke-opacity:1;marker-end:url(#TriangleOutL)"
       d="m 390,405 0,40"
       id="path21368"
       inkscape:connector-curvature="0" />
    <path
       style="fill:none;stroke:#000000;stroke-width:1px;stroke-linecap:butt;stroke-linejoin:miter;stroke-opacity:1;marker-end:url(#TriangleOutL)"
       d="m 340,290 0,155"
       id="path21786"
       inkscape:connector-curvature="0" />
    <path
       style="fill:none;stroke:#000000;stroke-width:1px;stroke-linecap:butt;stroke-linejoin:miter;stroke-opacity:1;marker-end:url(#TriangleOutL)"
       d="m 350,445 0,-155"
       id="path22204"
       inkscape:connector-curvature="0" />
    <path
       d="m 110.36413,175.36413 59.27173,0 0,39.27174 -59.27173,0 z"
       id="path3973-7"
       inkscape:connector-curvature="0"
       style="stroke:#000000;stroke-width:0.72826314000000003;stroke-linecap:butt;stroke-linejoin:round;fill:#40c06d;fill-opacity:0.50196081"
       sodipodi:nodetypes="ccccc" />
    <path
       d="m 127.35726,197.03169 1.75957,0.45322 c -0.36721,1.47948 -1.03023,2.60993 -1.98908,3.39135 -0.95883,0.771 -2.13187,1.1565 -3.51911,1.1565 -1.43825,0 -2.6062,-0.29694 -3.50384,-0.89082 -0.89763,-0.60429 -1.58106,-1.46906 -2.05028,-2.5943 -0.46922,-1.13566 -0.70383,-2.35467 -0.70383,-3.65704 0,-1.41697 0.26011,-2.6516 0.78034,-3.70391 0.53041,-1.05231 1.28524,-1.84936 2.26448,-2.39114 0.97924,-0.5522 2.05538,-0.8283 3.22842,-0.8283 1.33624,0 2.45827,0.34903 3.3661,1.0471 0.90785,0.68765 1.54028,1.6566 1.89728,2.90687 l -1.72896,0.42197 c -0.30601,-0.9898 -0.75483,-1.7087 -1.34645,-2.15671 -0.59163,-0.45843 -1.33116,-0.68765 -2.21859,-0.68765 -1.02004,0 -1.87687,0.25005 -2.5705,0.75016 -0.68342,0.50011 -1.16794,1.17733 -1.45355,2.03168 -0.27541,0.84393 -0.41312,1.71391 -0.41312,2.60993 0,1.15649 0.16321,2.16712 0.48962,3.0319 0.33661,0.85435 0.85173,1.49512 1.54536,1.92229 0.70383,0.42717 1.45866,0.64076 2.26449,0.64076 0.98943,0 1.82586,-0.28652 2.50929,-0.85955 0.68342,-0.58346 1.14754,-1.44824 1.39235,-2.59434 z m 12.42818,-8.83 1.75956,0 0,7.84543 c 0,1.37528 -0.15301,2.46406 -0.45902,3.26633 -0.29581,0.80225 -0.84153,1.45864 -1.63715,1.96917 -0.78543,0.50009 -1.82077,0.75014 -3.10602,0.75014 -1.24445,0 -2.26449,-0.21879 -3.06012,-0.65638 -0.79564,-0.43759 -1.36176,-1.07315 -1.69837,-1.90666 -0.33661,-0.83351 -0.50492,-1.97438 -0.50492,-3.4226 l 0,-7.84543 1.75957,0 0,7.84543 c 0,1.17733 0.10711,2.04731 0.32132,2.60993 0.21421,0.56262 0.58142,0.995 1.10164,1.29715 0.53041,0.30214 1.17304,0.45321 1.92787,0.45321 1.29546,0 2.2186,-0.29693 2.76941,-0.8908 0.55082,-0.60429 0.82623,-1.76079 0.82623,-3.46949 z m 4.38007,13.59665 0,-13.59665 1.75957,0 0,11.98695 6.56394,0 0,1.60971 z m 10.16028,0 0,-13.59665 1.75957,0 0,11.98695 6.56395,0 0,1.60971 z"
       id="path3975-5"
       inkscape:connector-curvature="0"
       style="fill:#000000;fill-rule:nonzero"
       sodipodi:nodetypes="cccsccsccsccccsccsccscccccsccssssccsscscsccccccccccccccc" />
    <path
       style="fill:none;stroke:#000000;stroke-width:1px;stroke-linecap:butt;stroke-linejoin:miter;stroke-opacity:1;marker-start:none;marker-end:url(#TriangleOutL)"
       d="m 270,130 -120,0 0,45"
       id="path15510-3"
       inkscape:connector-curvature="0"
       sodipodi:nodetypes="ccc" />
    <path
       style="fill:none;stroke:#000000;stroke-width:1px;stroke-linecap:butt;stroke-linejoin:miter;stroke-opacity:1;marker-start:none;marker-end:url(#TriangleOutL)"
       d="M 130,90.000002 130,175"
       id="path15928-5"
       inkscape:connector-curvature="0"
       sodipodi:nodetypes="cc" />
    <path
       d="m 250.4462,380.82519 0,0 c 0,-51.36685 17.48556,-93.00787 39.05511,-93.00787 l 0,0 c 10.35807,0 20.2919,9.79901 27.61615,27.24136 7.32425,17.44236 11.43897,41.09928 11.43897,65.76651 l 0,0 c 0,51.36682 -17.48557,93.00787 -39.05512,93.00787 l 0,0 c -21.56955,0 -39.05511,-41.64105 -39.05511,-93.00787 z"
       id="path3781-2"
       inkscape:connector-curvature="0"
       style="fill:#000000;fill-opacity:0;fill-rule:evenodd" />
    <path
       d="m 61.178507,251.07455 238.642983,0 0,38.64298 -238.642983,0 z"
       id="path3805-7"
       inkscape:connector-curvature="0"
       style="stroke:#000000;stroke-width:1;stroke-linecap:butt;stroke-linejoin:round;stroke-miterlimit:10;stroke-dasharray:none;fill:#4082c0;fill-opacity:0.50196081" />
    <path
       d="m 158.43597,272.03125 1.79687,0.45313 q -0.5625,2.21875 -2.03125,3.39062 -1.46875,1.15625 -3.59375,1.15625 -2.20312,0 -3.57812,-0.89062 -1.375,-0.90625 -2.09375,-2.59375 -0.71875,-1.70313 -0.71875,-3.65625 0,-2.125 0.79687,-3.70313 0.8125,-1.57812 2.3125,-2.39062 1.5,-0.82813 3.29688,-0.82813 2.04687,0 3.4375,1.04688 1.39062,1.03125 1.9375,2.90625 l -1.76563,0.42187 q -0.46875,-1.48437 -1.375,-2.15625 -0.90625,-0.6875 -2.26562,-0.6875 -1.5625,0 -2.625,0.75 -1.04688,0.75 -1.48438,2.03125 -0.42187,1.26563 -0.42187,2.60938 0,1.73437 0.5,3.03125 0.51562,1.28125 1.57812,1.92187 1.07813,0.64063 2.3125,0.64063 1.51563,0 2.5625,-0.85938 1.04688,-0.875 1.42188,-2.59375 z m 2.26984,4.76563 5.23438,-13.59375 1.9375,0 5.5625,13.59375 -2.04688,0 -1.59375,-4.125 -5.6875,0 -1.48437,4.125 -1.92187,0 z m 3.92188,-5.57813 4.60937,0 -1.40625,-3.78125 q -0.65625,-1.70312 -0.96875,-2.8125 -0.26562,1.3125 -0.73437,2.59375 l -1.5,4 z m 19.72481,0.8125 1.79688,0.45313 q -0.5625,2.21875 -2.03125,3.39062 -1.46875,1.15625 -3.59375,1.15625 -2.20313,0 -3.57813,-0.89062 -1.375,-0.90625 -2.09375,-2.59375 -0.71875,-1.70313 -0.71875,-3.65625 0,-2.125 0.79688,-3.70313 0.8125,-1.57812 2.3125,-2.39062 1.5,-0.82813 3.29687,-0.82813 2.04688,0 3.4375,1.04688 1.39063,1.03125 1.9375,2.90625 l -1.76562,0.42187 q -0.46875,-1.48437 -1.375,-2.15625 -0.90625,-0.6875 -2.26563,-0.6875 -1.5625,0 -2.625,0.75 -1.04687,0.75 -1.48437,2.03125 -0.42188,1.26563 -0.42188,2.60938 0,1.73437 0.5,3.03125 0.51563,1.28125 1.57813,1.92187 1.07812,0.64063 2.3125,0.64063 1.51562,0 2.5625,-0.85938 1.04687,-0.875 1.42187,-2.59375 z m 3.81672,4.76563 0,-13.59375 1.8125,0 0,5.57812 7.0625,0 0,-5.57812 1.79688,0 0,13.59375 -1.79688,0 0,-6.40625 -7.0625,0 0,6.40625 -1.8125,0 z m 13.45731,0 0,-13.59375 9.84375,0 0,1.59375 -8.04688,0 0,4.17187 7.53125,0 0,1.59375 -7.53125,0 0,4.625 8.35938,0 0,1.60938 -10.15625,0 z"
       id="path3807-0"
       inkscape:connector-curvature="0"
       style="fill:#000000;fill-rule:nonzero" />
    <path
       d="m 90.976677,330.87272 59.046643,0 0,74.04664 -59.046643,0 z"
       id="path3811-9"
       inkscape:connector-curvature="0"
       style="stroke:#000000;stroke-width:0.95335393999999996;stroke-linecap:butt;stroke-linejoin:round;fill:#c040b5;fill-opacity:0.50196081" />
    <path
       d="m 102.70616,372.07573 0,-13.59375 4.6875,0 q 1.57812,0 2.42187,0.1875 1.15625,0.26562 1.98438,0.96875 1.07812,0.92187 1.60937,2.34375 0.53125,1.40625 0.53125,3.21875 0,1.54687 -0.35937,2.75 -0.35938,1.1875 -0.92188,1.98437 -0.5625,0.78125 -1.23437,1.23438 -0.67188,0.4375 -1.625,0.67187 -0.95313,0.23438 -2.1875,0.23438 l -4.90625,0 z m 1.79687,-1.60938 2.90625,0 q 1.34375,0 2.10938,-0.25 0.76562,-0.25 1.21875,-0.70312 0.64062,-0.64063 1,-1.71875 0.35937,-1.07813 0.35937,-2.625 0,-2.125 -0.70312,-3.26563 -0.70313,-1.15625 -1.70313,-1.54687 -0.71875,-0.28125 -2.32812,-0.28125 l -2.85938,0 0,10.39062 z m 11.76981,1.60938 0,-13.59375 9.17188,0 0,1.59375 -7.375,0 0,4.21875 6.375,0 0,1.60937 -6.375,0 0,6.17188 -1.79688,0 z m 20.22412,-13.59375 1.79688,0 0,7.84375 q 0,2.0625 -0.46875,3.26562 -0.45313,1.20313 -1.67188,1.96875 -1.20312,0.75 -3.17187,0.75 -1.90625,0 -3.125,-0.65625 -1.21875,-0.65625 -1.73438,-1.90625 -0.51562,-1.25 -0.51562,-3.42187 l 0,-7.84375 1.79687,0 0,7.84375 q 0,1.76562 0.32813,2.60937 0.32812,0.84375 1.125,1.29688 0.8125,0.45312 1.96875,0.45312 1.98437,0 2.82812,-0.89062 0.84375,-0.90625 0.84375,-3.46875 l 0,-7.84375 z"
       id="path3813-3"
       inkscape:connector-curvature="0"
       style="fill:#000000;fill-rule:nonzero" />
    <path
       d="m 170.97668,330.87272 59.04664,0 0,74.04664 -59.04664,0 z"
       id="path3817-6"
       inkscape:connector-curvature="0"
       style="stroke:#000000;stroke-width:0.95335382000000002;stroke-linecap:butt;stroke-linejoin:round;fill:#c040b5;fill-opacity:0.50196081" />
    <path
       d="m 182.70616,372.07573 0,-13.59375 4.6875,0 q 1.57812,0 2.42187,0.1875 1.15625,0.26562 1.98438,0.96875 1.07812,0.92187 1.60937,2.34375 0.53125,1.40625 0.53125,3.21875 0,1.54687 -0.35937,2.75 -0.35938,1.1875 -0.92188,1.98437 -0.5625,0.78125 -1.23437,1.23438 -0.67188,0.4375 -1.625,0.67187 -0.95313,0.23438 -2.1875,0.23438 l -4.90625,0 z m 1.79687,-1.60938 2.90625,0 q 1.34375,0 2.10938,-0.25 0.76562,-0.25 1.21875,-0.70312 0.64062,-0.64063 1,-1.71875 0.35937,-1.07813 0.35937,-2.625 0,-2.125 -0.70312,-3.26563 -0.70313,-1.15625 -1.70313,-1.54687 -0.71875,-0.28125 -2.32812,-0.28125 l -2.85938,0 0,10.39062 z m 11.76984,1.60938 0,-13.59375 9.17188,0 0,1.59375 -7.375,0 0,4.21875 6.375,0 0,1.60937 -6.375,0 0,6.17188 -1.79688,0 z m 20.22409,-13.59375 1.79688,0 0,7.84375 q 0,2.0625 -0.46875,3.26562 -0.45313,1.20313 -1.67188,1.96875 -1.20312,0.75 -3.17187,0.75 -1.90625,0 -3.125,-0.65625 -1.21875,-0.65625 -1.73438,-1.90625 -0.51562,-1.25 -0.51562,-3.42187 l 0,-7.84375 1.79687,0 0,7.84375 q 0,1.76562 0.32813,2.60937 0.32812,0.84375 1.125,1.29688 0.8125,0.45312 1.96875,0.45312 1.98437,0 2.82812,-0.89062 0.84375,-0.90625 0.84375,-3.46875 l 0,-7.84375 z"
       id="path3819-0"
       inkscape:connector-curvature="0"
       style="fill:#000000;fill-rule:nonzero" />
    <path
       d="m 250.98504,310.88108 49.02992,0 0,114.02992 -49.02992,0 z"
       id="path3823-6"
       inkscape:connector-curvature="0"
       style="stroke:#000000;stroke-width:1;stroke-linecap:butt;stroke-linejoin:round;stroke-miterlimit:10;stroke-dasharray:none;fill:#40bec0;fill-opacity:0.50196081" />
    <path
       d="m 61.001827,445.90246 239.170513,0 0,33.98783 -239.170513,0 z"
       id="path3833-2"
       inkscape:connector-curvature="0"
       style="stroke:#000000;stroke-width:1.00365806000000002;stroke-linecap:butt;stroke-linejoin:round;stroke-miterlimit:10;stroke-dasharray:none;fill:#c04040;fill-opacity:0.50196081" />
    <path
       d="m 116.0831,464.93549 1.79687,0.45312 q -0.5625,2.21875 -2.03125,3.39063 -1.46875,1.15625 -3.59375,1.15625 -2.2031,0 -3.5781,-0.89063 -1.375,-0.90625 -2.09375,-2.59375 -0.71875,-1.70312 -0.71875,-3.65625 0,-2.125 0.79688,-3.70312 0.8125,-1.57813 2.3125,-2.39063 1.49997,-0.82812 3.29685,-0.82812 2.04687,0 3.4375,1.04687 1.39062,1.03125 1.9375,2.90625 l -1.76563,0.42188 q -0.46875,-1.48438 -1.375,-2.15625 -0.90625,-0.6875 -2.26562,-0.6875 -1.5625,0 -2.62498,0.75 -1.04687,0.75 -1.48437,2.03125 -0.42188,1.26562 -0.42188,2.60937 0,1.73438 0.5,3.03125 0.51563,1.28125 1.57813,1.92188 1.0781,0.64062 2.31247,0.64062 1.51563,0 2.5625,-0.85937 1.04688,-0.875 1.42188,-2.59375 z m 3.22296,-1.85938 q 0,-3.39062 1.8125,-5.29687 1.82813,-1.92188 4.70313,-1.92188 1.875,0 3.39062,0.90625 1.51563,0.89063 2.29688,2.5 0.79687,1.60938 0.79687,3.65625 0,2.0625 -0.84375,3.70313 -0.82812,1.625 -2.35937,2.46875 -1.53125,0.84375 -3.29688,0.84375 -1.92187,0 -3.4375,-0.92188 -1.5,-0.9375 -2.28125,-2.53125 -0.78125,-1.60937 -0.78125,-3.40625 z m 1.85938,0.0312 q 0,2.45313 1.3125,3.875 1.32812,1.40625 3.3125,1.40625 2.03125,0 3.34375,-1.42187 1.3125,-1.4375 1.3125,-4.0625 0,-1.65625 -0.5625,-2.89063 -0.54688,-1.23437 -1.64063,-1.92187 -1.07812,-0.6875 -2.42187,-0.6875 -1.90625,0 -3.28125,1.3125 -1.375,1.3125 -1.375,4.39062 z m 13.18328,6.59375 0,-13.59375 1.84375,0 7.14063,10.67188 0,-10.67188 1.71875,0 0,13.59375 -1.84375,0 -7.14063,-10.6875 0,10.6875 -1.71875,0 z m 16.94172,0 0,-12 -4.46875,0 0,-1.59375 10.76562,0 0,1.59375 -4.5,0 0,12 -1.79687,0 z m 7.97408,0 0,-13.59375 6.03125,0 q 1.8125,0 2.75,0.35938 0.95313,0.35937 1.51563,1.29687 0.5625,0.92188 0.5625,2.04688 0,1.45312 -0.9375,2.45312 -0.92188,0.98438 -2.89063,1.25 0.71875,0.34375 1.09375,0.67188 0.78125,0.73437 1.48438,1.8125 l 2.375,3.70312 -2.26563,0 -1.79687,-2.82812 q -0.79688,-1.21875 -1.3125,-1.875 -0.5,-0.65625 -0.90625,-0.90625 -0.40625,-0.26563 -0.8125,-0.35938 -0.3125,-0.0781 -1.01563,-0.0781 l -2.07812,0 0,6.04688 -1.79688,0 z m 1.79688,-7.59375 3.85937,0 q 1.23438,0 1.92188,-0.25 0.70312,-0.26562 1.0625,-0.82812 0.375,-0.5625 0.375,-1.21875 0,-0.96875 -0.70313,-1.57813 -0.70312,-0.625 -2.21875,-0.625 l -4.29687,0 0,4.5 z m 11.09796,0.96875 q 0,-3.39062 1.8125,-5.29687 1.82812,-1.92188 4.70312,-1.92188 1.875,0 3.39063,0.90625 1.51562,0.89063 2.29687,2.5 0.79688,1.60938 0.79688,3.65625 0,2.0625 -0.84375,3.70313 -0.82813,1.625 -2.35938,2.46875 -1.53125,0.84375 -3.29687,0.84375 -1.92188,0 -3.4375,-0.92188 -1.5,-0.9375 -2.28125,-2.53125 -0.78125,-1.60937 -0.78125,-3.40625 z m 1.85937,0.0312 q 0,2.45312 1.3125,3.875 1.32813,1.40625 3.3125,1.40625 2.03125,0 3.34375,-1.42188 1.3125,-1.4375 1.3125,-4.0625 0,-1.65625 -0.5625,-2.89062 -0.54687,-1.23438 -1.64062,-1.92188 -1.07813,-0.6875 -2.42188,-0.6875 -1.90625,0 -3.28125,1.3125 -1.375,1.3125 -1.375,4.39063 z m 13.12079,6.59375 0,-13.59375 1.79688,0 0,11.98437 6.70312,0 0,1.60938 -8.5,0 z m 15.73089,0 0,-13.59375 9.17188,0 0,1.59375 -7.375,0 0,4.21875 6.375,0 0,1.60937 -6.375,0 0,6.17188 -1.79688,0 z m 11.22412,0 0,-13.59375 1.79688,0 0,11.98437 6.70312,0 0,1.60938 -8.5,0 z m 9.90696,-6.625 q 0,-3.39063 1.8125,-5.29688 1.82812,-1.92188 4.70312,-1.92188 1.875,0 3.39063,0.90625 1.51562,0.89063 2.29687,2.5 0.79688,1.60938 0.79688,3.65625 0,2.0625 -0.84375,3.70313 -0.82813,1.625 -2.35938,2.46875 -1.53125,0.84375 -3.29687,0.84375 -1.92188,0 -3.4375,-0.92188 -1.5,-0.9375 -2.28125,-2.53125 -0.78125,-1.60937 -0.78125,-3.40625 z m 1.85937,0.0312 q 0,2.45313 1.3125,3.875 1.32813,1.40625 3.3125,1.40625 2.03125,0 3.34375,-1.42187 1.3125,-1.4375 1.3125,-4.0625 0,-1.65625 -0.5625,-2.89063 -0.54687,-1.23437 -1.64062,-1.92187 -1.07813,-0.6875 -2.42188,-0.6875 -1.90625,0 -3.28125,1.3125 -1.375,1.3125 -1.375,4.39062 z m 15.57394,6.59375 -3.60937,-13.59375 1.84375,0 2.0625,8.90625 q 0.34375,1.40625 0.57812,2.78125 0.51563,-2.17187 0.60938,-2.51562 l 2.59375,-9.17188 2.17187,0 1.95313,6.875 q 0.73437,2.5625 1.04687,4.8125 0.26563,-1.28125 0.6875,-2.95312 l 2.125,-8.73438 1.8125,0 -3.73437,13.59375 -1.73438,0 -2.85937,-10.35937 q -0.35938,-1.29688 -0.42188,-1.59375 -0.21875,0.9375 -0.40625,1.59375 l -2.89062,10.35937 -1.82813,0 z"
       id="path3835-6"
       inkscape:connector-curvature="0"
       style="fill:#000000;fill-rule:nonzero" />
    <path
       d="m 102.75856,336.10339 1.41733,-48.28345"
       id="path3845-1"
       inkscape:connector-curvature="0"
       style="fill:#000000;fill-opacity:0;fill-rule:evenodd" />
    <path
       d="m 188.77692,289.93674 -0.34647,42.61417"
       id="path3853-8"
       inkscape:connector-curvature="0"
       style="fill:#000000;fill-opacity:0;fill-rule:evenodd" />
    <path
       d="m 190.80579,408.52859 1.41733,51.11813"
       id="path3861-7"
       inkscape:connector-curvature="0"
       style="fill:#000000;fill-opacity:0;fill-rule:evenodd" />
    <path
       d="m 95.656187,408.52859 0,49.70078"
       id="path3867-9"
       inkscape:connector-curvature="0"
       style="fill:#000000;fill-opacity:0;fill-rule:evenodd" />
    <path
       d="m 288.79792,310.55221 -101.16534,0 0,22.70868"
       id="path3879-2"
       inkscape:connector-curvature="0"
       style="fill:#000000;fill-opacity:0;fill-rule:evenodd" />
    <path
       d="m 288.80579,310.55221 -193.858283,0 0,22.70868"
       id="path3885-0"
       inkscape:connector-curvature="0"
       style="fill:#000000;fill-opacity:0;fill-rule:evenodd" />
    <path
       d="m 210.68769,333.26089 2.83997,0 0,-31.24411 -150.525013,0"
       id="path3901-2"
       inkscape:connector-curvature="0"
       style="fill:#000000;fill-opacity:0;fill-rule:evenodd" />
    <path
       style="fill:none;stroke:#000000;stroke-width:1px;stroke-linecap:butt;stroke-linejoin:miter;stroke-opacity:1;marker-end:url(#TriangleOutL)"
       d="m 105,320 80,0 0,10"
       id="path17390-3"
       inkscape:connector-curvature="0"
       sodipodi:nodetypes="ccc" />
    <path
       style="fill:none;stroke:#000000;stroke-width:1px;stroke-linecap:butt;stroke-linejoin:miter;stroke-opacity:1;marker-end:url(#TriangleOutL)"
       d="m 275.5,310.39604 0,-10 -75,0 0,30"
       id="path17600-7"
       inkscape:connector-curvature="0"
       sodipodi:nodetypes="cccc" />
    <path
       style="fill:none;stroke:#000000;stroke-width:1px;stroke-linecap:butt;stroke-linejoin:miter;stroke-opacity:1;marker-end:url(#TriangleOutL)"
       d="m 200.5,300.39604 -80,0 0,30"
       id="path17602-5"
       inkscape:connector-curvature="0"
       sodipodi:nodetypes="ccc" />
    <text
       xml:space="preserve"
       style="font-size:40px;font-style:normal;font-weight:normal;line-height:100%;letter-spacing:0px;word-spacing:0px;fill:#000000;fill-opacity:1;stroke:none;font-family:Sans"
       x="267.62891"
       y="335.3179"
       id="text18020-9"
       sodipodi:linespacing="100%"><tspan
         sodipodi:role="line"
         id="tspan18022-2"
         x="267.62891"
         y="335.3179"
         style="font-size:20px;line-height:100%">Q</tspan><tspan
         sodipodi:role="line"
         x="267.62891"
         y="355.3179"
         id="tspan18024-2"
         style="font-size:20px;line-height:100%">U</tspan><tspan
         sodipodi:role="line"
         x="267.62891"
         y="375.3179"
         id="tspan18026-8"
         style="font-size:20px;line-height:100%">E</tspan><tspan
         sodipodi:role="line"
         x="267.62891"
         y="395.3179"
         id="tspan18028-9"
         style="font-size:20px;line-height:100%">U</tspan><tspan
         sodipodi:role="line"
         x="267.62891"
         y="415.3179"
         id="tspan18030-7"
         style="font-size:20px;line-height:100%">E</tspan></text>
    <path
       style="fill:none;stroke:#000000;stroke-width:1px;stroke-linecap:butt;stroke-linejoin:miter;stroke-opacity:1;marker-start:url(#TriangleInL);marker-end:none"
       d="m 135.5,330.39604 0,-41"
       id="path18032-3"
       inkscape:connector-curvature="0"
       sodipodi:nodetypes="cc" />
    <path
       style="fill:none;stroke:#000000;stroke-width:1px;stroke-linecap:butt;stroke-linejoin:miter;stroke-opacity:1;marker-start:url(#TriangleInL)"
       d="m 215.5,330.39604 0,-40"
       id="path19490-6"
       inkscape:connector-curvature="0" />
    <path
       style="fill:none;stroke:#000000;stroke-width:1px;stroke-linecap:butt;stroke-linejoin:miter;stroke-opacity:1;marker-start:none;marker-end:url(#TriangleOutL)"
       d="m 275.5,445.39604 0,-20"
       id="path19700-1"
       inkscape:connector-curvature="0" />
    <path
       style="fill:none;stroke:#000000;stroke-width:1px;stroke-linecap:butt;stroke-linejoin:miter;stroke-opacity:1;marker-start:none;marker-end:url(#TriangleOutL)"
       d="m 200.5,405.39604 0,40"
       id="path20534-2"
       inkscape:connector-curvature="0" />
    <path
       style="fill:none;stroke:#000000;stroke-width:1px;stroke-linecap:butt;stroke-linejoin:miter;stroke-opacity:1;marker-end:url(#TriangleOutL)"
       d="m 120.5,405.39604 0,40"
       id="path21368-9"
       inkscape:connector-curvature="0" />
    <path
       style="fill:none;stroke:#000000;stroke-width:1px;stroke-linecap:butt;stroke-linejoin:miter;stroke-opacity:1;marker-end:url(#TriangleOutL)"
       d="m 70.499997,290.39604 0,155"
       id="path21786-3"
       inkscape:connector-curvature="0" />
    <path
       style="fill:none;stroke:#000000;stroke-width:1px;stroke-linecap:butt;stroke-linejoin:miter;stroke-opacity:1;marker-end:url(#TriangleOutL)"
       d="m 80.499997,445.39604 0,-155"
       id="path22204-1"
       inkscape:connector-curvature="0" />
    <path
       style="fill:none;stroke:#000000;stroke-width:1px;stroke-linecap:butt;stroke-linejoin:miter;stroke-opacity:1;marker-end:url(#marker23745)"
       d="m 130,215 0,35"
       id="path23893"
       inkscape:connector-curvature="0" />
    <path
       style="fill:none;stroke:#000000;stroke-width:1px;stroke-linecap:butt;stroke-linejoin:miter;stroke-opacity:1;marker-start:url(#marker23733)"
       d="m 105,330 0,-10 -55,0 0,-190 100,0"
       id="path24359"
       inkscape:connector-curvature="0" />
    <path
       style="fill:none;stroke:#000000;stroke-width:1px;stroke-linecap:butt;stroke-linejoin:miter;stroke-opacity:1;marker-end:url(#marker23745)"
       d="m 555,480 0,15 30,0 0,-345 -15,0"
       id="path24825"
       inkscape:connector-curvature="0"
       sodipodi:nodetypes="ccccc" />
    <path
       style="fill:none;stroke:#000000;stroke-width:1px;stroke-linecap:butt;stroke-linejoin:miter;stroke-opacity:1;marker-end:url(#marker23745)"
       d="m 285,480 0,30 315,0 0,-380 -30,0"
       id="path25059"
       inkscape:connector-curvature="0"
       sodipodi:nodetypes="ccccc" />
    <text
       xml:space="preserve"
       style="font-size:20px;font-style:normal;font-weight:normal;line-height:125%;letter-spacing:0px;word-spacing:0px;fill:#000000;fill-opacity:1;stroke:none;font-family:Sans"
       x="704.9505"
       y="344.55447"
       id="text26005"
       sodipodi:linespacing="125%"><tspan
         sodipodi:role="line"
         id="tspan26007"
         x="704.9505"
         y="344.55447">Ortho-Cull</tspan><tspan
         sodipodi:role="line"
         x="704.9505"
         y="369.55447"
         id="tspan26009" /></text>
  </g>
</svg>
