<?xml version="1.0" encoding="UTF-8" standalone="no"?>
<!DOCTYPE svg PUBLIC "-//W3C//DTD SVG 1.1//EN" "http://www.w3.org/Graphics/SVG/1.1/DTD/svg11.dtd">
<svg version="1.1" xmlns="http://www.w3.org/2000/svg" xmlns:xlink="http://www.w3.org/1999/xlink" preserveAspectRatio="xMidYMid meet" viewBox="0 0 640 640" width="2048" height="2048"><defs><path d="M0 320L640 320L640 640L0 640L0 320Z" id="c4DFlwZ58F"></path><path d="M19.17 254.19L50.84 254.19L50.84 284.19L19.17 284.19L19.17 254.19Z" id="b2DmXkeBDX"></path><path d="M27.08 263.78L58.75 263.78L58.75 274.6L27.08 274.6L27.08 263.78Z" id="bw7HLFRYi"></path><path d="M54.15 259.42L63.36 259.42L63.36 278.97L54.15 278.97L54.15 259.42Z" id="dSAEQ8UaB"></path><path d="M9.15 268.5C9.15 240.08 32.22 217 60.65 217C89.07 217 112.15 240.08 112.15 268.5C112.15 296.92 89.07 320 60.65 320C32.22 320 9.15 296.92 9.15 268.5Z" id="dUfrqEeM"></path><path d="M493.06 308.19L63.36 269.19" id="a3cqbu02Uy"></path><path d="M64.65 272.5C64.65 246.28 85.93 225 112.15 225C138.36 225 159.65 246.28 159.65 272.5C159.65 298.72 138.36 320 112.15 320C85.93 320 64.65 298.72 64.65 272.5Z" id="b3bFqXCkS3"></path><path d="M114.65 273.66C114.65 275.04 113.53 276.16 112.15 276.16C110.77 276.16 109.65 275.04 109.65 273.66C109.65 272.28 110.77 271.16 112.15 271.16C113.53 271.16 114.65 272.28 114.65 273.66Z" id="f1bfGc991N"></path><path d="M117.15 277.5C117.15 254.04 136.19 235 159.65 235C183.1 235 202.15 254.04 202.15 277.5C202.15 300.96 183.1 320 159.65 320C136.19 320 117.15 300.96 117.15 277.5Z" id="d1x7YJrcpj"></path><path d="M162.15 277.76C162.15 279.14 161.03 280.26 159.65 280.26C158.27 280.26 157.15 279.14 157.15 277.76C157.15 276.38 158.27 275.26 159.65 275.26C161.03 275.26 162.15 276.38 162.15 277.76Z" id="b2okoZjcoK"></path><path d="M164.15 282C164.15 261.03 181.17 244 202.15 244C223.12 244 240.15 261.03 240.15 282C240.15 302.97 223.12 320 202.15 320C181.17 320 164.15 302.97 164.15 282Z" id="c1hjakzMIS"></path><path d="M204.65 281.69C204.65 283.07 203.53 284.19 202.15 284.19C200.77 284.19 199.65 283.07 199.65 281.69C199.65 280.31 200.77 279.19 202.15 279.19C203.53 279.19 204.65 280.31 204.65 281.69Z" id="c1bHTnU8fd"></path><path d="M204.65 284.5C204.65 264.91 220.55 249 240.15 249C259.74 249 275.65 264.91 275.65 284.5C275.65 304.09 259.74 320 240.15 320C220.55 320 204.65 304.09 204.65 284.5Z" id="g3HTFLdigj"></path><path d="M242.65 284.5C242.65 285.88 241.53 287 240.15 287C238.77 287 237.65 285.88 237.65 284.5C237.65 283.12 238.77 282 240.15 282C241.53 282 242.65 283.12 242.65 284.5Z" id="agiXTdJFL"></path><path d="M243.15 287C243.15 269.06 257.71 254.5 275.65 254.5C293.58 254.5 308.15 269.06 308.15 287C308.15 304.94 293.58 319.5 275.65 319.5C257.71 319.5 243.15 304.94 243.15 287Z" id="izOfrIKkn"></path><path d="M277.6 288C277.6 289.38 276.48 290.5 275.1 290.5C273.72 290.5 272.6 289.38 272.6 288C272.6 286.62 273.72 285.5 275.1 285.5C276.48 285.5 277.6 286.62 277.6 288Z" id="h1Xzy9xzhn"></path><path d="M278.06 290.5C278.06 274.22 291.28 261 307.56 261C323.84 261 337.06 274.22 337.06 290.5C337.06 306.78 323.84 320 307.56 320C291.28 320 278.06 306.78 278.06 290.5Z" id="d5X8fiURfC"></path><path d="M310.06 291.3C310.06 292.68 308.94 293.8 307.56 293.8C306.18 293.8 305.06 292.68 305.06 291.3C305.06 289.92 306.18 288.8 307.56 288.8C308.94 288.8 310.06 289.92 310.06 291.3Z" id="b784FP9hlZ"></path><path d="M310.06 293.23C310.06 278.33 322.16 266.23 337.06 266.23C351.96 266.23 364.06 278.33 364.06 293.23C364.06 308.13 351.96 320.23 337.06 320.23C322.16 320.23 310.06 308.13 310.06 293.23Z" id="f1pROUq5m2"></path><path d="M391.56 298.23C391.56 299.61 390.44 300.73 389.06 300.73C387.68 300.73 386.56 299.61 386.56 298.23C386.56 296.85 387.68 295.73 389.06 295.73C390.44 295.73 391.56 296.85 391.56 298.23Z" id="daGVxoAY"></path><path d="M339.56 295.5C339.56 281.98 350.54 271 364.06 271C377.58 271 388.56 281.98 388.56 295.5C388.56 309.02 377.58 320 364.06 320C350.54 320 339.56 309.02 339.56 295.5Z" id="a30sgqWZ8q"></path><path d="M366.56 296.3C366.56 297.68 365.44 298.8 364.06 298.8C362.68 298.8 361.56 297.68 361.56 296.3C361.56 294.92 362.68 293.8 364.06 293.8C365.44 293.8 366.56 294.92 366.56 296.3Z" id="d4bHJNWyKK"></path><path d="M367.06 298.23C367.06 286.09 376.92 276.23 389.06 276.23C401.2 276.23 411.06 286.09 411.06 298.23C411.06 310.37 401.2 320.23 389.06 320.23C376.92 320.23 367.06 310.37 367.06 298.23Z" id="lkqfFQj4g"></path><path d="M391.56 300.73C391.56 289.97 400.3 281.23 411.06 281.23C421.82 281.23 430.56 289.97 430.56 300.73C430.56 311.5 421.82 320.23 411.06 320.23C400.3 320.23 391.56 311.5 391.56 300.73Z" id="a2Gq6ZNV5"></path><path d="M413.56 300.73C413.56 302.11 412.44 303.23 411.06 303.23C409.68 303.23 408.56 302.11 408.56 300.73C408.56 299.35 409.68 298.23 411.06 298.23C412.44 298.23 413.56 299.35 413.56 300.73Z" id="av4fC90Kq"></path><path d="M412.56 302.5C412.56 292.57 420.63 284.5 430.56 284.5C440.5 284.5 448.56 292.57 448.56 302.5C448.56 312.43 440.5 320.5 430.56 320.5C420.63 320.5 412.56 312.43 412.56 302.5Z" id="a2zsTosc8k"></path><path d="M433.06 302.5C433.06 303.88 431.94 305 430.56 305C429.18 305 428.06 303.88 428.06 302.5C428.06 301.12 429.18 300 430.56 300C431.94 300 433.06 301.12 433.06 302.5Z" id="asNZUN9yc"></path><path d="M432.06 303.78C432.06 294.68 439.45 287.28 448.56 287.28C457.67 287.28 465.06 294.68 465.06 303.78C465.06 312.89 457.67 320.28 448.56 320.28C439.45 320.28 432.06 312.89 432.06 303.78Z" id="c40gxhLenF"></path><path d="M451.06 303.78C451.06 305.16 449.94 306.28 448.56 306.28C447.18 306.28 446.06 305.16 446.06 303.78C446.06 302.4 447.18 301.28 448.56 301.28C449.94 301.28 451.06 302.4 451.06 303.78Z" id="d20jteoObJ"></path><path d="M339.06 293.8C339.06 295.18 337.94 296.3 336.56 296.3C335.18 296.3 334.06 295.18 334.06 293.8C334.06 292.42 335.18 291.3 336.56 291.3C337.94 291.3 339.06 292.42 339.06 293.8Z" id="b6vqlaqXdf"></path><path d="M450.06 305.23C450.06 296.95 456.78 290.23 465.06 290.23C473.34 290.23 480.06 296.95 480.06 305.23C480.06 313.51 473.34 320.23 465.06 320.23C456.78 320.23 450.06 313.51 450.06 305.23Z" id="e5DL5GDIc"></path><path d="M467.56 305.44C467.56 306.82 466.44 307.94 465.06 307.94C463.68 307.94 462.56 306.82 462.56 305.44C462.56 304.06 463.68 302.94 465.06 302.94C466.44 302.94 467.56 304.06 467.56 305.44Z" id="cMBvQesCl"></path><path d="M467.06 307.23C467.06 300.06 472.89 294.23 480.06 294.23C487.24 294.23 493.06 300.06 493.06 307.23C493.06 314.41 487.24 320.23 480.06 320.23C472.89 320.23 467.06 314.41 467.06 307.23Z" id="cn6XAyUtD"></path><path d="M482.56 307.23C482.56 308.61 481.44 309.73 480.06 309.73C478.68 309.73 477.56 308.61 477.56 307.23C477.56 305.85 478.68 304.73 480.06 304.73C481.44 304.73 482.56 305.85 482.56 307.23Z" id="agRT6Imaf"></path><path d="M481.06 308.15C481.06 301.53 486.44 296.15 493.06 296.15C499.68 296.15 505.06 301.53 505.06 308.15C505.06 314.78 499.68 320.15 493.06 320.15C486.44 320.15 481.06 314.78 481.06 308.15Z" id="e1sP33LMKn"></path><path d="M635.78 320.19L493.06 308.19" id="b8uPa87sC"></path><path d="M495.56 308.19C495.56 309.57 494.44 310.69 493.06 310.69C491.68 310.69 490.56 309.57 490.56 308.19C490.56 306.81 491.68 305.69 493.06 305.69C494.44 305.69 495.56 306.81 495.56 308.19Z" id="d1lEJqETaX"></path></defs><g><g><g><use xlink:href="#c4DFlwZ58F" opacity="1" fill="#70e6a6" fill-opacity="1"></use></g><g><use xlink:href="#b2DmXkeBDX" opacity="1" fill="#000000" fill-opacity="1"></use></g><g><use xlink:href="#bw7HLFRYi" opacity="1" fill="#000000" fill-opacity="1"></use></g><g><use xlink:href="#dSAEQ8UaB" opacity="1" fill="#000000" fill-opacity="1"></use></g><g><use xlink:href="#dUfrqEeM" opacity="0.19" fill="#000000" fill-opacity="1"></use></g><g><g><use xlink:href="#a3cqbu02Uy" opacity="1" fill-opacity="0" stroke="#000000" stroke-width="1" stroke-opacity="1"></use></g></g><g><use xlink:href="#b3bFqXCkS3" opacity="0.19" fill="#000000" fill-opacity="1"></use></g><g><use xlink:href="#f1bfGc991N" opacity="1" fill="#002aff" fill-opacity="1"></use></g><g><use xlink:href="#d1x7YJrcpj" opacity="0.19" fill="#000000" fill-opacity="1"></use></g><g><use xlink:href="#b2okoZjcoK" opacity="1" fill="#002aff" fill-opacity="1"></use></g><g><use xlink:href="#c1hjakzMIS" opacity="0.19" fill="#000000" fill-opacity="1"></use></g><g><use xlink:href="#c1bHTnU8fd" opacity="1" fill="#002aff" fill-opacity="1"></use></g><g><use xlink:href="#g3HTFLdigj" opacity="0.19" fill="#000000" fill-opacity="1"></use></g><g><use xlink:href="#agiXTdJFL" opacity="1" fill="#002aff" fill-opacity="1"></use></g><g><use xlink:href="#izOfrIKkn" opacity="0.19" fill="#000000" fill-opacity="1"></use></g><g><use xlink:href="#h1Xzy9xzhn" opacity="1" fill="#002aff" fill-opacity="1"></use></g><g><use xlink:href="#d5X8fiURfC" opacity="0.19" fill="#000000" fill-opacity="1"></use></g><g><use xlink:href="#b784FP9hlZ" opacity="1" fill="#002aff" fill-opacity="1"></use></g><g><use xlink:href="#f1pROUq5m2" opacity="0.19" fill="#000000" fill-opacity="1"></use></g><g><use xlink:href="#daGVxoAY" opacity="1" fill="#002aff" fill-opacity="1"></use></g><g><use xlink:href="#a30sgqWZ8q" opacity="0.19" fill="#000000" fill-opacity="1"></use></g><g><use xlink:href="#d4bHJNWyKK" opacity="1" fill="#002aff" fill-opacity="1"></use></g><g><use xlink:href="#lkqfFQj4g" opacity="0.19" fill="#000000" fill-opacity="1"></use></g><g><use xlink:href="#a2Gq6ZNV5" opacity="0.19" fill="#000000" fill-opacity="1"></use></g><g><use xlink:href="#av4fC90Kq" opacity="1" fill="#002aff" fill-opacity="1"></use></g><g><use xlink:href="#a2zsTosc8k" opacity="0.19" fill="#000000" fill-opacity="1"></use></g><g><use xlink:href="#asNZUN9yc" opacity="1" fill="#002aff" fill-opacity="1"></use></g><g><use xlink:href="#c40gxhLenF" opacity="0.19" fill="#000000" fill-opacity="1"></use></g><g><use xlink:href="#d20jteoObJ" opacity="1" fill="#002aff" fill-opacity="1"></use></g><g><use xlink:href="#b6vqlaqXdf" opacity="1" fill="#002aff" fill-opacity="1"></use></g><g><use xlink:href="#e5DL5GDIc" opacity="0.19" fill="#000000" fill-opacity="1"></use></g><g><use xlink:href="#cMBvQesCl" opacity="1" fill="#002aff" fill-opacity="1"></use></g><g><use xlink:href="#cn6XAyUtD" opacity="0.19" fill="#000000" fill-opacity="1"></use></g><g><use xlink:href="#agRT6Imaf" opacity="1" fill="#002aff" fill-opacity="1"></use></g><g><use xlink:href="#e1sP33LMKn" opacity="0.19" fill="#000000" fill-opacity="1"></use></g><g><use xlink:href="#b8uPa87sC" opacity="1" fill="#ff0000" fill-opacity="1"></use><g><use xlink:href="#b8uPa87sC" opacity="1" fill-opacity="0" stroke="#ff0000" stroke-width="1" stroke-opacity="1"></use></g></g><g><use xlink:href="#d1lEJqETaX" opacity="1" fill="#002aff" fill-opacity="1"></use></g></g></g></svg>