<?xml version="1.0" encoding="UTF-8" standalone="no"?>
<svg
   xmlns:dc="http://purl.org/dc/elements/1.1/"
   xmlns:cc="http://creativecommons.org/ns#"
   xmlns:rdf="http://www.w3.org/1999/02/22-rdf-syntax-ns#"
   xmlns:svg="http://www.w3.org/2000/svg"
   xmlns="http://www.w3.org/2000/svg"
   xmlns:xlink="http://www.w3.org/1999/xlink"
   xmlns:sodipodi="http://sodipodi.sourceforge.net/DTD/sodipodi-0.dtd"
   xmlns:inkscape="http://www.inkscape.org/namespaces/inkscape"
   version="1.1"
   preserveAspectRatio="xMidYMid meet"
   viewBox="0 0 640 640"
   width="2048"
   height="2048"
   id="svg199"
   sodipodi:docname="InfinitePlaneVec.svg"
   inkscape:version="0.92.1 r15371"
   inkscape:export-filename="D:\skola\Kandidatarbete\Docs\figure\Presentation\InfinitePlane.png"
   inkscape:export-xdpi="96"
   inkscape:export-ydpi="96">
  <metadata
     id="metadata203">
    <rdf:RDF>
      <cc:Work
         rdf:about="">
        <dc:format>image/svg+xml</dc:format>
        <dc:type
           rdf:resource="http://purl.org/dc/dcmitype/StillImage" />
      </cc:Work>
    </rdf:RDF>
  </metadata>
  <sodipodi:namedview
     pagecolor="#ffffff"
     bordercolor="#666666"
     borderopacity="1"
     objecttolerance="10"
     gridtolerance="10"
     guidetolerance="10"
     inkscape:pageopacity="0"
     inkscape:pageshadow="2"
     inkscape:window-width="1920"
     inkscape:window-height="1017"
     id="namedview201"
     showgrid="false"
     inkscape:zoom="0.4609375"
     inkscape:cx="1262.8441"
     inkscape:cy="320.0002"
     inkscape:window-x="-8"
     inkscape:window-y="-8"
     inkscape:window-maximized="1"
     inkscape:current-layer="g195" />
  <defs
     id="defs39">
    <path
       d="M0 320L640 320L640 640L0 640L0 320Z"
       id="c4DFlwZ58F" />
    <path
       d="M19.17 254.19L50.84 254.19L50.84 284.19L19.17 284.19L19.17 254.19Z"
       id="b2DmXkeBDX" />
    <path
       d="M27.08 263.78L58.75 263.78L58.75 274.6L27.08 274.6L27.08 263.78Z"
       id="bw7HLFRYi" />
    <path
       d="M54.15 259.42L63.36 259.42L63.36 278.97L54.15 278.97L54.15 259.42Z"
       id="dSAEQ8UaB" />
    <path
       d="M9.15 268.5C9.15 240.08 32.22 217 60.65 217C89.07 217 112.15 240.08 112.15 268.5C112.15 296.92 89.07 320 60.65 320C32.22 320 9.15 296.92 9.15 268.5Z"
       id="dUfrqEeM" />
    <path
       d="M493.06 308.19L63.36 269.19"
       id="a3cqbu02Uy" />
    <path
       d="M64.65 272.5C64.65 246.28 85.93 225 112.15 225C138.36 225 159.65 246.28 159.65 272.5C159.65 298.72 138.36 320 112.15 320C85.93 320 64.65 298.72 64.65 272.5Z"
       id="b3bFqXCkS3" />
    <path
       d="M114.65 273.66C114.65 275.04 113.53 276.16 112.15 276.16C110.77 276.16 109.65 275.04 109.65 273.66C109.65 272.28 110.77 271.16 112.15 271.16C113.53 271.16 114.65 272.28 114.65 273.66Z"
       id="f1bfGc991N" />
    <path
       d="M117.15 277.5C117.15 254.04 136.19 235 159.65 235C183.1 235 202.15 254.04 202.15 277.5C202.15 300.96 183.1 320 159.65 320C136.19 320 117.15 300.96 117.15 277.5Z"
       id="d1x7YJrcpj" />
    <path
       d="M162.15 277.76C162.15 279.14 161.03 280.26 159.65 280.26C158.27 280.26 157.15 279.14 157.15 277.76C157.15 276.38 158.27 275.26 159.65 275.26C161.03 275.26 162.15 276.38 162.15 277.76Z"
       id="b2okoZjcoK" />
    <path
       d="M164.15 282C164.15 261.03 181.17 244 202.15 244C223.12 244 240.15 261.03 240.15 282C240.15 302.97 223.12 320 202.15 320C181.17 320 164.15 302.97 164.15 282Z"
       id="c1hjakzMIS" />
    <path
       d="M204.65 281.69C204.65 283.07 203.53 284.19 202.15 284.19C200.77 284.19 199.65 283.07 199.65 281.69C199.65 280.31 200.77 279.19 202.15 279.19C203.53 279.19 204.65 280.31 204.65 281.69Z"
       id="c1bHTnU8fd" />
    <path
       d="M204.65 284.5C204.65 264.91 220.55 249 240.15 249C259.74 249 275.65 264.91 275.65 284.5C275.65 304.09 259.74 320 240.15 320C220.55 320 204.65 304.09 204.65 284.5Z"
       id="g3HTFLdigj" />
    <path
       d="M242.65 284.5C242.65 285.88 241.53 287 240.15 287C238.77 287 237.65 285.88 237.65 284.5C237.65 283.12 238.77 282 240.15 282C241.53 282 242.65 283.12 242.65 284.5Z"
       id="agiXTdJFL" />
    <path
       d="M243.15 287C243.15 269.06 257.71 254.5 275.65 254.5C293.58 254.5 308.15 269.06 308.15 287C308.15 304.94 293.58 319.5 275.65 319.5C257.71 319.5 243.15 304.94 243.15 287Z"
       id="izOfrIKkn" />
    <path
       d="M277.6 288C277.6 289.38 276.48 290.5 275.1 290.5C273.72 290.5 272.6 289.38 272.6 288C272.6 286.62 273.72 285.5 275.1 285.5C276.48 285.5 277.6 286.62 277.6 288Z"
       id="h1Xzy9xzhn" />
    <path
       d="M278.06 290.5C278.06 274.22 291.28 261 307.56 261C323.84 261 337.06 274.22 337.06 290.5C337.06 306.78 323.84 320 307.56 320C291.28 320 278.06 306.78 278.06 290.5Z"
       id="d5X8fiURfC" />
    <path
       d="M310.06 291.3C310.06 292.68 308.94 293.8 307.56 293.8C306.18 293.8 305.06 292.68 305.06 291.3C305.06 289.92 306.18 288.8 307.56 288.8C308.94 288.8 310.06 289.92 310.06 291.3Z"
       id="b784FP9hlZ" />
    <path
       d="M310.06 293.23C310.06 278.33 322.16 266.23 337.06 266.23C351.96 266.23 364.06 278.33 364.06 293.23C364.06 308.13 351.96 320.23 337.06 320.23C322.16 320.23 310.06 308.13 310.06 293.23Z"
       id="f1pROUq5m2" />
    <path
       d="M391.56 298.23C391.56 299.61 390.44 300.73 389.06 300.73C387.68 300.73 386.56 299.61 386.56 298.23C386.56 296.85 387.68 295.73 389.06 295.73C390.44 295.73 391.56 296.85 391.56 298.23Z"
       id="daGVxoAY" />
    <path
       d="M339.56 295.5C339.56 281.98 350.54 271 364.06 271C377.58 271 388.56 281.98 388.56 295.5C388.56 309.02 377.58 320 364.06 320C350.54 320 339.56 309.02 339.56 295.5Z"
       id="a30sgqWZ8q" />
    <path
       d="M366.56 296.3C366.56 297.68 365.44 298.8 364.06 298.8C362.68 298.8 361.56 297.68 361.56 296.3C361.56 294.92 362.68 293.8 364.06 293.8C365.44 293.8 366.56 294.92 366.56 296.3Z"
       id="d4bHJNWyKK" />
    <path
       d="M367.06 298.23C367.06 286.09 376.92 276.23 389.06 276.23C401.2 276.23 411.06 286.09 411.06 298.23C411.06 310.37 401.2 320.23 389.06 320.23C376.92 320.23 367.06 310.37 367.06 298.23Z"
       id="lkqfFQj4g" />
    <path
       d="M391.56 300.73C391.56 289.97 400.3 281.23 411.06 281.23C421.82 281.23 430.56 289.97 430.56 300.73C430.56 311.5 421.82 320.23 411.06 320.23C400.3 320.23 391.56 311.5 391.56 300.73Z"
       id="a2Gq6ZNV5" />
    <path
       d="M413.56 300.73C413.56 302.11 412.44 303.23 411.06 303.23C409.68 303.23 408.56 302.11 408.56 300.73C408.56 299.35 409.68 298.23 411.06 298.23C412.44 298.23 413.56 299.35 413.56 300.73Z"
       id="av4fC90Kq" />
    <path
       d="M412.56 302.5C412.56 292.57 420.63 284.5 430.56 284.5C440.5 284.5 448.56 292.57 448.56 302.5C448.56 312.43 440.5 320.5 430.56 320.5C420.63 320.5 412.56 312.43 412.56 302.5Z"
       id="a2zsTosc8k" />
    <path
       d="M433.06 302.5C433.06 303.88 431.94 305 430.56 305C429.18 305 428.06 303.88 428.06 302.5C428.06 301.12 429.18 300 430.56 300C431.94 300 433.06 301.12 433.06 302.5Z"
       id="asNZUN9yc" />
    <path
       d="M432.06 303.78C432.06 294.68 439.45 287.28 448.56 287.28C457.67 287.28 465.06 294.68 465.06 303.78C465.06 312.89 457.67 320.28 448.56 320.28C439.45 320.28 432.06 312.89 432.06 303.78Z"
       id="c40gxhLenF" />
    <path
       d="M451.06 303.78C451.06 305.16 449.94 306.28 448.56 306.28C447.18 306.28 446.06 305.16 446.06 303.78C446.06 302.4 447.18 301.28 448.56 301.28C449.94 301.28 451.06 302.4 451.06 303.78Z"
       id="d20jteoObJ" />
    <path
       d="M339.06 293.8C339.06 295.18 337.94 296.3 336.56 296.3C335.18 296.3 334.06 295.18 334.06 293.8C334.06 292.42 335.18 291.3 336.56 291.3C337.94 291.3 339.06 292.42 339.06 293.8Z"
       id="b6vqlaqXdf" />
    <path
       d="M450.06 305.23C450.06 296.95 456.78 290.23 465.06 290.23C473.34 290.23 480.06 296.95 480.06 305.23C480.06 313.51 473.34 320.23 465.06 320.23C456.78 320.23 450.06 313.51 450.06 305.23Z"
       id="e5DL5GDIc" />
    <path
       d="M467.56 305.44C467.56 306.82 466.44 307.94 465.06 307.94C463.68 307.94 462.56 306.82 462.56 305.44C462.56 304.06 463.68 302.94 465.06 302.94C466.44 302.94 467.56 304.06 467.56 305.44Z"
       id="cMBvQesCl" />
    <path
       d="M467.06 307.23C467.06 300.06 472.89 294.23 480.06 294.23C487.24 294.23 493.06 300.06 493.06 307.23C493.06 314.41 487.24 320.23 480.06 320.23C472.89 320.23 467.06 314.41 467.06 307.23Z"
       id="cn6XAyUtD" />
    <path
       d="M482.56 307.23C482.56 308.61 481.44 309.73 480.06 309.73C478.68 309.73 477.56 308.61 477.56 307.23C477.56 305.85 478.68 304.73 480.06 304.73C481.44 304.73 482.56 305.85 482.56 307.23Z"
       id="agRT6Imaf" />
    <path
       d="M481.06 308.15C481.06 301.53 486.44 296.15 493.06 296.15C499.68 296.15 505.06 301.53 505.06 308.15C505.06 314.78 499.68 320.15 493.06 320.15C486.44 320.15 481.06 314.78 481.06 308.15Z"
       id="e1sP33LMKn" />
    <path
       d="M635.78 320.19L493.06 308.19"
       id="b8uPa87sC" />
    <path
       d="M495.56 308.19C495.56 309.57 494.44 310.69 493.06 310.69C491.68 310.69 490.56 309.57 490.56 308.19C490.56 306.81 491.68 305.69 493.06 305.69C494.44 305.69 495.56 306.81 495.56 308.19Z"
       id="d1lEJqETaX" />
  </defs>
  <rect
     style="fill:#ffffff;stroke-width:0.9678995"
     id="rect212"
     width="641.91754"
     height="640.47095"
     x="-1.9175777"
     y="-0.47094434" />
  <g
     inkscape:groupmode="layer"
     id="layer3"
     inkscape:label="Layer 2"
     sodipodi:insensitive="true" />
  <g
     inkscape:groupmode="layer"
     id="layer1"
     inkscape:label="Layer 1">
    <g
       id="g197"
       transform="translate(-6.1035156e-5)">
      <g
         id="g195">
        <g
           id="g43"
           transform="matrix(0.93570996,0,0,0.94882788,21.408339,16.375078)">
          <use
             xlink:href="#c4DFlwZ58F"
             id="use41"
             style="opacity:1;fill:#70e6a6;fill-opacity:1"
             x="0"
             y="0"
             width="100%"
             height="100%"
             transform="matrix(1.0719092,0,0,1.0539319,-24.92851,-17.258199)" />
        </g>
        <g
           id="g47"
           transform="matrix(1.3375256,0,0,1.3375256,-15.195029,-97.994387)">
          <use
             xlink:href="#b2DmXkeBDX"
             id="use45"
             style="opacity:1;fill:#000000;fill-opacity:1"
             x="0"
             y="0"
             width="100%"
             height="100%" />
        </g>
        <g
           id="g51"
           transform="matrix(1.3375256,0,0,1.3375256,-15.195029,-97.994387)">
          <use
             xlink:href="#bw7HLFRYi"
             id="use49"
             style="opacity:1;fill:#000000;fill-opacity:1"
             x="0"
             y="0"
             width="100%"
             height="100%" />
        </g>
        <g
           id="g55">
          <use
             xlink:href="#dSAEQ8UaB"
             id="use53"
             transform="matrix(1.3375256,0,0,1.3375256,-15.195029,-97.994387)"
             style="opacity:1;fill:#000000;fill-opacity:1"
             x="0"
             y="0"
             width="100%"
             height="100%" />
        </g>
        <g
           id="g65"
           transform="matrix(0.68111537,0,0,1.4192568,24.983409,-119.49193)">
          <g
             id="g63"
             transform="matrix(0.99261034,0,0,0.99261034,0.46787494,1.9855431)">
            <use
               xlink:href="#a3cqbu02Uy"
               id="use61"
               style="opacity:1;fill-opacity:0;stroke:#000000;stroke-width:1;stroke-opacity:1"
               x="0"
               y="0"
               width="100%"
               height="100%" />
          </g>
        </g>
        <path
           style="opacity:0.18999999;fill:#000000;fill-opacity:1;stroke-width:0.2904855"
           id="path4609"
           sodipodi:type="arc"
           sodipodi:cx="69.279678"
           sodipodi:cy="262.92374"
           sodipodi:rx="57.076271"
           sodipodi:ry="57.076271"
           sodipodi:start="5.6593523"
           sodipodi:end="5.6592825"
           sodipodi:open="true"
           d="m 115.60537,229.58261 a 57.076271,57.076271 0 0 1 -12.98375,79.66624 57.076271,57.076271 0 0 1 -79.666469,-12.98237 57.076271,57.076271 0 0 1 12.980971,-79.66669 57.076271,57.076271 0 0 1 79.666918,12.97958" />
        <path
           style="opacity:0.18999999;fill:#000000;fill-opacity:1;stroke-width:0.23497911"
           id="path4609-4"
           sodipodi:type="arc"
           sodipodi:cx="125.24181"
           sodipodi:cy="273.98233"
           sodipodi:rx="46.170052"
           sodipodi:ry="46.170052"
           sodipodi:start="5.6593523"
           sodipodi:end="5.6592825"
           sodipodi:open="true"
           d="m 162.71552,247.01207 a 46.170052,46.170052 0 0 1 -10.50279,64.4435 46.170052,46.170052 0 0 1 -64.443684,-10.50167 46.170052,46.170052 0 0 1 10.500548,-64.44387 46.170052,46.170052 0 0 1 64.444046,10.49943" />
        <path
           style="opacity:1;fill:#0000ff;fill-opacity:1;stroke-width:0.31076401"
           id="path4628"
           sodipodi:type="arc"
           sodipodi:cx="125.46468"
           sodipodi:cy="273.63962"
           sodipodi:rx="2.5"
           sodipodi:ry="2.5"
           sodipodi:start="5.6593523"
           sodipodi:end="5.6592825"
           sodipodi:open="true"
           d="m 127.4938,272.17924 a 2.5,2.5 0 0 1 -0.5687,3.48947 2.5,2.5 0 0 1 -3.48948,-0.56865 2.5,2.5 0 0 1 0.56858,-3.48948 2.5,2.5 0 0 1 3.4895,0.56852" />
        <path
           style="opacity:0.18999999;fill:#000000;fill-opacity:1;stroke-width:0.19350177"
           id="path4609-4-5"
           sodipodi:type="arc"
           sodipodi:cx="170.90411"
           sodipodi:cy="282.13208"
           sodipodi:rx="38.020344"
           sodipodi:ry="38.020344"
           sodipodi:start="5.6593523"
           sodipodi:end="5.6592825"
           sodipodi:open="true"
           d="m 201.76315,259.92248 a 38.020344,38.020344 0 0 1 -8.6489,53.06825 38.020344,38.020344 0 0 1 -53.0684,-8.64797 38.020344,38.020344 0 0 1 8.64705,-53.06855 38.020344,38.020344 0 0 1 53.0687,8.64611" />
        <path
           style="opacity:0.18999999;fill:#000000;fill-opacity:1;stroke-width:0.15934397"
           id="path4609-4-5-5"
           sodipodi:type="arc"
           sodipodi:cx="208.05717"
           sodipodi:cy="288.8436"
           sodipodi:rx="31.308823"
           sodipodi:ry="31.308823"
           sodipodi:start="5.6593523"
           sodipodi:end="5.6592825"
           sodipodi:open="true"
           d="m 233.46884,270.55453 a 31.308823,31.308823 0 0 1 -7.12216,43.70041 31.308823,31.308823 0 0 1 -43.70053,-7.12139 31.308823,31.308823 0 0 1 7.12063,-43.70066 31.308823,31.308823 0 0 1 43.70078,7.11987" />
        <path
           style="opacity:0.18999999;fill:#000000;fill-opacity:1;stroke-width:0.13006584"
           id="path4609-4-5-5-5"
           sodipodi:type="arc"
           sodipodi:cx="238.73843"
           sodipodi:cy="294.59628"
           sodipodi:rx="25.556089"
           sodipodi:ry="25.556089"
           sodipodi:start="5.6593523"
           sodipodi:end="5.6592825"
           sodipodi:open="true"
           d="m 259.48092,279.66768 a 25.556089,25.556089 0 0 1 -5.81352,35.67082 25.556089,25.556089 0 0 1 -35.67093,-5.81289 25.556089,25.556089 0 0 1 5.81228,-35.67103 25.556089,25.556089 0 0 1 35.67112,5.81165" />
        <path
           style="opacity:0.18999999;fill:#000000;fill-opacity:1;stroke-width:0.10566741"
           id="path4609-4-5-5-5-6"
           sodipodi:type="arc"
           sodipodi:cx="263.66696"
           sodipodi:cy="299.39026"
           sodipodi:rx="20.762146"
           sodipodi:ry="20.762146"
           sodipodi:start="5.6593523"
           sodipodi:end="5.6592825"
           sodipodi:open="true"
           d="m 280.51846,287.26204 a 20.762146,20.762146 0 0 1 -4.72299,28.97951 20.762146,20.762146 0 0 1 -28.97958,-4.72249 20.762146,20.762146 0 0 1 4.72197,-28.97967 20.762146,20.762146 0 0 1 28.97975,4.72147" />
        <path
           style="opacity:0.18999999;fill:#000000;fill-opacity:1;stroke-width:0.08736859"
           id="path4609-4-5-5-5-6-1"
           sodipodi:type="arc"
           sodipodi:cx="284.0412"
           sodipodi:cy="302.98572"
           sodipodi:rx="17.166689"
           sodipodi:ry="17.166689"
           sodipodi:start="5.6593523"
           sodipodi:end="5.6592825"
           sodipodi:open="true"
           d="m 297.97446,292.95779 a 17.166689,17.166689 0 0 1 -3.90509,23.96102 17.166689,17.166689 0 0 1 -23.96108,-3.90468 17.166689,17.166689 0 0 1 3.90425,-23.96115 17.166689,17.166689 0 0 1 23.96122,3.90384" />
        <path
           style="opacity:0.18999999;fill:#000000;fill-opacity:1;stroke-width:0.06906977"
           id="path4609-4-5-5-5-6-1-0"
           sodipodi:type="arc"
           sodipodi:cx="300.63599"
           sodipodi:cy="306.4964"
           sodipodi:rx="13.57123"
           sodipodi:ry="13.57123"
           sodipodi:start="5.6593523"
           sodipodi:end="5.6592825"
           sodipodi:open="true"
           d="m 311.65101,298.56876 a 13.57123,13.57123 0 0 1 -3.08719,18.94253 13.57123,13.57123 0 0 1 -18.94258,-3.08687 13.57123,13.57123 0 0 1 3.08653,-18.94263 13.57123,13.57123 0 0 1 18.94269,3.0862" />
        <path
           style="opacity:0.18999999;fill:#000000;fill-opacity:1;stroke-width:0.05514533"
           id="path4609-4-5-5-5-6-1-0-4"
           sodipodi:type="arc"
           sodipodi:cx="314.00336"
           sodipodi:cy="309.21786"
           sodipodi:rx="10.835276"
           sodipodi:ry="10.835276"
           sodipodi:start="5.6593523"
           sodipodi:end="5.6592825"
           sodipodi:open="true"
           d="m 322.79776,302.88843 a 10.835276,10.835276 0 0 1 -2.46482,15.12373 10.835276,10.835276 0 0 1 -15.12376,-2.46456 10.835276,10.835276 0 0 1 2.46429,-15.1238 10.835276,10.835276 0 0 1 15.12385,2.46402" />
        <path
           style="opacity:0.18999999;fill:#000000;fill-opacity:1;stroke-width:0.04608788"
           id="path4609-4-5-5-5-6-1-0-4-8"
           sodipodi:type="arc"
           sodipodi:cx="324.55106"
           sodipodi:cy="311.01367"
           sodipodi:rx="9.0556145"
           sodipodi:ry="9.0556145"
           sodipodi:start="5.6593523"
           sodipodi:end="5.6592825"
           sodipodi:open="true"
           d="m 331.901,305.72383 a 9.0556145,9.0556145 0 0 1 -2.05997,12.6397 9.0556145,9.0556145 0 0 1 -12.63974,-2.05976 9.0556145,9.0556145 0 0 1 2.05954,-12.63977 9.0556145,9.0556145 0 0 1 12.6398,2.05932" />
        <path
           style="opacity:0.18999999;fill:#000000;fill-opacity:1;stroke-width:0.03746174"
           id="path4609-4-5-5-5-6-1-0-4-8-6"
           sodipodi:type="arc"
           sodipodi:cx="333.36459"
           sodipodi:cy="312.70859"
           sodipodi:rx="7.3606992"
           sodipodi:ry="7.3606992"
           sodipodi:start="5.6593523"
           sodipodi:end="5.6592825"
           sodipodi:open="true"
           d="m 339.33887,308.40883 a 7.3606992,7.3606992 0 0 1 -1.67442,10.27396 7.3606992,7.3606992 0 0 1 -10.27398,-1.67424 7.3606992,7.3606992 0 0 1 1.67405,-10.27401 7.3606992,7.3606992 0 0 1 10.27405,1.67387" />
        <path
           style="opacity:0.18999999;fill:#000000;fill-opacity:1;stroke-width:0.03099213"
           id="path4609-4-5-5-5-6-1-0-4-8-6-6"
           sodipodi:type="arc"
           sodipodi:cx="340.48322"
           sodipodi:cy="313.89499"
           sodipodi:rx="6.0895128"
           sodipodi:ry="6.0895128"
           sodipodi:start="5.6593523"
           sodipodi:end="5.6592825"
           sodipodi:open="true"
           d="m 345.42574,310.3378 a 6.0895128,6.0895128 0 0 1 -1.38525,8.49965 6.0895128,6.0895128 0 0 1 -8.49968,-1.3851 6.0895128,6.0895128 0 0 1 1.38495,-8.4997 6.0895128,6.0895128 0 0 1 8.49973,1.3848" />
        <path
           style="opacity:0.18999999;fill:#000000;fill-opacity:1;stroke-width:0.02495383"
           id="path4609-4-5-5-5-6-1-0-4-8-6-6-2"
           sodipodi:type="arc"
           sodipodi:cx="346.16122"
           sodipodi:cy="315.16623"
           sodipodi:rx="4.9030724"
           sodipodi:ry="4.9030724"
           sodipodi:start="5.6593523"
           sodipodi:end="5.6592825"
           sodipodi:open="true"
           d="m 350.14078,312.3021 a 4.9030724,4.9030724 0 0 1 -1.11535,6.84364 4.9030724,4.9030724 0 0 1 -6.84366,-1.11524 4.9030724,4.9030724 0 0 1 1.11511,-6.84368 4.9030724,4.9030724 0 0 1 6.8437,1.115" />
        <path
           style="opacity:0.18999999;fill:#000000;fill-opacity:1;stroke-width:0.02064076"
           id="path4609-4-5-5-5-6-1-0-4-8-6-6-2-9"
           sodipodi:type="arc"
           sodipodi:cx="350.90698"
           sodipodi:cy="316.01367"
           sodipodi:rx="4.0556149"
           sodipodi:ry="4.0556149"
           sodipodi:start="5.6593523"
           sodipodi:end="5.6592825"
           sodipodi:open="true"
           d="m 354.1987,313.64458 a 4.0556149,4.0556149 0 0 1 -0.92257,5.66077 4.0556149,4.0556149 0 0 1 -5.66079,-0.92247 4.0556149,4.0556149 0 0 1 0.92238,-5.66081 4.0556149,4.0556149 0 0 1 5.66082,0.92228" />
        <path
           style="opacity:0.18999999;fill:#000000;fill-opacity:1;stroke-width:0.01675899"
           id="path4609-4-5-5-5-6-1-0-4-8-6-6-2-9-7"
           sodipodi:type="arc"
           sodipodi:cx="354.72052"
           sodipodi:cy="316.69162"
           sodipodi:rx="3.2929032"
           sodipodi:ry="3.2929032"
           sodipodi:start="5.6593523"
           sodipodi:end="5.6592825"
           sodipodi:open="true"
           d="m 357.39319,314.76807 a 3.2929032,3.2929032 0 0 1 -0.74907,4.59619 3.2929032,3.2929032 0 0 1 -4.5962,-0.749 3.2929032,3.2929032 0 0 1 0.74891,-4.59621 3.2929032,3.2929032 0 0 1 4.59623,0.74883" />
        <path
           style="opacity:0.18999999;fill:#000000;fill-opacity:1;stroke-width:0.01373984"
           id="path4609-4-5-5-5-6-1-0-4-8-6-6-2-9-7-1"
           sodipodi:type="arc"
           sodipodi:cx="357.94089"
           sodipodi:cy="317.3696"
           sodipodi:rx="2.6996832"
           sodipodi:ry="2.6996832"
           sodipodi:start="5.6593523"
           sodipodi:end="5.6592825"
           sodipodi:open="true"
           d="m 360.13207,315.79258 a 2.6996832,2.6996832 0 0 1 -0.61412,3.76818 2.6996832,2.6996832 0 0 1 -3.76819,-0.61406 2.6996832,2.6996832 0 0 1 0.61399,-3.7682 2.6996832,2.6996832 0 0 1 3.76821,0.61392" />
        <path
           style="opacity:1;fill:#0000ff;fill-opacity:1;stroke-width:0.01373984"
           id="path4609-4-5-5-5-6-1-0-4-8-6-6-2-9-7-1-7"
           sodipodi:type="arc"
           sodipodi:cx="314.12732"
           sodipodi:cy="309.40347"
           sodipodi:rx="2.6996832"
           sodipodi:ry="2.6996832"
           sodipodi:start="5.6593523"
           sodipodi:end="5.6592825"
           sodipodi:open="true"
           d="m 316.3185,307.82645 a 2.6996832,2.6996832 0 0 1 -0.61412,3.76818 2.6996832,2.6996832 0 0 1 -3.76819,-0.61406 2.6996832,2.6996832 0 0 1 0.61399,-3.7682 2.6996832,2.6996832 0 0 1 3.76821,0.61393"
           inkscape:transform-center-x="-8.1355932"
           inkscape:transform-center-y="-9.0677966" />
        <path
           style="opacity:1;fill:#0000ff;fill-opacity:1;stroke-width:0.01373984"
           id="path4609-4-5-5-5-6-1-0-4-8-6-6-2-9-7-1-7-2"
           sodipodi:type="arc"
           sodipodi:cx="354.8558"
           sodipodi:cy="316.7413"
           sodipodi:rx="2.6996832"
           sodipodi:ry="2.6996832"
           sodipodi:start="5.6593523"
           sodipodi:end="5.6592825"
           sodipodi:open="true"
           d="m 357.04699,315.16428 a 2.6996832,2.6996832 0 0 1 -0.61413,3.76818 2.6996832,2.6996832 0 0 1 -3.76819,-0.61406 2.6996832,2.6996832 0 0 1 0.614,-3.7682 2.6996832,2.6996832 0 0 1 3.76821,0.61393"
           inkscape:transform-center-x="-8.1355932"
           inkscape:transform-center-y="-9.0677966" />
        <path
           style="opacity:1;fill:#0000ff;fill-opacity:1;stroke-width:0.01373984"
           id="path4609-4-5-5-5-6-1-0-4-8-6-6-2-9-7-1-7-6"
           sodipodi:type="arc"
           sodipodi:cx="324.6358"
           sodipodi:cy="311.35266"
           sodipodi:rx="2.6996832"
           sodipodi:ry="2.6996832"
           sodipodi:start="5.6593523"
           sodipodi:end="5.6592825"
           sodipodi:open="true"
           d="m 326.82699,309.77564 a 2.6996832,2.6996832 0 0 1 -0.61413,3.76818 2.6996832,2.6996832 0 0 1 -3.76819,-0.61406 2.6996832,2.6996832 0 0 1 0.614,-3.7682 2.6996832,2.6996832 0 0 1 3.76821,0.61393"
           inkscape:transform-center-x="-8.1355932"
           inkscape:transform-center-y="-9.0677966" />
        <path
           style="opacity:1;fill:#0000ff;fill-opacity:1;stroke-width:0.01373984"
           id="path4609-4-5-5-5-6-1-0-4-8-6-6-2-9-7-1-7-6-6"
           sodipodi:type="arc"
           sodipodi:cx="333.27988"
           sodipodi:cy="312.87805"
           sodipodi:rx="2.6996832"
           sodipodi:ry="2.6996832"
           sodipodi:start="5.6593523"
           sodipodi:end="5.6592825"
           sodipodi:open="true"
           d="m 335.47106,311.30103 a 2.6996832,2.6996832 0 0 1 -0.61412,3.76818 2.6996832,2.6996832 0 0 1 -3.76819,-0.61406 2.6996832,2.6996832 0 0 1 0.61399,-3.7682 2.6996832,2.6996832 0 0 1 3.76821,0.61393"
           inkscape:transform-center-x="-8.1355932"
           inkscape:transform-center-y="-9.0677966" />
        <path
           style="opacity:1;fill:#0000ff;fill-opacity:1;stroke-width:0.01373984"
           id="path4609-4-5-5-5-6-1-0-4-8-6-6-2-9-7-1-7-6-9"
           sodipodi:type="arc"
           sodipodi:cx="340.56799"
           sodipodi:cy="314.4035"
           sodipodi:rx="2.6996832"
           sodipodi:ry="2.6996832"
           sodipodi:start="5.6593523"
           sodipodi:end="5.6592825"
           sodipodi:open="true"
           d="m 342.75918,312.82648 a 2.6996832,2.6996832 0 0 1 -0.61413,3.76818 2.6996832,2.6996832 0 0 1 -3.76819,-0.61406 2.6996832,2.6996832 0 0 1 0.614,-3.7682 2.6996832,2.6996832 0 0 1 3.76821,0.61393"
           inkscape:transform-center-x="-8.1355932"
           inkscape:transform-center-y="-9.0677966" />
        <path
           style="opacity:1;fill:#0000ff;fill-opacity:1;stroke-width:0.01373984"
           id="path4609-4-5-5-5-6-1-0-4-8-6-6-2-9-7-1-7-6-5"
           sodipodi:type="arc"
           sodipodi:cx="346.16122"
           sodipodi:cy="315.33569"
           sodipodi:rx="2.6996832"
           sodipodi:ry="2.6996832"
           sodipodi:start="5.6593523"
           sodipodi:end="5.6592825"
           sodipodi:open="true"
           d="m 348.35241,313.75867 a 2.6996832,2.6996832 0 0 1 -0.61413,3.76818 2.6996832,2.6996832 0 0 1 -3.76819,-0.61406 2.6996832,2.6996832 0 0 1 0.614,-3.7682 2.6996832,2.6996832 0 0 1 3.76821,0.61393"
           inkscape:transform-center-x="-8.1355932"
           inkscape:transform-center-y="-9.0677966" />
        <path
           style="opacity:1;fill:#0000ff;fill-opacity:1;stroke-width:0.01373984"
           id="path4609-4-5-5-5-6-1-0-4-8-6-6-2-9-7-1-7-6-3"
           sodipodi:type="arc"
           sodipodi:cx="350.90698"
           sodipodi:cy="316.18317"
           sodipodi:rx="2.6996832"
           sodipodi:ry="2.6996832"
           sodipodi:start="5.6593523"
           sodipodi:end="5.6592825"
           sodipodi:open="true"
           d="m 353.09817,314.60615 a 2.6996832,2.6996832 0 0 1 -0.61413,3.76817 2.6996832,2.6996832 0 0 1 -3.76819,-0.61406 2.6996832,2.6996832 0 0 1 0.614,-3.7682 2.6996832,2.6996832 0 0 1 3.76821,0.61393"
           inkscape:transform-center-x="-8.1355932"
           inkscape:transform-center-y="-9.0677966" />
        <path
           style="opacity:1;fill:#0000ff;fill-opacity:1;stroke-width:0.01373984"
           id="path4609-4-5-5-5-6-1-0-4-8-6-6-2-9-7-1-7-6-52"
           sodipodi:type="arc"
           sodipodi:cx="357.94101"
           sodipodi:cy="317.36975"
           sodipodi:rx="2.6996832"
           sodipodi:ry="2.6996832"
           sodipodi:start="5.6593523"
           sodipodi:end="5.6592825"
           sodipodi:open="true"
           d="m 360.13219,315.79273 a 2.6996832,2.6996832 0 0 1 -0.61412,3.76818 2.6996832,2.6996832 0 0 1 -3.76819,-0.61406 2.6996832,2.6996832 0 0 1 0.61399,-3.7682 2.6996832,2.6996832 0 0 1 3.76821,0.61393"
           inkscape:transform-center-x="-8.1355932"
           inkscape:transform-center-y="-9.0677966" />
      </g>
    </g>
    <rect
       style="fill:#70e6a6;fill-opacity:1;stroke-width:0.1493481"
       id="rect299"
       width="84.067795"
       height="21.016951"
       x="438.19504"
       y="207.28488" />
    <flowRoot
       xml:space="preserve"
       id="flowRoot303"
       style="font-style:normal;font-weight:normal;font-size:40px;line-height:1.25;font-family:sans-serif;letter-spacing:0px;word-spacing:0px;fill:#000000;fill-opacity:1;stroke:none"><flowRegion
         id="flowRegion305"><rect
           id="rect307"
           width="288.54236"
           height="101.9661"
           x="607.45764"
           y="642.16949" /></flowRegion><flowPara
         id="flowPara309" /></flowRoot>  </g>
  <text
     xml:space="preserve"
     style="font-style:normal;font-weight:normal;font-size:14.22914219px;line-height:1.25;font-family:sans-serif;letter-spacing:0px;word-spacing:0px;fill:#000000;fill-opacity:1;stroke:none;stroke-width:0.35572857"
     x="372.16858"
     y="206.01733"
     id="text313"
     transform="scale(0.92953328,1.0758087)"><tspan
       sodipodi:role="line"
       id="tspan311"
       x="372.16858"
       y="206.01733"
       style="fill:#000000;fill-opacity:1;stroke-width:0.35572857">Infinite plane</tspan></text>
  <path
     style="opacity:1;fill:#0000ff;fill-opacity:1;stroke-width:0.50203764"
     id="path4947"
     sodipodi:type="arc"
     sodipodi:cx="300.86453"
     sodipodi:cy="306.47977"
     sodipodi:rx="2.5"
     sodipodi:ry="2.5"
     sodipodi:start="5.6593523"
     sodipodi:end="5.6592825"
     sodipodi:open="true"
     d="m 302.89365,305.01939 a 2.5,2.5 0 0 1 -0.56871,3.48946 2.5,2.5 0 0 1 -3.48947,-0.56864 2.5,2.5 0 0 1 0.56858,-3.48948 2.5,2.5 0 0 1 3.48949,0.56852" />
  <path
     style="opacity:1;fill:#0000ff;fill-opacity:1;stroke-width:0.50203764"
     id="path4947-3"
     sodipodi:type="arc"
     sodipodi:cx="283.92126"
     sodipodi:cy="303.2254"
     sodipodi:rx="2.5"
     sodipodi:ry="2.5"
     sodipodi:start="5.6593523"
     sodipodi:end="5.6592825"
     sodipodi:open="true"
     d="m 285.95038,301.76503 a 2.5,2.5 0 0 1 -0.5687,3.48946 2.5,2.5 0 0 1 -3.48948,-0.56864 2.5,2.5 0 0 1 0.56858,-3.48948 2.5,2.5 0 0 1 3.4895,0.56851" />
  <path
     style="opacity:1;fill:#0000ff;fill-opacity:1;stroke-width:0.50203764"
     id="path4947-35"
     sodipodi:type="arc"
     sodipodi:cx="263.78671"
     sodipodi:cy="299.57004"
     sodipodi:rx="2.5"
     sodipodi:ry="2.5"
     sodipodi:start="5.6593523"
     sodipodi:end="5.6592825"
     sodipodi:open="true"
     d="m 265.81583,298.10966 a 2.5,2.5 0 0 1 -0.56871,3.48947 2.5,2.5 0 0 1 -3.48947,-0.56865 2.5,2.5 0 0 1 0.56858,-3.48948 2.5,2.5 0 0 1 3.48949,0.56852" />
  <path
     style="opacity:1;fill:#0000ff;fill-opacity:1;stroke-width:0.50203764"
     id="path4947-4"
     sodipodi:type="arc"
     sodipodi:cx="238.79829"
     sodipodi:cy="294.59631"
     sodipodi:rx="2.5"
     sodipodi:ry="2.5"
     sodipodi:start="5.6593523"
     sodipodi:end="5.6592825"
     sodipodi:open="true"
     d="m 240.82741,293.13594 a 2.5,2.5 0 0 1 -0.5687,3.48946 2.5,2.5 0 0 1 -3.48948,-0.56864 2.5,2.5 0 0 1 0.56858,-3.48948 2.5,2.5 0 0 1 3.4895,0.56852" />
  <path
     style="opacity:1;fill:#0000ff;fill-opacity:1;stroke-width:0.50203764"
     id="path4947-9"
     sodipodi:type="arc"
     sodipodi:cx="208.4493"
     sodipodi:cy="288.97977"
     sodipodi:rx="2.5"
     sodipodi:ry="2.5"
     sodipodi:start="5.6593523"
     sodipodi:end="5.6592825"
     sodipodi:open="true"
     d="m 210.47841,287.51939 a 2.5,2.5 0 0 1 -0.5687,3.48946 2.5,2.5 0 0 1 -3.48948,-0.56864 2.5,2.5 0 0 1 0.56858,-3.48948 2.5,2.5 0 0 1 3.4895,0.56852" />
  <path
     style="opacity:1;fill:#0000ff;fill-opacity:1;stroke-width:0.50203764"
     id="path4947-39"
     sodipodi:type="arc"
     sodipodi:cx="170.73743"
     sodipodi:cy="281.86111"
     sodipodi:rx="2.5"
     sodipodi:ry="2.5"
     sodipodi:start="5.6593523"
     sodipodi:end="5.6592825"
     sodipodi:open="true"
     d="m 172.76654,280.40074 a 2.5,2.5 0 0 1 -0.5687,3.48946 2.5,2.5 0 0 1 -3.48948,-0.56864 2.5,2.5 0 0 1 0.56858,-3.48948 2.5,2.5 0 0 1 3.4895,0.56852" />
</svg>
